<?xml version="1.0" encoding="UTF-8"?>
<svg id="Layer_2" data-name="Layer 2" xmlns="http://www.w3.org/2000/svg" version="1.1" viewBox="0 0 187.8 188.7">
  <defs>
    <style>
      .cls-1 {
        fill: #282016;
        stroke-width: 0px;
      }
    </style>
  </defs>
  <g id="Layer_1-2" data-name="Layer 1-2">
    <path class="cls-1" d="M144,188.7h-.8c-8.4-.1-17-2-26.8-5.8-30.3-11.7-57-31.3-79.3-58.2-13.6-16.3-23.3-32.3-29.9-48.8-2.9-7.4-6-16.2-6.9-25.7-.7-7-.7-16,4.7-24.3,1.2-1.9,2.6-3.6,4.2-5.2,4.6-4.7,9.4-9.5,14.3-14.4C29.9,0,38-1.7,45.2,1.7c2.3,1.1,4.5,2.6,6.3,4.4,8.2,8.1,16.5,16.4,23.8,23.8,5,5,7.1,10.3,6.4,16.2-.5,4.7-2.8,8.8-6.9,12.8-3.2,3.1-6.5,6.1-9.8,9.2l-3.5,3.3c4.2,9.7,10.8,18,16.7,24.9,9.2,10.6,18.9,19.1,29.6,25.8,2.3,1.4,4.7,2.7,7.3,4.1l1.4.8c4.2-4.2,9-9.1,14-14,4.8-4.7,10.1-6.7,16-5.9,4,.5,7.6,2.3,10.6,5.3l3.2,3.2c7.1,7.1,14.5,14.4,21.6,21.7,7.6,7.8,7.9,18.3.6,26.6-2,2.3-4.1,4.4-6.2,6.4-.9.9-1.7,1.7-2.6,2.6-.6.6-1.2,1.2-1.8,1.8-1.1,1.1-2.1,2.1-3,3.1-6.5,7.4-14.8,11.1-24.9,11.1h0ZM37.6,10c-2.9,0-5.4,1.7-7.1,3.5-4.9,4.8-9.6,9.6-14.2,14.2-1.1,1.1-2.1,2.3-2.9,3.7-2.9,4.4-3.8,9.8-3.1,17.8.8,8.3,3.6,16.3,6.3,23,6.1,15.5,15.4,30.6,28.3,46.1,21.2,25.6,46.5,44.2,75.2,55.3,8.7,3.4,16.1,5,23.4,5.1h0c7.4.1,13.3-2.4,17.9-7.7,1.2-1.3,2.4-2.5,3.6-3.7.6-.5,1.1-1.1,1.6-1.6.9-.9,1.8-1.8,2.7-2.7,2-2,3.9-3.9,5.7-5.9,3.8-4.4,3.7-9-.3-13.1-7.1-7.3-14.4-14.5-21.5-21.6l-3.2-3.2c-1.4-1.4-3-2.2-4.8-2.4-2.8-.4-5.2.6-7.8,3.1-5.1,5.1-10.2,10.2-14.5,14.5-2.9,3-6.8,3.6-10.2,1.8-.8-.4-1.6-.9-2.4-1.3-2.6-1.4-5.3-2.8-7.9-4.5-11.5-7.3-21.9-16.3-31.8-27.7-6.5-7.5-13.8-16.6-18.5-27.7-1.9-4.5-1.3-7.4,2.2-10.8l3.8-3.5c3.2-3,6.5-6.1,9.7-9.1,2.4-2.3,3.6-4.4,3.9-6.7.3-2.8-.8-5.2-3.6-8-7.3-7.3-15.5-15.6-23.7-23.7-1-1-2.3-1.9-3.5-2.5-1.1-.5-2.2-.8-3.3-.8h0Z"/>
  </g>
</svg>