<?xml version="1.0" encoding="UTF-8"?>
<svg id="Layer_2" data-name="Layer 2" xmlns="http://www.w3.org/2000/svg" viewBox="0 0 187.78 188.66">
  <defs>
    <style>
      .cls-1 {
        fill: #f8f8f8;
        stroke-width: 0px;
      }
    </style>
  </defs>
  <g id="Layer_1-2" data-name="Layer 1">
    <path class="cls-1" d="M144,188.66c-.25,0-.51,0-.76,0h0c-8.45-.15-16.96-1.99-26.8-5.79-30.32-11.73-57-31.32-79.32-58.21-13.57-16.35-23.34-32.33-29.87-48.85-2.91-7.37-6.01-16.18-6.93-25.69-.67-6.97-.74-16.03,4.68-24.26,1.23-1.86,2.62-3.6,4.16-5.16,4.58-4.68,9.4-9.51,14.32-14.35C29.87.04,37.97-1.68,45.15,1.7c2.28,1.08,4.45,2.6,6.28,4.4,8.25,8.12,16.5,16.44,23.78,23.77,4.97,5.01,7.07,10.3,6.41,16.18-.52,4.66-2.8,8.85-6.95,12.79-3.25,3.08-6.51,6.13-9.78,9.19l-3.5,3.27c4.16,9.73,10.79,18.03,16.74,24.88,9.25,10.64,18.93,19.09,29.61,25.83,2.3,1.45,4.72,2.74,7.29,4.11.47.25.94.5,1.41.75,4.17-4.22,9.03-9.12,14-14,4.75-4.67,10.14-6.66,16.02-5.91,4.03.51,7.61,2.29,10.62,5.28l3.2,3.17c7.12,7.07,14.48,14.37,21.6,21.69,7.62,7.83,7.88,18.27.65,26.58-2,2.3-4.15,4.41-6.23,6.45-.87.85-1.73,1.7-2.59,2.56-.59.6-1.2,1.18-1.8,1.77-1.09,1.06-2.12,2.06-3.03,3.09-6.46,7.37-14.82,11.1-24.87,11.1ZM37.62,9.99c-2.89,0-5.38,1.74-7.14,3.47-4.88,4.8-9.65,9.58-14.19,14.21-1.09,1.11-2.08,2.34-2.95,3.67-2.92,4.44-3.84,9.77-3.07,17.8.79,8.27,3.61,16.26,6.27,22.97,6.14,15.52,15.38,30.61,28.27,46.14,21.22,25.57,46.53,44.16,75.24,55.27,8.71,3.37,16.13,5,23.36,5.12h0c7.42.13,13.28-2.37,17.94-7.68,1.17-1.34,2.41-2.53,3.6-3.68.55-.54,1.11-1.07,1.65-1.62.89-.9,1.79-1.78,2.69-2.67,2.03-1.99,3.94-3.87,5.69-5.87,3.78-4.35,3.69-8.98-.27-13.05-7.07-7.26-14.4-14.54-21.48-21.57l-3.2-3.18c-1.43-1.42-3.01-2.22-4.83-2.45-2.81-.36-5.19.61-7.75,3.12-5.15,5.07-10.2,10.16-14.47,14.48-2.94,2.98-6.76,3.64-10.21,1.77-.81-.44-1.62-.87-2.43-1.3-2.61-1.39-5.31-2.83-7.93-4.48-11.51-7.27-21.92-16.34-31.82-27.73-6.51-7.49-13.79-16.64-18.49-27.74-1.92-4.54-1.32-7.45,2.2-10.75l3.76-3.52c3.25-3.04,6.5-6.08,9.73-9.14,2.44-2.31,3.64-4.36,3.9-6.65.31-2.79-.76-5.19-3.57-8.02-7.26-7.32-15.49-15.61-23.7-23.69-1.03-1.01-2.28-1.89-3.54-2.49-1.13-.53-2.22-.76-3.26-.76Z"/>
  </g>
</svg>