<?xml version="1.0" encoding="UTF-8"?>
<svg id="Layer_2" data-name="Layer 2" xmlns="http://www.w3.org/2000/svg" version="1.1" viewBox="0 0 287.2 383.3">
  <defs>
    <style>
      .cls-1 {
        fill: #282016;
        stroke-width: 0px;
      }
    </style>
  </defs>
  <g id="Layer_1-2" data-name="Layer 1-2">
    <path class="cls-1" d="M141.4,383.3c-19.9-18.9-38.2-39.3-55.5-60.6-22.4-27.4-42.8-56.1-59.2-87.5-11.3-21.7-20.7-44.2-24.7-68.6-6.5-40,2.6-76.4,26.6-108.7C51.9,26.7,83.3,8,121.7,1.8c76.9-12.4,150.5,40.8,163.6,117.6,5.1,29.9-.1,58.3-11,86-13.7,34.8-33.7,66.1-56,95.9-20.5,27.4-43,53.1-67.3,77.2-1.7,1.6-3.4,3.2-5.1,4.8h-4.5ZM143.9,369.4c.9-1.3,1.4-2.1,2-2.7,28.2-28.9,54.2-59.6,77.1-92.9,18.3-26.7,34.4-54.6,44.7-85.5,9-27.2,10.5-54.6,2.2-82.4C246.7,27.7,156.7-10.9,84.1,26.3,30.8,53.6,2.8,111.5,14.9,170c5.2,25.3,16,48.4,28.7,70.7,22.4,39.3,50.4,74.5,80.8,107.9,6.2,6.8,12.6,13.4,19.6,20.8h0Z"/>
    <path class="cls-1" d="M144.2,77.9c35.8.1,65.4,29.8,65.3,65.7,0,36.6-29.6,66.1-66.2,66-36.5-.1-65.7-29.9-65.5-66.7.2-36,30-65.2,66.4-65h0ZM197.6,143.8c0-29.7-24.2-53.9-53.7-53.9-30.1,0-54.2,24.2-54.1,54.2,0,29.5,24.3,53.5,54,53.6,29.5,0,53.8-24.4,53.7-53.9Z"/>
  </g>
</svg>