<?xml version="1.0" encoding="UTF-8"?>
<svg id="Layer_2" data-name="Layer 2" xmlns="http://www.w3.org/2000/svg" version="1.1" viewBox="0 0 204.6 167.1">
  <defs>
    <style>
      .cls-1 {
        fill: #282016;
        stroke-width: 0px;
      }
    </style>
  </defs>
  <g id="Layer_1-2" data-name="Layer 1-2">
    <path class="cls-1" d="M23.9,167.1c-6.7,0-12.4-2.2-16.9-6.5-4.4-4.2-6-9.4-6.9-12.9C0,147.3,0,146.9,0,146.5V57.2C0,55.6.9,54,2.3,53.1c1.4-.9,3.2-1.1,4.7-.4.4.1,1,.4,1.6.8,19.9,13.3,39.8,26.5,59.7,39.8l19.3,12.8c9.7,6.5,19.6,6.5,29.2,0,17.5-11.7,35-23.3,52.5-35l25.5-17c.4-.3.8-.5,1.3-.8l.8-.5c1.5-1,3.5-1,5.1-.2,1.6.9,2.6,2.6,2.6,4.4v16.3c0,23.5,0,46.9,0,70.4,0,2-.2,4-.7,5.9-2.6,10.5-11.7,17.3-23.1,17.3-18.6,0-37.2,0-55.8,0H23.9h0ZM10,145.9c.9,3.4,2.1,5.7,3.9,7.4,2.7,2.6,5.9,3.7,10,3.7h0c19.4,0,38.9,0,58.3,0h98.4c6.9,0,11.9-3.7,13.5-9.8.3-1.1.4-2.3.4-3.5,0-23.5,0-46.9,0-70.4v-7l-19.7,13.1c-17.5,11.7-35,23.3-52.5,35-13.2,8.8-27.1,8.7-40.3-.1l-19.3-12.8c-17.6-11.7-35.2-23.5-52.8-35.2v79.5h0Z"/>
    <path class="cls-1" d="M102.3,98.4c-4.7,0-9.3-1.6-14.2-4.9-6.6-4.4-13.2-8.8-19.8-13.2-18-12-36.7-24.5-55.1-36.6C8,40.3,1.9,35.2.1,26.5v-.5c-.1,0-.1-6.1-.1-6.1l.2-.7c0-.3.2-.6.3-1,.2-.8.4-1.6.7-2.5C4.4,6.3,12.9.2,23.1,0,25.7,0,28.4,0,31,0h38.6C106.5,0,143.5,0,180.5,0h0c7.5,0,13.6,2.6,18.1,7.6,4.5,5,6.6,11.5,5.8,17.9-.8,6.3-4.3,12.1-9.7,15.8-8.4,5.7-16.9,11.4-25.2,16.9-3.5,2.3-7,4.7-10.5,7l-3.4,2.3c-13,8.7-26.1,17.4-39.1,26.1-4.9,3.3-9.6,4.9-14.2,4.9h0ZM10,24.9c.9,4,3.4,6.9,8.7,10.4,18.4,12.1,37.1,24.6,55.1,36.7,6.6,4.4,13.2,8.8,19.8,13.2,6.5,4.3,10.8,4.3,17.3,0,13-8.7,26.1-17.4,39.1-26.1l3.4-2.3c3.5-2.3,7-4.7,10.5-7,8.2-5.5,16.8-11.1,25.1-16.8,3.1-2.1,5-5.2,5.4-8.7.4-3.6-.7-7.2-3.3-10-2.6-2.9-6.1-4.3-10.7-4.3h0c-37,0-74,0-111,0H30.9c-2.5,0-5.1,0-7.7,0-5.9,0-10.8,3.5-12.6,8.8-.2.6-.4,1.3-.6,2,0,.1,0,.3-.1.4v3.7h0Z"/>
  </g>
</svg>