<?xml version="1.0" encoding="UTF-8"?>
<svg id="Layer_2" data-name="Layer 2" xmlns="http://www.w3.org/2000/svg" xmlns:xlink="http://www.w3.org/1999/xlink" viewBox="0 0 235.76 93.07">
  <defs>
    <style>
      .cls-1 {
        clip-path: url(#clippath-2);
      }

      .cls-2 {
        clip-path: url(#clippath-6);
      }

      .cls-3 {
        clip-path: url(#clippath-7);
      }

      .cls-4 {
        clip-path: url(#clippath-1);
      }

      .cls-5 {
        clip-path: url(#clippath-4);
      }

      .cls-6, .cls-7 {
        fill: #fff;
      }

      .cls-8 {
        clip-path: url(#clippath);
      }

      .cls-9 {
        clip-path: url(#clippath-3);
      }

      .cls-10 {
        clip-path: url(#clippath-8);
      }

      .cls-7 {
        stroke-width: 0px;
      }

      .cls-11 {
        clip-path: url(#clippath-5);
      }
    </style>
    <clipPath id="clippath">
      <path class="cls-7" d="M87.87,32.3c-.51.06-1.03.13-1.54.14-3.01.05-5.92.63-8.68,1.85-.26.12-.55.18-.79.43.3.11.55.08.8.07,2.93-.14,5.78-.74,8.62-1.42,1.17-.29,2.84-.31,3.69-1.31.13-.16.39-.5.33-.7-.27.1-.54.31-.79.44-.54.27-1.06.44-1.66.5h.01Z"/>
    </clipPath>
    <clipPath id="clippath-1">
      <path class="cls-7" d="M83.58,27.88c4.14-.6,7.96-1.81,11.4-4.11-1.21.31-2.39.73-3.62.91-2.55.37-4.82,1.46-7.06,2.61-.24.12-.51.22-.71.59h-.01Z"/>
    </clipPath>
    <clipPath id="clippath-2">
      <path class="cls-7" d="M67.15,37.88c-5.56,6.02-9.76,12.98-14.29,19.76-.93,1.4-1.86,2.78-2.81,4.17-.55.82-1.05,1.68-1.6,2.5-.5.74-1.06,1.5-1.39,2.35-.11.27.51-.32.68-.57,1.25-1.85,2.58-3.71,3.84-5.56.91-1.34,1.84-2.75,2.76-4.1.79-1.07,1.41-2.16,2.15-3.27,1.03-1.55,2.29-2.77,4.06-3.44,1.16-.44,2.32-.81,3.51-1.12,2.83-.74,5.75-1.03,8.64-1.44.38-.06.78-.06,1.08-.42-4.74-1.01-9.33-.81-13.66,1.81.02-.32.2-.44.31-.6.79-1.19,1.96-1.95,3.13-2.71,2.57-1.66,5.31-2.89,8.37-3.32,1.55-.21,3.12-.39,4.67-.6.3-.04.63-.04.97-.42-4.6-.91-8.9-.69-12.91,1.81-.05.04-.1.07-.13.11.05-.04.1-.07.13-.11-.05-.05-.1-.1-.13-.16.79-.99,1.72-1.8,2.83-2.41,1.85-1.01,3.86-1.56,5.88-2.07,2.14-.54,4.31-.88,6.48-1.34.44-.1.9-.17,1.28-.51-.23-.18-.45-.2-.68-.23-.87-.11-1.74-.11-2.62-.08-2.88.08-5.71.41-8.32,1.77-.13.07-.19.13-.33.06.04-.45.78-1.07,1.1-1.42.44-.48.92-.92,1.46-1.29,2.06-1.42,4.7-1.55,7.1-2.27,3.04-.9,5.71-2.76,8.76-3.63-3.22.02-6.41.74-9.32,2.08-1.02.47-2.04,1.03-3.17,1.07,2.45-2.21,5.46-3.67,8.34-5.29,2.88-1.62,5.72-3.52,7.52-6.29.1-.16.2-.32.18-.5-.04-.31-.44-.47-.75-.37-.31.1-.51.36-.72.6-2.73,3.19-6.62,5.09-10.18,7.31-4.51,2.81-8.56,6.21-12.16,10.1l-.06.04Z"/>
    </clipPath>
    <clipPath id="clippath-3">
      <path class="cls-7" d="M15.97,38.06c2.28,2.7,4.49,5.38,5.98,8.6,1.55,3.38,2.44,6.96,4.28,10.23.17.3.35.6.53.9,1.3,2.15,2.67,4.17,3.61,6.51,1.09,2.7,2.75,7.75,3.11,8.15.1.11.08-.64.08-.69-.04-.68-.11-1.36-.18-2.03-.1-.93-.14-1.86-.26-2.78-.12-.92-.37-1.89-.71-2.78-.42-1.15-.94-2.24-1.51-3.33-.56-1.09-1.02-2.22-1.48-3.34-.32-.78-.61-1.55-.86-2.35-.66-2.1-1.03-4.3-1.84-6.35-.81-2.05-2.21-4.02-3.81-5.61-3.04-3-5.77-6.16-8.98-8.98-2.46-2.17-4.78-4.21-7.34-6.28-.49-.39-2.34-1.59-2-1.05.78,1.19,2.15,2.33,3.31,3.34,2.83,2.48,5.61,4.98,8.06,7.86h.01Z"/>
    </clipPath>
    <clipPath id="clippath-4">
      <path class="cls-7" d="M77.09,54.15c-4.31,1.38-8.58,2.93-12.8,4.56-2.62,1.01-5.02,2.33-7.03,4.3-.91.9-1.85,1.77-2.68,2.75.1.11.2.18.33.23-.12-.05-.24-.13-.33-.23-1.33,1.21-2.71,2.32-4.12,3.41-.87.59-1.75,1.17-2.62,1.77-.86.59-1.67,1.21-2.34,2.01-1.1,1.33-2.1,2.71-3.12,4.11-.06.1-.24.29-.11.3.1,0,.31-.2.45-.32,2.87-2.32,5.7-5.07,8.98-6.82s6.19-3.57,8.84-6.1c.6-.57,1.2-1.16,1.82-1.72,2.81-2.54,6.26-3.93,9.69-5.49,3.45-1.58,4.77-1.95,8.38-3.07.24-.07,3.07-1.39,2.89-1.49-.18-.12-2.26.55-2.35.59-1.92.58-1.95.62-3.87,1.23h-.01Z"/>
    </clipPath>
    <clipPath id="clippath-5">
      <path class="cls-7" d="M46.86,56.71c.06-.1.13-.2.19-.3,2.16-3.4,4.25-6.84,6.3-10.32,1.96-3.34,3.86-6.71,5.69-10.12,1.83-3.41,3.29-6.82,4.85-10.24.44-.98,1.18-2.15,1.41-3.21-.13.17-.25.35-.37.53-2.44,4.06-4.9,8.08-7.45,12.07-1.04,1.64-2.09,3.27-3.13,4.92-1.08,1.58-2.14,3.16-3.23,4.74-1.25,1.83-2.52,3.64-3.79,5.47-.99,1.24-1.83,2.59-2.73,3.89-1.09,1.6-1.79,3.36-2.14,5.27-.23,1.3-.42,2.6-.73,3.88-.78,3.22-2.04,6.28-3.19,9.37-.07.2-.41,1.16-.16.82.79-1.05,2.13-4.58,3.06-6.83.73-1.77,1.57-3.51,2.37-5.24.76-1.64,2.01-3.18,3.01-4.7h.02Z"/>
    </clipPath>
    <clipPath id="clippath-6">
      <path class="cls-7" d="M11.26,58.92c1.54,1.56,3.11,3.1,4.7,4.6,3.36,3.16,7,6.77,11.55,8.09,2.13.62,3.79,1.93,4.76,4.01.45.99.91,4.05.95,2.88.05-1.42-.2-2.25-.62-3.33-.45-1.18-1.4-1.94-2.2-2.9-2.5-2.94-5.01-5.78-7.83-8.41-2.82-2.63-5.92-5.3-9.02-7.8-1.76-1.41-3.54-2.82-5.37-4.12-2.63-1.91-5.4-3.8-8.04-5.67-.07-.05-.02,0-.13-.01.02.16-.04.1.05.19,3.54,4.23,7.35,8.52,11.22,12.48h-.01Z"/>
    </clipPath>
    <clipPath id="clippath-7">
      <path class="cls-7" d="M70.82,69.73c-5.72,1.81-11.38,3.87-17.04,5.87-1.73.61-3.47,1.22-5.22,1.77-2.43.76-4.66,1.91-6.72,3.4-.35.25-.84.44-.93.88-.06.25.81-.1,1.02-.24,3.16-2.35,6.2-4.07,10.26-3.65.71.07,1.41.06,2.12-.02,3.24-.41,6.51-1.76,9.55-2.91,4.64-1.77,9.13-3.93,13.43-6.39.5-.29,1.05-.5,1.54-1-.76.07-1.36.32-1.98.49-2.02.56-4.03,1.17-6.02,1.8Z"/>
    </clipPath>
    <clipPath id="clippath-8">
      <path class="cls-7" d="M40.17,49.84c.72-3.87,1.31-7.69,1.46-11.62.16-4.02-.04-8.05-.42-12.05-.78-7.95-2.39-15.75-3.98-23.56-.18-.87-.37-1.74-.55-2.61-.04.51,0,1,.05,1.49.5,3.9.73,7.82.8,11.75.14,8.18.12,16.37-.07,24.56-.19,8.27-.55,16.55-.9,24.81-.1,2.33-.32,4.69-.32,7.02-.13,2.42-.33,4.86-.98,7.2-.94,3.39-2.67,6.41-4.71,9.25-1.54,2.14-3.53,3.87-5.47,5.61-.22.19-.43.38-.62.6-.13.16-.17.33-.06.53.11.18.27.25.48.25.25,0,.44-.13.62-.27,1.8-1.43,3.51-2.96,4.92-4.79,1.76-2.28,3.07-4.82,4.53-7.29,1.85-3.12,2.8-6.46,2.95-10.06.11-2.54.22-5.07.31-7.62.05-1.21,0-2.44.14-3.63.12-1.03.47-2.02.66-3.03.42-2.17.79-4.36,1.2-6.54h-.04Z"/>
    </clipPath>
  </defs>
  <g id="Layer_1-2" data-name="Layer 1">
    <g>
      <g>
        <path class="cls-7" d="M122.21,52.69l-10.33-20.4v20.02h-2.68v-26.39h2.34l10.67,21.49,10.67-21.49h2.34v26.39h-2.68v-20.02l-10.33,20.4Z"/>
        <path class="cls-7" d="M142.26,25.92h3.02v26.39h-3.02v-26.39Z"/>
        <path class="cls-7" d="M152.33,25.92h2.34l17.23,21.68v-21.68h2.79v26.39h-2.34l-17.23-21.68v21.68h-2.79v-26.39Z"/>
        <path class="cls-7" d="M181.58,52.32v-26.39h7.09c10.26,0,15.46,6.03,15.46,13.2s-5.2,13.2-15.46,13.2h-7.09ZM184.56,49.75h3.88c8.41,0,12.67-4.45,12.67-10.63s-4.26-10.63-12.67-10.63h-3.88v21.27Z"/>
        <path class="cls-7" d="M209.67,25.92h3.02v26.39h-3.02v-26.39Z"/>
        <path class="cls-7" d="M219.73,25.92h3.02v23.75h13.01v2.64h-16.02v-26.39Z"/>
        <path class="cls-7" d="M121.02,66.39c-1.22-2.05-3.39-3.39-6.26-3.39-4.11,0-7.25,3.04-7.25,7.12s3.14,7.12,7.25,7.12c2.87,0,5.05-1.34,6.26-3.39h.54c-1.32,2.45-3.81,3.9-6.81,3.9-4.32,0-7.79-3.21-7.79-7.63s3.48-7.63,7.79-7.63c3,0,5.49,1.45,6.81,3.9h-.54Z"/>
        <path class="cls-7" d="M124.87,62.78h.54v7h10.31v-7h.54v14.67h-.54v-7.17h-10.31v7.17h-.54v-14.67Z"/>
        <path class="cls-7" d="M150.49,73.82h-9.09l-1.57,3.62h-.57l6.47-14.67h.42l6.49,14.67h-.57l-1.59-3.62ZM141.58,73.38h8.72l-4.36-10.04-4.36,10.04Z"/>
        <path class="cls-7" d="M156.14,63.91v13.53h-.5v-14.67h.46l6.45,13.76,6.47-13.76h.46v14.67h-.5v-13.53l-6.43,13.74-6.41-13.74Z"/>
        <path class="cls-7" d="M179.85,69.78c2.2.17,4.02,1.66,4.02,3.71,0,2.33-1.89,3.96-4.92,3.96h-5.22v-14.67h4.84c2.62,0,4.11,1.63,4.11,3.56s-1.45,3.06-2.83,3.44ZM174.25,69.61h4.23c1.97,0,3.67-1.4,3.67-3.27s-1.45-3.1-3.67-3.1h-4.23v6.37ZM178.8,76.97c2.91,0,4.55-1.42,4.55-3.46,0-1.93-1.7-3.44-4.42-3.44h-4.67v6.89h4.55Z"/>
        <path class="cls-7" d="M187.07,62.78h8.84v.48h-8.3v6.47h8.11v.48h-8.11v6.75h8.36v.48h-8.9v-14.67Z"/>
        <path class="cls-7" d="M204.31,72.25l4.78,5.2h-.69l-4.76-5.17h-3.81v5.17h-.54v-14.67h4.57c3.46,0,5.43,2.28,5.43,4.69s-1.82,4.59-4.97,4.78ZM203.83,71.79c3.25,0,4.92-2.18,4.92-4.32s-1.63-4.21-4.92-4.21h-4v8.53h4Z"/>
        <path class="cls-7" d="M212.31,73.7c.42,2.18,1.86,3.56,4.4,3.56,2.39,0,4.04-1.38,4.04-3.48,0-1.91-1.17-2.93-3.21-3.54l-1.63-.48c-2.22-.65-3.62-1.66-3.62-3.71,0-2.16,1.76-3.56,4.17-3.56s3.92,1.57,4.17,3.69h-.5c-.25-1.93-1.51-3.21-3.67-3.21s-3.65,1.11-3.65,3.08,1.22,2.64,3.21,3.25l1.68.5c2.2.65,3.58,1.84,3.58,3.98s-1.8,3.96-4.57,3.96-4.53-1.63-4.9-4.04h.5Z"/>
      </g>
      <g>
        <path class="cls-6" d="M87.87,32.3c-.51.06-1.03.13-1.54.14-3.01.05-5.92.63-8.68,1.85-.26.12-.55.18-.79.43.3.11.55.08.8.07,2.93-.14,5.78-.74,8.62-1.42,1.17-.29,2.84-.31,3.69-1.31.13-.16.39-.5.33-.7-.27.1-.54.31-.79.44-.54.27-1.06.44-1.66.5h.01Z"/>
        <g class="cls-8">
          <rect class="cls-7" x="76.86" y="31.35" width="13.51" height="3.47"/>
        </g>
      </g>
      <g>
        <path class="cls-6" d="M83.58,27.88c4.14-.6,7.96-1.81,11.4-4.11-1.21.31-2.39.73-3.62.91-2.55.37-4.82,1.46-7.06,2.61-.24.12-.51.22-.71.59h-.01Z"/>
        <g class="cls-4">
          <rect class="cls-7" x="83.58" y="23.77" width="11.4" height="4.11"/>
        </g>
      </g>
      <g>
        <path class="cls-6" d="M67.15,37.88c-5.56,6.02-9.76,12.98-14.29,19.76-.93,1.4-1.86,2.78-2.81,4.17-.55.82-1.05,1.68-1.6,2.5-.5.74-1.06,1.5-1.39,2.35-.11.27.51-.32.68-.57,1.25-1.85,2.58-3.71,3.84-5.56.91-1.34,1.84-2.75,2.76-4.1.79-1.07,1.41-2.16,2.15-3.27,1.03-1.55,2.29-2.77,4.06-3.44,1.16-.44,2.32-.81,3.51-1.12,2.83-.74,5.75-1.03,8.64-1.44.38-.06.78-.06,1.08-.42-4.74-1.01-9.33-.81-13.66,1.81.02-.32.2-.44.31-.6.79-1.19,1.96-1.95,3.13-2.71,2.57-1.66,5.31-2.89,8.37-3.32,1.55-.21,3.12-.39,4.67-.6.3-.04.63-.04.97-.42-4.6-.91-8.9-.69-12.91,1.81-.05.04-.1.07-.13.11.05-.04.1-.07.13-.11-.05-.05-.1-.1-.13-.16.79-.99,1.72-1.8,2.83-2.41,1.85-1.01,3.86-1.56,5.88-2.07,2.14-.54,4.31-.88,6.48-1.34.44-.1.9-.17,1.28-.51-.23-.18-.45-.2-.68-.23-.87-.11-1.74-.11-2.62-.08-2.88.08-5.71.41-8.32,1.77-.13.07-.19.13-.33.06.04-.45.78-1.07,1.1-1.42.44-.48.92-.92,1.46-1.29,2.06-1.42,4.7-1.55,7.1-2.27,3.04-.9,5.71-2.76,8.76-3.63-3.22.02-6.41.74-9.32,2.08-1.02.47-2.04,1.03-3.17,1.07,2.45-2.21,5.46-3.67,8.34-5.29,2.88-1.62,5.72-3.52,7.52-6.29.1-.16.2-.32.18-.5-.04-.31-.44-.47-.75-.37-.31.1-.51.36-.72.6-2.73,3.19-6.62,5.09-10.18,7.31-4.51,2.81-8.56,6.21-12.16,10.1l-.06.04Z"/>
        <g class="cls-1">
          <polygon class="cls-7" points="91.04 23.34 88.05 19.75 91.04 19.75 91.04 23.34"/>
          <polygon class="cls-7" points="91.04 24.33 87.22 19.75 88.05 19.75 91.04 23.34 91.04 24.33"/>
          <polygon class="cls-7" points="91.04 25.32 86.4 19.75 87.22 19.75 91.04 24.33 91.04 25.32"/>
          <polygon class="cls-7" points="91.04 26.31 85.57 19.75 86.4 19.75 91.04 25.32 91.04 26.31"/>
          <polygon class="cls-7" points="91.04 27.3 84.75 19.75 85.57 19.75 91.04 26.31 91.04 27.3"/>
          <polygon class="cls-7" points="91.04 28.29 84.24 20.13 84.7 19.75 84.75 19.75 91.04 27.3 91.04 28.29"/>
          <polygon class="cls-7" points="91.04 29.28 83.75 20.54 84.24 20.13 91.04 28.29 91.04 29.28"/>
          <polygon class="cls-7" points="91.04 30.27 83.26 20.94 83.75 20.54 91.04 29.28 91.04 30.27"/>
          <polygon class="cls-7" points="91.04 31.26 82.78 21.35 83.26 20.94 91.04 30.27 91.04 31.26"/>
          <polygon class="cls-7" points="91.04 32.25 82.29 21.75 82.78 21.35 91.04 31.26 91.04 32.25"/>
          <polygon class="cls-7" points="91.04 33.24 81.8 22.16 82.29 21.75 91.04 32.25 91.04 33.24"/>
          <polygon class="cls-7" points="91.04 34.23 81.32 22.57 81.8 22.16 91.04 33.24 91.04 34.23"/>
          <polygon class="cls-7" points="91.04 35.06 90.96 35.13 80.83 22.97 81.32 22.57 91.04 34.23 91.04 35.06"/>
          <rect class="cls-7" x="85.33" y="21.34" width=".63" height="15.82" transform="translate(1.13 61.61) rotate(-39.81)"/>
          <rect class="cls-7" x="84.85" y="21.75" width=".63" height="15.82" transform="translate(.75 61.39) rotate(-39.81)"/>
          <rect class="cls-7" x="84.36" y="22.15" width=".63" height="15.82" transform="translate(.38 61.18) rotate(-39.81)"/>
          <rect class="cls-7" x="83.87" y="22.56" width=".63" height="15.82" transform="translate(0 60.96) rotate(-39.81)"/>
          <rect class="cls-7" x="83.39" y="22.96" width=".63" height="15.82" transform="translate(-.37 60.74) rotate(-39.81)"/>
          <rect class="cls-7" x="82.9" y="23.37" width=".63" height="15.82" transform="translate(-.74 60.52) rotate(-39.81)"/>
          <rect class="cls-7" x="82.41" y="23.78" width=".63" height="15.82" transform="translate(-1.11 60.31) rotate(-39.81)"/>
          <rect class="cls-7" x="81.92" y="24.18" width=".63" height="15.82" transform="translate(-1.48 60.09) rotate(-39.81)"/>
          <rect class="cls-7" x="81.44" y="24.59" width=".63" height="15.82" transform="translate(-1.86 59.87) rotate(-39.81)"/>
          <rect class="cls-7" x="80.95" y="24.99" width=".63" height="15.82" transform="translate(-2.23 59.65) rotate(-39.81)"/>
          <rect class="cls-7" x="80.46" y="25.4" width=".63" height="15.82" transform="translate(-2.6 59.44) rotate(-39.81)"/>
          <rect class="cls-7" x="79.98" y="25.8" width=".63" height="15.82" transform="translate(-2.97 59.22) rotate(-39.81)"/>
          <rect class="cls-7" x="79.49" y="26.21" width=".63" height="15.82" transform="translate(-3.35 59) rotate(-39.81)"/>
          <rect class="cls-7" x="79" y="26.62" width=".63" height="15.82" transform="translate(-3.72 58.78) rotate(-39.81)"/>
          <rect class="cls-7" x="78.52" y="27.02" width=".63" height="15.82" transform="translate(-4.09 58.56) rotate(-39.81)"/>
          <rect class="cls-7" x="78.03" y="27.43" width=".63" height="15.82" transform="translate(-4.46 58.35) rotate(-39.81)"/>
          <rect class="cls-7" x="77.54" y="27.83" width=".63" height="15.82" transform="translate(-4.84 58.13) rotate(-39.81)"/>
          <rect class="cls-7" x="77.05" y="28.24" width=".63" height="15.82" transform="translate(-5.21 57.91) rotate(-39.81)"/>
          <rect class="cls-7" x="76.57" y="28.65" width=".63" height="15.82" transform="translate(-5.58 57.69) rotate(-39.81)"/>
          <rect class="cls-7" x="76.08" y="29.05" width=".63" height="15.82" transform="translate(-5.96 57.48) rotate(-39.81)"/>
          <rect class="cls-7" x="75.59" y="29.46" width=".63" height="15.82" transform="translate(-6.33 57.26) rotate(-39.81)"/>
          <rect class="cls-7" x="75.11" y="29.86" width=".63" height="15.82" transform="translate(-6.7 57.04) rotate(-39.81)"/>
          <rect class="cls-7" x="74.62" y="30.27" width=".63" height="15.82" transform="translate(-7.07 56.82) rotate(-39.81)"/>
          <rect class="cls-7" x="74.13" y="30.67" width=".63" height="15.82" transform="translate(-7.45 56.6) rotate(-39.81)"/>
          <rect class="cls-7" x="73.65" y="31.08" width=".63" height="15.82" transform="translate(-7.82 56.39) rotate(-39.81)"/>
          <rect class="cls-7" x="73.16" y="31.49" width=".63" height="15.82" transform="translate(-8.19 56.17) rotate(-39.81)"/>
          <rect class="cls-7" x="72.67" y="31.89" width=".63" height="15.82" transform="translate(-8.56 55.95) rotate(-39.81)"/>
          <rect class="cls-7" x="72.18" y="32.3" width=".63" height="15.82" transform="translate(-8.94 55.73) rotate(-39.81)"/>
          <rect class="cls-7" x="71.7" y="32.7" width=".63" height="15.82" transform="translate(-9.31 55.52) rotate(-39.81)"/>
          <rect class="cls-7" x="71.21" y="33.11" width=".63" height="15.82" transform="translate(-9.68 55.3) rotate(-39.81)"/>
          <rect class="cls-7" x="70.72" y="33.52" width=".63" height="15.82" transform="translate(-10.06 55.08) rotate(-39.81)"/>
          <rect class="cls-7" x="70.24" y="33.92" width=".63" height="15.82" transform="translate(-10.43 54.86) rotate(-39.81)"/>
          <rect class="cls-7" x="69.75" y="34.33" width=".63" height="15.82" transform="translate(-10.8 54.65) rotate(-39.81)"/>
          <rect class="cls-7" x="69.26" y="34.73" width=".63" height="15.82" transform="translate(-11.17 54.43) rotate(-39.81)"/>
          <rect class="cls-7" x="68.78" y="35.14" width=".63" height="15.82" transform="translate(-11.55 54.21) rotate(-39.81)"/>
          <rect class="cls-7" x="68.29" y="35.54" width=".63" height="15.82" transform="translate(-11.92 53.99) rotate(-39.81)"/>
          <rect class="cls-7" x="67.8" y="35.95" width=".63" height="15.82" transform="translate(-12.29 53.77) rotate(-39.81)"/>
          <rect class="cls-7" x="67.31" y="36.36" width=".63" height="15.82" transform="translate(-12.66 53.56) rotate(-39.81)"/>
          <rect class="cls-7" x="66.83" y="36.76" width=".63" height="15.82" transform="translate(-13.04 53.34) rotate(-39.81)"/>
          <rect class="cls-7" x="66.34" y="37.17" width=".63" height="15.82" transform="translate(-13.41 53.12) rotate(-39.81)"/>
          <rect class="cls-7" x="65.85" y="37.57" width=".63" height="15.82" transform="translate(-13.78 52.9) rotate(-39.81)"/>
          <rect class="cls-7" x="65.37" y="37.98" width=".63" height="15.82" transform="translate(-14.15 52.69) rotate(-39.81)"/>
          <rect class="cls-7" x="64.88" y="38.39" width=".63" height="15.82" transform="translate(-14.53 52.47) rotate(-39.81)"/>
          <rect class="cls-7" x="64.39" y="38.79" width=".63" height="15.82" transform="translate(-14.9 52.25) rotate(-39.81)"/>
          <rect class="cls-7" x="63.91" y="39.2" width=".63" height="15.82" transform="translate(-15.27 52.03) rotate(-39.81)"/>
          <rect class="cls-7" x="63.42" y="39.6" width=".63" height="15.82" transform="translate(-15.65 51.82) rotate(-39.81)"/>
          <rect class="cls-7" x="62.93" y="40.01" width=".63" height="15.82" transform="translate(-16.02 51.6) rotate(-39.81)"/>
          <rect class="cls-7" x="62.44" y="40.41" width=".63" height="15.82" transform="translate(-16.39 51.38) rotate(-39.81)"/>
          <rect class="cls-7" x="61.96" y="40.82" width=".63" height="15.82" transform="translate(-16.76 51.16) rotate(-39.81)"/>
          <polygon class="cls-7" points="67.1 55.01 52.79 66.93 46.95 66.93 46.95 51.21 56.97 42.86 67.1 55.01"/>
        </g>
      </g>
      <g>
        <path class="cls-6" d="M15.97,38.06c2.28,2.7,4.49,5.38,5.98,8.6,1.55,3.38,2.44,6.96,4.28,10.23.17.3.35.6.53.9,1.3,2.15,2.67,4.17,3.61,6.51,1.09,2.7,2.75,7.75,3.11,8.15.1.11.08-.64.08-.69-.04-.68-.11-1.36-.18-2.03-.1-.93-.14-1.86-.26-2.78-.12-.92-.37-1.89-.71-2.78-.42-1.15-.94-2.24-1.51-3.33-.56-1.09-1.02-2.22-1.48-3.34-.32-.78-.61-1.55-.86-2.35-.66-2.1-1.03-4.3-1.84-6.35-.81-2.05-2.21-4.02-3.81-5.61-3.04-3-5.77-6.16-8.98-8.98-2.46-2.17-4.78-4.21-7.34-6.28-.49-.39-2.34-1.59-2-1.05.78,1.19,2.15,2.33,3.31,3.34,2.83,2.48,5.61,4.98,8.06,7.86h.01Z"/>
        <g class="cls-9">
          <polygon class="cls-7" points="4.36 26.33 4.24 26.4 4.24 26.33 4.36 26.33"/>
          <polygon class="cls-7" points="6.01 26.33 4.24 27.43 4.24 26.4 4.36 26.33 6.01 26.33"/>
          <polygon class="cls-7" points="7.65 26.33 4.24 28.45 4.24 27.43 6.01 26.33 7.65 26.33"/>
          <polygon class="cls-7" points="9.29 26.33 4.24 29.48 4.24 28.45 7.65 26.33 9.29 26.33"/>
          <polygon class="cls-7" points="10.94 26.33 4.42 30.39 4.24 30.1 4.24 29.48 9.29 26.33 10.94 26.33"/>
          <polygon class="cls-7" points="12.58 26.33 4.88 31.13 4.42 30.39 10.94 26.33 12.58 26.33"/>
          <polygon class="cls-7" points="14.22 26.33 5.34 31.87 4.88 31.13 12.58 26.33 14.22 26.33"/>
          <polygon class="cls-7" points="15.52 26.33 15.62 26.48 5.8 32.61 5.34 31.87 14.22 26.33 15.52 26.33"/>
          <rect class="cls-7" x="5.16" y="29.48" width="11.57" height=".87" transform="translate(-14.18 10.33) rotate(-31.97)"/>
          <rect class="cls-7" x="5.62" y="30.22" width="11.57" height=".87" transform="translate(-14.5 10.68) rotate(-31.97)"/>
          <rect class="cls-7" x="6.08" y="30.95" width="11.57" height=".87" transform="translate(-14.82 11.04) rotate(-31.97)"/>
          <rect class="cls-7" x="6.54" y="31.69" width="11.57" height=".87" transform="translate(-15.14 11.4) rotate(-31.97)"/>
          <rect class="cls-7" x="7" y="32.43" width="11.57" height=".87" transform="translate(-15.46 11.75) rotate(-31.97)"/>
          <rect class="cls-7" x="7.46" y="33.17" width="11.57" height=".87" transform="translate(-15.78 12.11) rotate(-31.97)"/>
          <rect class="cls-7" x="7.92" y="33.91" width="11.57" height=".87" transform="translate(-16.1 12.46) rotate(-31.97)"/>
          <rect class="cls-7" x="8.38" y="34.64" width="11.57" height=".87" transform="translate(-16.42 12.82) rotate(-31.97)"/>
          <rect class="cls-7" x="8.84" y="35.38" width="11.57" height=".87" transform="translate(-16.74 13.17) rotate(-31.97)"/>
          <rect class="cls-7" x="9.3" y="36.12" width="11.57" height=".87" transform="translate(-17.06 13.53) rotate(-31.97)"/>
          <rect class="cls-7" x="9.76" y="36.86" width="11.57" height=".87" transform="translate(-17.39 13.89) rotate(-31.97)"/>
          <rect class="cls-7" x="10.22" y="37.6" width="11.57" height=".87" transform="translate(-17.71 14.24) rotate(-31.97)"/>
          <rect class="cls-7" x="10.68" y="38.33" width="11.57" height=".87" transform="translate(-18.03 14.6) rotate(-31.97)"/>
          <rect class="cls-7" x="11.14" y="39.07" width="11.57" height=".87" transform="translate(-18.35 14.95) rotate(-31.97)"/>
          <rect class="cls-7" x="11.61" y="39.81" width="11.57" height=".87" transform="translate(-18.67 15.31) rotate(-31.97)"/>
          <rect class="cls-7" x="12.07" y="40.55" width="11.57" height=".87" transform="translate(-18.99 15.67) rotate(-31.97)"/>
          <rect class="cls-7" x="12.53" y="41.29" width="11.57" height=".87" transform="translate(-19.31 16.02) rotate(-31.97)"/>
          <rect class="cls-7" x="12.99" y="42.02" width="11.57" height=".87" transform="translate(-19.63 16.38) rotate(-31.97)"/>
          <rect class="cls-7" x="13.45" y="42.76" width="11.57" height=".87" transform="translate(-19.95 16.73) rotate(-31.97)"/>
          <rect class="cls-7" x="13.91" y="43.5" width="11.57" height=".87" transform="translate(-20.27 17.09) rotate(-31.97)"/>
          <rect class="cls-7" x="14.37" y="44.24" width="11.57" height=".87" transform="translate(-20.59 17.44) rotate(-31.97)"/>
          <rect class="cls-7" x="14.83" y="44.98" width="11.57" height=".87" transform="translate(-20.92 17.8) rotate(-31.97)"/>
          <rect class="cls-7" x="15.29" y="45.71" width="11.57" height=".87" transform="translate(-21.24 18.16) rotate(-31.97)"/>
          <rect class="cls-7" x="15.75" y="46.45" width="11.57" height=".87" transform="translate(-21.56 18.51) rotate(-31.97)"/>
          <rect class="cls-7" x="16.21" y="47.19" width="11.57" height=".87" transform="translate(-21.88 18.87) rotate(-31.97)"/>
          <rect class="cls-7" x="16.67" y="47.93" width="11.57" height=".87" transform="translate(-22.2 19.22) rotate(-31.97)"/>
          <rect class="cls-7" x="17.13" y="48.67" width="11.57" height=".87" transform="translate(-22.52 19.58) rotate(-31.97)"/>
          <rect class="cls-7" x="17.59" y="49.4" width="11.57" height=".87" transform="translate(-22.84 19.93) rotate(-31.97)"/>
          <rect class="cls-7" x="18.05" y="50.14" width="11.57" height=".87" transform="translate(-23.16 20.29) rotate(-31.97)"/>
          <rect class="cls-7" x="18.51" y="50.88" width="11.57" height=".87" transform="translate(-23.48 20.65) rotate(-31.97)"/>
          <rect class="cls-7" x="18.97" y="51.62" width="11.57" height=".87" transform="translate(-23.8 21) rotate(-31.97)"/>
          <rect class="cls-7" x="19.44" y="52.36" width="11.57" height=".87" transform="translate(-24.12 21.36) rotate(-31.97)"/>
          <rect class="cls-7" x="19.9" y="53.1" width="11.57" height=".87" transform="translate(-24.45 21.71) rotate(-31.97)"/>
          <rect class="cls-7" x="20.36" y="53.83" width="11.57" height=".87" transform="translate(-24.77 22.07) rotate(-31.97)"/>
          <rect class="cls-7" x="20.82" y="54.57" width="11.57" height=".87" transform="translate(-25.09 22.42) rotate(-31.97)"/>
          <rect class="cls-7" x="21.28" y="55.31" width="11.57" height=".87" transform="translate(-25.41 22.78) rotate(-31.97)"/>
          <rect class="cls-7" x="21.74" y="56.05" width="11.57" height=".87" transform="translate(-25.73 23.14) rotate(-31.97)"/>
          <rect class="cls-7" x="22.2" y="56.79" width="11.57" height=".87" transform="translate(-26.05 23.49) rotate(-31.97)"/>
          <polygon class="cls-7" points="33.12 54.53 33.56 55.23 33.56 72.56 30.73 72.56 23.31 60.65 33.12 54.53"/>
        </g>
      </g>
      <g>
        <path class="cls-6" d="M77.09,54.15c-4.31,1.38-8.58,2.93-12.8,4.56-2.62,1.01-5.02,2.33-7.03,4.3-.91.9-1.85,1.77-2.68,2.75.1.11.2.18.33.23-.12-.05-.24-.13-.33-.23-1.33,1.21-2.71,2.32-4.12,3.41-.87.59-1.75,1.17-2.62,1.77-.86.59-1.67,1.21-2.34,2.01-1.1,1.33-2.1,2.71-3.12,4.11-.06.1-.24.29-.11.3.1,0,.31-.2.45-.32,2.87-2.32,5.7-5.07,8.98-6.82s6.19-3.57,8.84-6.1c.6-.57,1.2-1.16,1.82-1.72,2.81-2.54,6.26-3.93,9.69-5.49,3.45-1.58,4.77-1.95,8.38-3.07.24-.07,3.07-1.39,2.89-1.49-.18-.12-2.26.55-2.35.59-1.92.58-1.95.62-3.87,1.23h-.01Z"/>
        <g class="cls-5">
          <polygon class="cls-7" points="83.51 54.54 82.07 52.21 83.51 52.21 83.51 54.54"/>
          <polygon class="cls-7" points="83.51 54.79 83.04 55.08 81.27 52.21 82.07 52.21 83.51 54.54 83.51 54.79"/>
          <polygon class="cls-7" points="83.04 55.08 82.47 55.43 80.47 52.21 81.27 52.21 83.04 55.08"/>
          <polygon class="cls-7" points="82.47 55.43 81.89 55.79 79.67 52.21 80.47 52.21 82.47 55.43"/>
          <polygon class="cls-7" points="81.89 55.79 81.32 56.15 78.88 52.21 79.67 52.21 81.89 55.79"/>
          <polygon class="cls-7" points="81.32 56.15 80.74 56.5 78.08 52.21 78.88 52.21 81.32 56.15"/>
          <polygon class="cls-7" points="80.74 56.5 80.17 56.86 77.28 52.21 78.08 52.21 80.74 56.5"/>
          <polygon class="cls-7" points="80.17 56.86 79.59 57.22 76.49 52.21 77.28 52.21 80.17 56.86"/>
          <polygon class="cls-7" points="79.59 57.22 79.01 57.58 75.69 52.21 76.49 52.21 79.59 57.22"/>
          <polygon class="cls-7" points="79.01 57.58 78.44 57.93 74.89 52.21 75.69 52.21 79.01 57.58"/>
          <polygon class="cls-7" points="78.44 57.93 77.86 58.29 74.1 52.21 74.89 52.21 78.44 57.93"/>
          <polygon class="cls-7" points="77.86 58.29 77.29 58.65 73.3 52.21 74.1 52.21 77.86 58.29"/>
          <polygon class="cls-7" points="77.29 58.65 76.71 59 72.5 52.21 73.3 52.21 77.29 58.65"/>
          <polygon class="cls-7" points="76.71 59 76.14 59.36 71.71 52.21 72.5 52.21 76.71 59"/>
          <polygon class="cls-7" points="76.14 59.36 75.56 59.72 70.91 52.21 71.71 52.21 76.14 59.36"/>
          <polygon class="cls-7" points="75.56 59.72 74.98 60.07 70.11 52.21 70.91 52.21 75.56 59.72"/>
          <polygon class="cls-7" points="74.98 60.07 74.41 60.43 69.43 52.39 69.71 52.21 70.11 52.21 74.98 60.07"/>
          <rect class="cls-7" x="71.29" y="51.86" width=".68" height="9.46" transform="translate(-19.06 46.22) rotate(-31.79)"/>
          <rect class="cls-7" x="70.72" y="52.21" width=".68" height="9.46" transform="translate(-19.34 45.97) rotate(-31.79)"/>
          <rect class="cls-7" x="70.14" y="52.57" width=".68" height="9.46" transform="translate(-19.61 45.72) rotate(-31.79)"/>
          <rect class="cls-7" x="69.56" y="52.93" width=".68" height="9.46" transform="translate(-19.89 45.47) rotate(-31.79)"/>
          <rect class="cls-7" x="68.99" y="53.28" width=".68" height="9.46" transform="translate(-20.16 45.22) rotate(-31.79)"/>
          <rect class="cls-7" x="68.41" y="53.64" width=".68" height="9.46" transform="translate(-20.44 44.97) rotate(-31.79)"/>
          <rect class="cls-7" x="67.84" y="54" width=".68" height="9.46" transform="translate(-20.71 44.72) rotate(-31.79)"/>
          <rect class="cls-7" x="67.26" y="54.35" width=".68" height="9.46" transform="translate(-20.98 44.47) rotate(-31.79)"/>
          <rect class="cls-7" x="66.69" y="54.71" width=".68" height="9.46" transform="translate(-21.26 44.22) rotate(-31.79)"/>
          <rect class="cls-7" x="66.11" y="55.07" width=".68" height="9.46" transform="translate(-21.53 43.97) rotate(-31.79)"/>
          <rect class="cls-7" x="65.53" y="55.42" width=".68" height="9.46" transform="translate(-21.81 43.72) rotate(-31.79)"/>
          <rect class="cls-7" x="64.96" y="55.78" width=".68" height="9.46" transform="translate(-22.08 43.47) rotate(-31.79)"/>
          <rect class="cls-7" x="64.38" y="56.14" width=".68" height="9.46" transform="translate(-22.36 43.22) rotate(-31.79)"/>
          <rect class="cls-7" x="63.81" y="56.49" width=".68" height="9.46" transform="translate(-22.63 42.97) rotate(-31.79)"/>
          <rect class="cls-7" x="63.23" y="56.85" width=".68" height="9.46" transform="translate(-22.9 42.72) rotate(-31.79)"/>
          <rect class="cls-7" x="62.66" y="57.21" width=".68" height="9.46" transform="translate(-23.18 42.47) rotate(-31.79)"/>
          <rect class="cls-7" x="62.08" y="57.57" width=".68" height="9.46" transform="translate(-23.45 42.22) rotate(-31.79)"/>
          <rect class="cls-7" x="61.5" y="57.92" width=".68" height="9.46" transform="translate(-23.73 41.97) rotate(-31.79)"/>
          <rect class="cls-7" x="60.93" y="58.28" width=".68" height="9.46" transform="translate(-24 41.72) rotate(-31.79)"/>
          <rect class="cls-7" x="60.35" y="58.64" width=".68" height="9.46" transform="translate(-24.28 41.47) rotate(-31.79)"/>
          <rect class="cls-7" x="59.78" y="58.99" width=".68" height="9.46" transform="translate(-24.55 41.22) rotate(-31.79)"/>
          <rect class="cls-7" x="59.2" y="59.35" width=".68" height="9.46" transform="translate(-24.82 40.97) rotate(-31.79)"/>
          <rect class="cls-7" x="58.62" y="59.71" width=".68" height="9.46" transform="translate(-25.1 40.72) rotate(-31.79)"/>
          <rect class="cls-7" x="58.05" y="60.06" width=".68" height="9.46" transform="translate(-25.37 40.47) rotate(-31.79)"/>
          <rect class="cls-7" x="57.47" y="60.42" width=".68" height="9.46" transform="translate(-25.65 40.22) rotate(-31.79)"/>
          <rect class="cls-7" x="56.9" y="60.78" width=".68" height="9.46" transform="translate(-25.92 39.97) rotate(-31.79)"/>
          <rect class="cls-7" x="56.32" y="61.13" width=".68" height="9.46" transform="translate(-26.19 39.72) rotate(-31.79)"/>
          <rect class="cls-7" x="55.75" y="61.49" width=".68" height="9.46" transform="translate(-26.47 39.47) rotate(-31.79)"/>
          <rect class="cls-7" x="55.17" y="61.85" width=".68" height="9.46" transform="translate(-26.74 39.22) rotate(-31.79)"/>
          <rect class="cls-7" x="54.59" y="62.2" width=".68" height="9.46" transform="translate(-27.02 38.97) rotate(-31.79)"/>
          <rect class="cls-7" x="54.02" y="62.56" width=".68" height="9.46" transform="translate(-27.29 38.72) rotate(-31.79)"/>
          <rect class="cls-7" x="53.44" y="62.92" width=".68" height="9.46" transform="translate(-27.57 38.47) rotate(-31.79)"/>
          <rect class="cls-7" x="52.87" y="63.27" width=".68" height="9.46" transform="translate(-27.84 38.22) rotate(-31.79)"/>
          <rect class="cls-7" x="52.29" y="63.63" width=".68" height="9.46" transform="translate(-28.11 37.97) rotate(-31.79)"/>
          <rect class="cls-7" x="51.72" y="63.99" width=".68" height="9.46" transform="translate(-28.39 37.72) rotate(-31.79)"/>
          <rect class="cls-7" x="51.14" y="64.34" width=".68" height="9.46" transform="translate(-28.66 37.48) rotate(-31.79)"/>
          <rect class="cls-7" x="50.56" y="64.7" width=".68" height="9.46" transform="translate(-28.94 37.23) rotate(-31.79)"/>
          <rect class="cls-7" x="49.99" y="65.06" width=".68" height="9.46" transform="translate(-29.21 36.98) rotate(-31.79)"/>
          <rect class="cls-7" x="49.41" y="65.41" width=".68" height="9.46" transform="translate(-29.49 36.73) rotate(-31.79)"/>
          <rect class="cls-7" x="48.84" y="65.77" width=".68" height="9.46" transform="translate(-29.76 36.48) rotate(-31.79)"/>
          <rect class="cls-7" x="48.26" y="66.13" width=".68" height="9.46" transform="translate(-30.03 36.23) rotate(-31.79)"/>
          <rect class="cls-7" x="47.69" y="66.48" width=".68" height="9.46" transform="translate(-30.31 35.98) rotate(-31.79)"/>
          <rect class="cls-7" x="47.11" y="66.84" width=".68" height="9.46" transform="translate(-30.58 35.73) rotate(-31.79)"/>
          <rect class="cls-7" x="46.53" y="67.2" width=".68" height="9.46" transform="translate(-30.86 35.48) rotate(-31.79)"/>
          <rect class="cls-7" x="45.96" y="67.55" width=".68" height="9.46" transform="translate(-31.13 35.23) rotate(-31.79)"/>
          <polygon class="cls-7" points="48.5 76.48 47.11 77.34 42.14 77.34 42.14 69.29 43.52 68.44 48.5 76.48"/>
        </g>
      </g>
      <g>
        <path class="cls-6" d="M46.86,56.71c.06-.1.13-.2.19-.3,2.16-3.4,4.25-6.84,6.3-10.32,1.96-3.34,3.86-6.71,5.69-10.12,1.83-3.41,3.29-6.82,4.85-10.24.44-.98,1.18-2.15,1.41-3.21-.13.17-.25.35-.37.53-2.44,4.06-4.9,8.08-7.45,12.07-1.04,1.64-2.09,3.27-3.13,4.92-1.08,1.58-2.14,3.16-3.23,4.74-1.25,1.83-2.52,3.64-3.79,5.47-.99,1.24-1.83,2.59-2.73,3.89-1.09,1.6-1.79,3.36-2.14,5.27-.23,1.3-.42,2.6-.73,3.88-.78,3.22-2.04,6.28-3.19,9.37-.07.2-.41,1.16-.16.82.79-1.05,2.13-4.58,3.06-6.83.73-1.77,1.57-3.51,2.37-5.24.76-1.64,2.01-3.18,3.01-4.7h.02Z"/>
        <g class="cls-11">
          <polygon class="cls-7" points="65.31 23 64.46 22.52 65.31 22.52 65.31 23"/>
          <polygon class="cls-7" points="65.31 23.58 63.44 22.52 64.46 22.52 65.31 23 65.31 23.58"/>
          <polygon class="cls-7" points="65.31 24.16 62.41 22.52 63.44 22.52 65.31 23.58 65.31 24.16"/>
          <polygon class="cls-7" points="65.31 24.74 61.39 22.52 62.41 22.52 65.31 24.16 65.31 24.74"/>
          <polygon class="cls-7" points="65.31 25.32 60.36 22.52 61.39 22.52 65.31 24.74 65.31 25.32"/>
          <polygon class="cls-7" points="65.31 25.9 59.87 22.82 60.05 22.52 60.36 22.52 65.31 25.32 65.31 25.9"/>
          <polygon class="cls-7" points="65.31 26.48 59.63 23.26 59.87 22.82 65.31 25.9 65.31 26.48"/>
          <polygon class="cls-7" points="65.31 27.06 59.38 23.7 59.63 23.26 65.31 26.48 65.31 27.06"/>
          <polygon class="cls-7" points="65.31 27.64 59.13 24.14 59.38 23.7 65.31 27.06 65.31 27.64"/>
          <polygon class="cls-7" points="65.31 28.22 58.88 24.58 59.13 24.14 65.31 27.64 65.31 28.22"/>
          <polygon class="cls-7" points="65.31 28.81 58.63 25.02 58.88 24.58 65.31 28.22 65.31 28.81"/>
          <polygon class="cls-7" points="65.31 29.39 58.38 25.46 58.63 25.02 65.31 28.81 65.31 29.39"/>
          <polygon class="cls-7" points="65.31 29.97 58.13 25.9 58.38 25.46 65.31 29.39 65.31 29.97"/>
          <polygon class="cls-7" points="65.31 30.38 65.24 30.51 57.88 26.34 58.13 25.9 65.31 29.97 65.31 30.38"/>
          <rect class="cls-7" x="61.18" y="24.42" width=".51" height="8.45" transform="translate(6.23 67.98) rotate(-60.47)"/>
          <rect class="cls-7" x="60.93" y="24.86" width=".51" height="8.45" transform="translate(5.72 67.98) rotate(-60.47)"/>
          <rect class="cls-7" x="60.68" y="25.3" width=".51" height="8.45" transform="translate(5.21 67.99) rotate(-60.47)"/>
          <rect class="cls-7" x="60.43" y="25.74" width=".51" height="8.45" transform="translate(4.7 68) rotate(-60.47)"/>
          <rect class="cls-7" x="60.18" y="26.18" width=".51" height="8.45" transform="translate(4.19 68) rotate(-60.47)"/>
          <rect class="cls-7" x="59.93" y="26.62" width=".51" height="8.45" transform="translate(3.68 68.01) rotate(-60.47)"/>
          <rect class="cls-7" x="59.69" y="27.06" width=".51" height="8.45" transform="translate(3.17 68.01) rotate(-60.47)"/>
          <rect class="cls-7" x="59.44" y="27.5" width=".51" height="8.45" transform="translate(2.66 68.02) rotate(-60.47)"/>
          <rect class="cls-7" x="59.19" y="27.94" width=".51" height="8.45" transform="translate(2.16 68.03) rotate(-60.47)"/>
          <rect class="cls-7" x="58.94" y="28.38" width=".51" height="8.45" transform="translate(1.65 68.03) rotate(-60.47)"/>
          <rect class="cls-7" x="58.69" y="28.82" width=".51" height="8.45" transform="translate(1.14 68.04) rotate(-60.47)"/>
          <rect class="cls-7" x="58.44" y="29.26" width=".51" height="8.45" transform="translate(.63 68.05) rotate(-60.47)"/>
          <rect class="cls-7" x="58.19" y="29.7" width=".51" height="8.45" transform="translate(.12 68.05) rotate(-60.47)"/>
          <rect class="cls-7" x="57.94" y="30.14" width=".51" height="8.45" transform="translate(-.39 68.06) rotate(-60.47)"/>
          <rect class="cls-7" x="57.69" y="30.58" width=".51" height="8.45" transform="translate(-.9 68.06) rotate(-60.47)"/>
          <rect class="cls-7" x="57.44" y="31.02" width=".51" height="8.45" transform="translate(-1.41 68.07) rotate(-60.47)"/>
          <rect class="cls-7" x="57.19" y="31.46" width=".51" height="8.45" transform="translate(-1.92 68.08) rotate(-60.47)"/>
          <rect class="cls-7" x="56.94" y="31.9" width=".51" height="8.45" transform="translate(-2.43 68.08) rotate(-60.47)"/>
          <rect class="cls-7" x="56.7" y="32.34" width=".51" height="8.45" transform="translate(-2.93 68.09) rotate(-60.47)"/>
          <rect class="cls-7" x="56.45" y="32.78" width=".51" height="8.45" transform="translate(-3.44 68.1) rotate(-60.47)"/>
          <rect class="cls-7" x="56.2" y="33.22" width=".51" height="8.45" transform="translate(-3.95 68.1) rotate(-60.47)"/>
          <rect class="cls-7" x="55.95" y="33.66" width=".51" height="8.45" transform="translate(-4.46 68.11) rotate(-60.47)"/>
          <rect class="cls-7" x="55.7" y="34.1" width=".51" height="8.45" transform="translate(-4.97 68.11) rotate(-60.47)"/>
          <rect class="cls-7" x="55.45" y="34.54" width=".51" height="8.45" transform="translate(-5.48 68.12) rotate(-60.47)"/>
          <rect class="cls-7" x="55.2" y="34.97" width=".51" height="8.45" transform="translate(-5.99 68.13) rotate(-60.47)"/>
          <rect class="cls-7" x="54.95" y="35.41" width=".51" height="8.45" transform="translate(-6.5 68.13) rotate(-60.47)"/>
          <rect class="cls-7" x="54.7" y="35.85" width=".51" height="8.45" transform="translate(-7.01 68.14) rotate(-60.47)"/>
          <rect class="cls-7" x="54.45" y="36.29" width=".51" height="8.45" transform="translate(-7.52 68.15) rotate(-60.47)"/>
          <rect class="cls-7" x="54.2" y="36.73" width=".51" height="8.45" transform="translate(-8.02 68.15) rotate(-60.47)"/>
          <rect class="cls-7" x="53.95" y="37.17" width=".51" height="8.45" transform="translate(-8.53 68.16) rotate(-60.47)"/>
          <rect class="cls-7" x="53.71" y="37.61" width=".51" height="8.45" transform="translate(-9.04 68.16) rotate(-60.47)"/>
          <rect class="cls-7" x="53.46" y="38.05" width=".51" height="8.45" transform="translate(-9.55 68.17) rotate(-60.47)"/>
          <rect class="cls-7" x="53.21" y="38.49" width=".51" height="8.45" transform="translate(-10.06 68.18) rotate(-60.47)"/>
          <rect class="cls-7" x="52.96" y="38.93" width=".51" height="8.45" transform="translate(-10.57 68.18) rotate(-60.47)"/>
          <rect class="cls-7" x="52.71" y="39.37" width=".51" height="8.45" transform="translate(-11.08 68.19) rotate(-60.47)"/>
          <rect class="cls-7" x="52.46" y="39.81" width=".51" height="8.45" transform="translate(-11.59 68.2) rotate(-60.47)"/>
          <rect class="cls-7" x="52.21" y="40.25" width=".51" height="8.45" transform="translate(-12.1 68.2) rotate(-60.47)"/>
          <rect class="cls-7" x="51.96" y="40.69" width=".51" height="8.45" transform="translate(-12.61 68.21) rotate(-60.47)"/>
          <rect class="cls-7" x="51.71" y="41.13" width=".51" height="8.45" transform="translate(-13.11 68.21) rotate(-60.47)"/>
          <rect class="cls-7" x="51.46" y="41.57" width=".51" height="8.45" transform="translate(-13.62 68.22) rotate(-60.47)"/>
          <rect class="cls-7" x="51.21" y="42.01" width=".51" height="8.45" transform="translate(-14.13 68.23) rotate(-60.47)"/>
          <rect class="cls-7" x="50.96" y="42.45" width=".51" height="8.45" transform="translate(-14.64 68.23) rotate(-60.47)"/>
          <rect class="cls-7" x="50.72" y="42.89" width=".51" height="8.45" transform="translate(-15.15 68.24) rotate(-60.47)"/>
          <rect class="cls-7" x="50.47" y="43.33" width=".51" height="8.45" transform="translate(-15.66 68.25) rotate(-60.47)"/>
          <rect class="cls-7" x="50.22" y="43.77" width=".51" height="8.45" transform="translate(-16.17 68.25) rotate(-60.47)"/>
          <rect class="cls-7" x="49.97" y="44.21" width=".51" height="8.45" transform="translate(-16.68 68.26) rotate(-60.47)"/>
          <rect class="cls-7" x="49.72" y="44.65" width=".51" height="8.45" transform="translate(-17.19 68.26) rotate(-60.47)"/>
          <rect class="cls-7" x="49.47" y="45.09" width=".51" height="8.45" transform="translate(-17.7 68.27) rotate(-60.47)"/>
          <polygon class="cls-7" points="53.28 51.62 40.7 73.81 38.15 73.81 38.15 61.17 45.92 47.45 53.28 51.62"/>
        </g>
      </g>
      <g>
        <path class="cls-6" d="M11.26,58.92c1.54,1.56,3.11,3.1,4.7,4.6,3.36,3.16,7,6.77,11.55,8.09,2.13.62,3.79,1.93,4.76,4.01.45.99.91,4.05.95,2.88.05-1.42-.2-2.25-.62-3.33-.45-1.18-1.4-1.94-2.2-2.9-2.5-2.94-5.01-5.78-7.83-8.41-2.82-2.63-5.92-5.3-9.02-7.8-1.76-1.41-3.54-2.82-5.37-4.12-2.63-1.91-5.4-3.8-8.04-5.67-.07-.05-.02,0-.13-.01.02.16-.04.1.05.19,3.54,4.23,7.35,8.52,11.22,12.48h-.01Z"/>
        <g class="cls-2">
          <polygon class="cls-7" points="5.86 46.23 6.33 46.65 .44 53.28 -.04 52.85 -.04 46.23 5.86 46.23"/>
          <rect class="cls-7" x="-.84" y="49.87" width="8.87" height=".54" transform="translate(-36.28 19.53) rotate(-48.38)"/>
          <rect class="cls-7" x="-.44" y="50.23" width="8.87" height=".54" transform="translate(-36.41 19.95) rotate(-48.38)"/>
          <rect class="cls-7" x="-.03" y="50.59" width="8.87" height=".54" transform="translate(-36.55 20.38) rotate(-48.38)"/>
          <rect class="cls-7" x=".38" y="50.95" width="8.87" height=".54" transform="translate(-36.68 20.8) rotate(-48.38)"/>
          <rect class="cls-7" x=".78" y="51.31" width="8.87" height=".54" transform="translate(-36.81 21.22) rotate(-48.38)"/>
          <rect class="cls-7" x="1.19" y="51.67" width="8.87" height=".54" transform="translate(-36.95 21.65) rotate(-48.38)"/>
          <rect class="cls-7" x="1.59" y="52.04" width="8.87" height=".54" transform="translate(-37.08 22.07) rotate(-48.38)"/>
          <rect class="cls-7" x="2" y="52.4" width="8.87" height=".54" transform="translate(-37.21 22.5) rotate(-48.38)"/>
          <rect class="cls-7" x="2.41" y="52.76" width="8.87" height=".54" transform="translate(-37.35 22.92) rotate(-48.38)"/>
          <rect class="cls-7" x="2.81" y="53.12" width="8.87" height=".54" transform="translate(-37.48 23.35) rotate(-48.38)"/>
          <rect class="cls-7" x="3.22" y="53.48" width="8.87" height=".54" transform="translate(-37.61 23.77) rotate(-48.38)"/>
          <rect class="cls-7" x="3.62" y="53.84" width="8.87" height=".54" transform="translate(-37.75 24.2) rotate(-48.38)"/>
          <rect class="cls-7" x="4.03" y="54.2" width="8.87" height=".54" transform="translate(-37.88 24.62) rotate(-48.38)"/>
          <rect class="cls-7" x="4.43" y="54.56" width="8.87" height=".54" transform="translate(-38.01 25.04) rotate(-48.38)"/>
          <rect class="cls-7" x="4.84" y="54.92" width="8.87" height=".54" transform="translate(-38.15 25.47) rotate(-48.38)"/>
          <rect class="cls-7" x="5.25" y="55.28" width="8.87" height=".54" transform="translate(-38.28 25.89) rotate(-48.38)"/>
          <rect class="cls-7" x="5.65" y="55.64" width="8.87" height=".54" transform="translate(-38.41 26.32) rotate(-48.38)"/>
          <rect class="cls-7" x="6.06" y="56" width="8.87" height=".54" transform="translate(-38.55 26.74) rotate(-48.38)"/>
          <rect class="cls-7" x="6.46" y="56.36" width="8.87" height=".54" transform="translate(-38.68 27.17) rotate(-48.38)"/>
          <rect class="cls-7" x="6.87" y="56.72" width="8.87" height=".54" transform="translate(-38.81 27.59) rotate(-48.38)"/>
          <rect class="cls-7" x="7.27" y="57.08" width="8.87" height=".54" transform="translate(-38.95 28.02) rotate(-48.38)"/>
          <rect class="cls-7" x="7.68" y="57.44" width="8.87" height=".54" transform="translate(-39.08 28.44) rotate(-48.38)"/>
          <rect class="cls-7" x="8.09" y="57.8" width="8.87" height=".54" transform="translate(-39.21 28.87) rotate(-48.38)"/>
          <rect class="cls-7" x="8.49" y="58.16" width="8.87" height=".54" transform="translate(-39.35 29.29) rotate(-48.38)"/>
          <rect class="cls-7" x="8.9" y="58.52" width="8.87" height=".54" transform="translate(-39.48 29.71) rotate(-48.38)"/>
          <rect class="cls-7" x="9.3" y="58.89" width="8.87" height=".54" transform="translate(-39.61 30.14) rotate(-48.38)"/>
          <rect class="cls-7" x="9.71" y="59.25" width="8.87" height=".54" transform="translate(-39.74 30.56) rotate(-48.38)"/>
          <rect class="cls-7" x="10.12" y="59.61" width="8.87" height=".54" transform="translate(-39.88 30.99) rotate(-48.38)"/>
          <rect class="cls-7" x="10.52" y="59.97" width="8.87" height=".54" transform="translate(-40.01 31.41) rotate(-48.38)"/>
          <rect class="cls-7" x="10.93" y="60.33" width="8.87" height=".54" transform="translate(-40.14 31.84) rotate(-48.38)"/>
          <rect class="cls-7" x="11.33" y="60.69" width="8.87" height=".54" transform="translate(-40.28 32.26) rotate(-48.38)"/>
          <rect class="cls-7" x="11.74" y="61.05" width="8.87" height=".54" transform="translate(-40.41 32.69) rotate(-48.38)"/>
          <rect class="cls-7" x="12.14" y="61.41" width="8.87" height=".54" transform="translate(-40.54 33.11) rotate(-48.38)"/>
          <rect class="cls-7" x="12.55" y="61.77" width="8.87" height=".54" transform="translate(-40.68 33.53) rotate(-48.38)"/>
          <rect class="cls-7" x="12.96" y="62.13" width="8.87" height=".54" transform="translate(-40.81 33.96) rotate(-48.38)"/>
          <rect class="cls-7" x="13.36" y="62.49" width="8.87" height=".54" transform="translate(-40.94 34.38) rotate(-48.38)"/>
          <rect class="cls-7" x="13.77" y="62.85" width="8.87" height=".54" transform="translate(-41.08 34.81) rotate(-48.38)"/>
          <rect class="cls-7" x="14.17" y="63.21" width="8.87" height=".54" transform="translate(-41.21 35.23) rotate(-48.38)"/>
          <rect class="cls-7" x="14.58" y="63.57" width="8.87" height=".54" transform="translate(-41.34 35.66) rotate(-48.38)"/>
          <rect class="cls-7" x="14.99" y="63.93" width="8.87" height=".54" transform="translate(-41.48 36.08) rotate(-48.38)"/>
          <rect class="cls-7" x="15.39" y="64.29" width="8.87" height=".54" transform="translate(-41.61 36.51) rotate(-48.38)"/>
          <rect class="cls-7" x="15.8" y="64.65" width="8.87" height=".54" transform="translate(-41.74 36.93) rotate(-48.38)"/>
          <rect class="cls-7" x="16.2" y="65.01" width="8.87" height=".54" transform="translate(-41.88 37.35) rotate(-48.38)"/>
          <rect class="cls-7" x="16.61" y="65.37" width="8.87" height=".54" transform="translate(-42.01 37.78) rotate(-48.38)"/>
          <rect class="cls-7" x="17.01" y="65.74" width="8.87" height=".54" transform="translate(-42.14 38.2) rotate(-48.38)"/>
          <rect class="cls-7" x="17.42" y="66.1" width="8.87" height=".54" transform="translate(-42.28 38.63) rotate(-48.38)"/>
          <rect class="cls-7" x="17.83" y="66.46" width="8.87" height=".54" transform="translate(-42.41 39.05) rotate(-48.38)"/>
          <rect class="cls-7" x="18.23" y="66.82" width="8.87" height=".54" transform="translate(-42.54 39.48) rotate(-48.38)"/>
          <rect class="cls-7" x="18.64" y="67.18" width="8.87" height=".54" transform="translate(-42.68 39.9) rotate(-48.38)"/>
          <rect class="cls-7" x="19.04" y="67.54" width="8.87" height=".54" transform="translate(-42.81 40.33) rotate(-48.38)"/>
          <rect class="cls-7" x="19.45" y="67.9" width="8.87" height=".54" transform="translate(-42.94 40.75) rotate(-48.38)"/>
          <rect class="cls-7" x="19.86" y="68.26" width="8.87" height=".54" transform="translate(-43.08 41.17) rotate(-48.38)"/>
          <rect class="cls-7" x="20.26" y="68.62" width="8.87" height=".54" transform="translate(-43.21 41.6) rotate(-48.38)"/>
          <rect class="cls-7" x="20.67" y="68.98" width="8.87" height=".54" transform="translate(-43.34 42.02) rotate(-48.38)"/>
          <rect class="cls-7" x="21.07" y="69.34" width="8.87" height=".54" transform="translate(-43.48 42.45) rotate(-48.38)"/>
          <rect class="cls-7" x="21.48" y="69.7" width="8.87" height=".54" transform="translate(-43.61 42.87) rotate(-48.38)"/>
          <rect class="cls-7" x="21.88" y="70.06" width="8.87" height=".54" transform="translate(-43.74 43.3) rotate(-48.38)"/>
          <rect class="cls-7" x="22.29" y="70.42" width="8.87" height=".54" transform="translate(-43.88 43.72) rotate(-48.38)"/>
          <rect class="cls-7" x="22.7" y="70.78" width="8.87" height=".54" transform="translate(-44.01 44.15) rotate(-48.38)"/>
          <rect class="cls-7" x="23.1" y="71.14" width="8.87" height=".54" transform="translate(-44.14 44.57) rotate(-48.38)"/>
          <rect class="cls-7" x="23.51" y="71.5" width="8.87" height=".54" transform="translate(-44.27 44.99) rotate(-48.38)"/>
          <polygon class="cls-7" points="31.09 68.64 33.26 70.57 33.26 79.67 30.15 79.67 25.2 75.27 31.09 68.64"/>
        </g>
      </g>
      <g>
        <path class="cls-6" d="M70.82,69.73c-5.72,1.81-11.38,3.87-17.04,5.87-1.73.61-3.47,1.22-5.22,1.77-2.43.76-4.66,1.91-6.72,3.4-.35.25-.84.44-.93.88-.06.25.81-.1,1.02-.24,3.16-2.35,6.2-4.07,10.26-3.65.71.07,1.41.06,2.12-.02,3.24-.41,6.51-1.76,9.55-2.91,4.64-1.77,9.13-3.93,13.43-6.39.5-.29,1.05-.5,1.54-1-.76.07-1.36.32-1.98.49-2.02.56-4.03,1.17-6.02,1.8Z"/>
        <g class="cls-3">
          <polygon class="cls-7" points="78.82 67.49 78.79 67.43 78.82 67.43 78.82 67.49"/>
          <polygon class="cls-7" points="78.82 68.98 78.07 67.43 78.79 67.43 78.82 67.49 78.82 68.98"/>
          <polygon class="cls-7" points="78.82 70.28 78.75 70.32 77.35 67.43 78.07 67.43 78.82 68.98 78.82 70.28"/>
          <polygon class="cls-7" points="78.75 70.32 78.17 70.6 76.63 67.43 77.35 67.43 78.75 70.32"/>
          <polygon class="cls-7" points="78.17 70.6 77.59 70.88 75.91 67.43 76.63 67.43 78.17 70.6"/>
          <polygon class="cls-7" points="77.59 70.88 77 71.17 75.19 67.43 75.91 67.43 77.59 70.88"/>
          <polygon class="cls-7" points="77 71.17 76.42 71.45 74.47 67.43 75.19 67.43 77 71.17"/>
          <polygon class="cls-7" points="76.42 71.45 75.84 71.73 73.75 67.43 74.47 67.43 76.42 71.45"/>
          <polygon class="cls-7" points="75.84 71.73 75.25 72.02 73.03 67.43 73.75 67.43 75.84 71.73"/>
          <polygon class="cls-7" points="75.25 72.02 74.67 72.3 72.31 67.43 73.03 67.43 75.25 72.02"/>
          <polygon class="cls-7" points="74.67 72.3 74.09 72.58 71.59 67.43 72.31 67.43 74.67 72.3"/>
          <polygon class="cls-7" points="74.09 72.58 73.5 72.86 70.87 67.43 71.59 67.43 74.09 72.58"/>
          <polygon class="cls-7" points="73.5 72.86 72.92 73.15 70.15 67.43 70.87 67.43 73.5 72.86"/>
          <polygon class="cls-7" points="72.92 73.15 72.34 73.43 69.43 67.43 70.15 67.43 72.92 73.15"/>
          <polygon class="cls-7" points="72.34 73.43 71.75 73.71 68.71 67.43 69.43 67.43 72.34 73.43"/>
          <polygon class="cls-7" points="71.75 73.71 71.17 74 67.98 67.43 68.71 67.43 71.75 73.71"/>
          <polygon class="cls-7" points="71.17 74 70.59 74.28 67.26 67.43 67.98 67.43 71.17 74"/>
          <polygon class="cls-7" points="70.59 74.28 70 74.56 66.54 67.43 67.26 67.43 70.59 74.28"/>
          <polygon class="cls-7" points="70 74.56 69.42 74.85 65.82 67.43 66.54 67.43 70 74.56"/>
          <polygon class="cls-7" points="69.42 74.85 68.84 75.13 65.1 67.43 65.82 67.43 69.42 74.85"/>
          <polygon class="cls-7" points="68.84 75.13 68.26 75.41 64.38 67.43 65.1 67.43 68.84 75.13"/>
          <polygon class="cls-7" points="68.26 75.41 67.67 75.7 63.66 67.43 64.38 67.43 68.26 75.41"/>
          <polygon class="cls-7" points="67.67 75.7 67.09 75.98 63.06 67.68 63.58 67.43 63.66 67.43 67.67 75.7"/>
          <rect class="cls-7" x="64.46" y="67.36" width=".65" height="9.22" transform="translate(-24.93 35.52) rotate(-25.89)"/>
          <rect class="cls-7" x="63.88" y="67.65" width=".65" height="9.22" transform="translate(-25.11 35.29) rotate(-25.89)"/>
          <rect class="cls-7" x="63.29" y="67.93" width=".65" height="9.22" transform="translate(-25.29 35.06) rotate(-25.89)"/>
          <rect class="cls-7" x="62.71" y="68.21" width=".65" height="9.22" transform="translate(-25.47 34.84) rotate(-25.89)"/>
          <rect class="cls-7" x="62.13" y="68.5" width=".65" height="9.22" transform="translate(-25.66 34.61) rotate(-25.89)"/>
          <rect class="cls-7" x="61.54" y="68.78" width=".65" height="9.22" transform="translate(-25.84 34.39) rotate(-25.89)"/>
          <rect class="cls-7" x="60.96" y="69.06" width=".65" height="9.22" transform="translate(-26.02 34.16) rotate(-25.89)"/>
          <rect class="cls-7" x="60.38" y="69.35" width=".65" height="9.22" transform="translate(-26.2 33.93) rotate(-25.89)"/>
          <rect class="cls-7" x="59.79" y="69.63" width=".65" height="9.22" transform="translate(-26.38 33.71) rotate(-25.89)"/>
          <rect class="cls-7" x="59.21" y="69.91" width=".65" height="9.22" transform="translate(-26.57 33.48) rotate(-25.89)"/>
          <rect class="cls-7" x="58.63" y="70.19" width=".65" height="9.22" transform="translate(-26.75 33.25) rotate(-25.89)"/>
          <rect class="cls-7" x="58.04" y="70.48" width=".65" height="9.22" transform="translate(-26.93 33.03) rotate(-25.89)"/>
          <rect class="cls-7" x="57.46" y="70.76" width=".65" height="9.22" transform="translate(-27.11 32.8) rotate(-25.89)"/>
          <rect class="cls-7" x="56.88" y="71.04" width=".65" height="9.22" transform="translate(-27.3 32.58) rotate(-25.89)"/>
          <rect class="cls-7" x="56.3" y="71.33" width=".65" height="9.22" transform="translate(-27.48 32.35) rotate(-25.89)"/>
          <rect class="cls-7" x="55.71" y="71.61" width=".65" height="9.22" transform="translate(-27.66 32.12) rotate(-25.89)"/>
          <rect class="cls-7" x="55.13" y="71.89" width=".65" height="9.22" transform="translate(-27.84 31.9) rotate(-25.89)"/>
          <rect class="cls-7" x="54.55" y="72.18" width=".65" height="9.22" transform="translate(-28.02 31.67) rotate(-25.89)"/>
          <rect class="cls-7" x="53.96" y="72.46" width=".65" height="9.22" transform="translate(-28.21 31.44) rotate(-25.89)"/>
          <rect class="cls-7" x="53.38" y="72.74" width=".65" height="9.22" transform="translate(-28.39 31.22) rotate(-25.89)"/>
          <polygon class="cls-7" points="55.42 81.64 54.88 81.9 54.83 81.9 50.82 73.63 51.4 73.35 55.42 81.64"/>
          <polygon class="cls-7" points="54.11 81.9 50.23 73.91 50.82 73.63 54.83 81.9 54.11 81.9"/>
          <polygon class="cls-7" points="53.39 81.9 49.65 74.2 50.23 73.91 54.11 81.9 53.39 81.9"/>
          <polygon class="cls-7" points="52.67 81.9 49.07 74.48 49.65 74.2 53.39 81.9 52.67 81.9"/>
          <polygon class="cls-7" points="51.95 81.9 48.48 74.76 49.07 74.48 52.67 81.9 51.95 81.9"/>
          <polygon class="cls-7" points="51.23 81.9 47.9 75.05 48.48 74.76 51.95 81.9 51.23 81.9"/>
          <polygon class="cls-7" points="50.51 81.9 47.32 75.33 47.9 75.05 51.23 81.9 50.51 81.9"/>
          <polygon class="cls-7" points="49.79 81.9 46.73 75.61 47.32 75.33 50.51 81.9 49.79 81.9"/>
          <polygon class="cls-7" points="40.84 78.47 46.73 75.61 49.79 81.9 40.84 81.9 40.84 78.47"/>
        </g>
      </g>
      <g>
        <path class="cls-6" d="M40.17,49.84c.72-3.87,1.31-7.69,1.46-11.62.16-4.02-.04-8.05-.42-12.05-.78-7.95-2.39-15.75-3.98-23.56-.18-.87-.37-1.74-.55-2.61-.04.51,0,1,.05,1.49.5,3.9.73,7.82.8,11.75.14,8.18.12,16.37-.07,24.56-.19,8.27-.55,16.55-.9,24.81-.1,2.33-.32,4.69-.32,7.02-.13,2.42-.33,4.86-.98,7.2-.94,3.39-2.67,6.41-4.71,9.25-1.54,2.14-3.53,3.87-5.47,5.61-.22.19-.43.38-.62.6-.13.16-.17.33-.06.53.11.18.27.25.48.25.25,0,.44-.13.62-.27,1.8-1.43,3.51-2.96,4.92-4.79,1.76-2.28,3.07-4.82,4.53-7.29,1.85-3.12,2.8-6.46,2.95-10.06.11-2.54.22-5.07.31-7.62.05-1.21,0-2.44.14-3.63.12-1.03.47-2.02.66-3.03.42-2.17.79-4.36,1.2-6.54h-.04Z"/>
        <g class="cls-10">
          <polygon class="cls-7" points="41.78 5.5 24.29 5.8 24.29 0 41.78 0 41.78 5.5"/>
          <polygon class="cls-7" points="41.78 6.51 24.29 6.81 24.29 5.8 41.78 5.5 41.78 6.51"/>
          <polygon class="cls-7" points="41.78 7.52 24.29 7.81 24.29 6.81 41.78 6.51 41.78 7.52"/>
          <polygon class="cls-7" points="41.78 8.53 24.29 8.82 24.29 7.81 41.78 7.52 41.78 8.53"/>
          <polygon class="cls-7" points="41.78 9.54 24.29 9.83 24.29 8.82 41.78 8.53 41.78 9.54"/>
          <polygon class="cls-7" points="41.78 10.54 24.29 10.84 24.29 9.83 41.78 9.54 41.78 10.54"/>
          <polygon class="cls-7" points="41.78 11.55 24.29 11.85 24.29 10.84 41.78 10.54 41.78 11.55"/>
          <polygon class="cls-7" points="41.78 12.56 24.29 12.86 24.29 11.85 41.78 11.55 41.78 12.56"/>
          <polygon class="cls-7" points="41.78 13.57 24.29 13.86 24.29 12.86 41.78 12.56 41.78 13.57"/>
          <polygon class="cls-7" points="41.78 14.58 24.29 14.87 24.29 13.86 41.78 13.57 41.78 14.58"/>
          <polygon class="cls-7" points="41.78 15.59 24.29 15.88 24.29 14.87 41.78 14.58 41.78 15.59"/>
          <polygon class="cls-7" points="41.78 16.59 24.29 16.89 24.29 15.88 41.78 15.59 41.78 16.59"/>
          <polygon class="cls-7" points="41.78 17.6 24.29 17.9 24.29 16.89 41.78 16.59 41.78 17.6"/>
          <polygon class="cls-7" points="41.78 18.61 24.29 18.9 24.29 17.9 41.78 17.6 41.78 18.61"/>
          <polygon class="cls-7" points="41.78 19.62 24.29 19.91 24.29 18.9 41.78 18.61 41.78 19.62"/>
          <polygon class="cls-7" points="41.78 20.63 24.29 20.92 24.29 19.91 41.78 19.62 41.78 20.63"/>
          <polygon class="cls-7" points="41.78 21.63 24.29 21.93 24.29 20.92 41.78 20.63 41.78 21.63"/>
          <polygon class="cls-7" points="41.78 22.64 24.29 22.94 24.29 21.93 41.78 21.63 41.78 22.64"/>
          <polygon class="cls-7" points="41.78 23.65 24.29 23.95 24.29 22.94 41.78 22.64 41.78 23.65"/>
          <polygon class="cls-7" points="41.78 24.66 24.29 24.95 24.29 23.95 41.78 23.65 41.78 24.66"/>
          <polygon class="cls-7" points="41.78 25.67 24.29 25.96 24.29 24.95 41.78 24.66 41.78 25.67"/>
          <polygon class="cls-7" points="41.78 26.68 24.29 26.97 24.29 25.96 41.78 25.67 41.78 26.68"/>
          <polygon class="cls-7" points="41.78 27.68 24.29 27.98 24.29 26.97 41.78 26.68 41.78 27.68"/>
          <polygon class="cls-7" points="41.78 28.69 24.29 28.99 24.29 27.98 41.78 27.68 41.78 28.69"/>
          <polygon class="cls-7" points="41.78 29.7 24.29 30 24.29 28.99 41.78 28.69 41.78 29.7"/>
          <polygon class="cls-7" points="41.78 30.71 24.29 31 24.29 30 41.78 29.7 41.78 30.71"/>
          <polygon class="cls-7" points="41.78 31.72 24.29 32.01 24.29 31 41.78 30.71 41.78 31.72"/>
          <polygon class="cls-7" points="41.78 32.73 24.29 33.02 24.29 32.01 41.78 31.72 41.78 32.73"/>
          <polygon class="cls-7" points="41.78 33.73 24.29 34.03 24.29 33.02 41.78 32.73 41.78 33.73"/>
          <polygon class="cls-7" points="41.78 34.74 24.29 35.04 24.29 34.03 41.78 33.73 41.78 34.74"/>
          <polygon class="cls-7" points="41.78 35.75 24.29 36.05 24.29 35.04 41.78 34.74 41.78 35.75"/>
          <polygon class="cls-7" points="41.78 36.76 24.29 37.05 24.29 36.05 41.78 35.75 41.78 36.76"/>
          <polygon class="cls-7" points="41.78 37.77 24.29 38.06 24.29 37.05 41.78 36.76 41.78 37.77"/>
          <polygon class="cls-7" points="41.78 38.78 24.29 39.07 24.29 38.06 41.78 37.77 41.78 38.78"/>
          <polygon class="cls-7" points="41.78 39.78 24.29 40.08 24.29 39.07 41.78 38.78 41.78 39.78"/>
          <polygon class="cls-7" points="41.78 40.79 24.29 41.09 24.29 40.08 41.78 39.78 41.78 40.79"/>
          <polygon class="cls-7" points="41.78 41.8 24.29 42.1 24.29 41.09 41.78 40.79 41.78 41.8"/>
          <polygon class="cls-7" points="41.78 42.81 24.29 43.1 24.29 42.1 41.78 41.8 41.78 42.81"/>
          <polygon class="cls-7" points="41.78 43.82 24.29 44.11 24.29 43.1 41.78 42.81 41.78 43.82"/>
          <polygon class="cls-7" points="41.78 44.83 24.29 45.12 24.29 44.11 41.78 43.82 41.78 44.83"/>
          <polygon class="cls-7" points="41.78 45.83 24.29 46.13 24.29 45.12 41.78 44.83 41.78 45.83"/>
          <polygon class="cls-7" points="41.78 46.84 24.29 47.14 24.29 46.13 41.78 45.83 41.78 46.84"/>
          <polygon class="cls-7" points="41.78 47.85 24.29 48.15 24.29 47.14 41.78 46.84 41.78 47.85"/>
          <polygon class="cls-7" points="41.78 48.86 24.29 49.15 24.29 48.15 41.78 47.85 41.78 48.86"/>
          <polygon class="cls-7" points="41.78 49.87 24.29 50.16 24.29 49.15 41.78 48.86 41.78 49.87"/>
          <polygon class="cls-7" points="41.78 50.88 24.29 51.17 24.29 50.16 41.78 49.87 41.78 50.88"/>
          <polygon class="cls-7" points="41.78 51.88 24.29 52.18 24.29 51.17 41.78 50.88 41.78 51.88"/>
          <polygon class="cls-7" points="41.78 52.89 24.29 53.19 24.29 52.18 41.78 51.88 41.78 52.89"/>
          <polygon class="cls-7" points="41.78 53.9 24.29 54.19 24.29 53.19 41.78 52.89 41.78 53.9"/>
          <polygon class="cls-7" points="41.78 54.91 24.29 55.2 24.29 54.19 41.78 53.9 41.78 54.91"/>
          <polygon class="cls-7" points="41.78 55.92 24.29 56.21 24.29 55.2 41.78 54.91 41.78 55.92"/>
          <polygon class="cls-7" points="41.78 56.92 24.29 57.22 24.29 56.21 41.78 55.92 41.78 56.92"/>
          <polygon class="cls-7" points="41.78 57.93 24.29 58.23 24.29 57.22 41.78 56.92 41.78 57.93"/>
          <polygon class="cls-7" points="41.78 58.94 24.29 59.24 24.29 58.23 41.78 57.93 41.78 58.94"/>
          <polygon class="cls-7" points="41.78 59.95 24.29 60.24 24.29 59.24 41.78 58.94 41.78 59.95"/>
          <polygon class="cls-7" points="41.78 60.96 24.29 61.25 24.29 60.24 41.78 59.95 41.78 60.96"/>
          <polygon class="cls-7" points="41.78 61.97 24.29 62.26 24.29 61.25 41.78 60.96 41.78 61.97"/>
          <polygon class="cls-7" points="41.78 62.97 24.29 63.27 24.29 62.26 41.78 61.97 41.78 62.97"/>
          <polygon class="cls-7" points="41.78 63.98 24.29 64.28 24.29 63.27 41.78 62.97 41.78 63.98"/>
          <polygon class="cls-7" points="41.78 64.99 24.29 65.29 24.29 64.28 41.78 63.98 41.78 64.99"/>
          <polygon class="cls-7" points="41.78 66 24.29 66.29 24.29 65.29 41.78 64.99 41.78 66"/>
          <polygon class="cls-7" points="41.78 67.01 24.29 67.3 24.29 66.29 41.78 66 41.78 67.01"/>
          <polygon class="cls-7" points="24.29 67.3 41.78 67.01 41.78 93.07 24.29 93.07 24.29 67.3"/>
        </g>
      </g>
    </g>
  </g>
</svg>