<?xml version="1.0" encoding="UTF-8"?>
<svg id="Layer_2" data-name="Layer 2" xmlns="http://www.w3.org/2000/svg" xmlns:xlink="http://www.w3.org/1999/xlink" viewBox="0 0 280.32 185.06">
  <defs>
    <style>
      .cls-1 {
        opacity: .72;
      }

      .cls-2 {
        fill: url(#linear-gradient);
      }

      .cls-2, .cls-3, .cls-4, .cls-5, .cls-6, .cls-7, .cls-8, .cls-9, .cls-10 {
        stroke-width: 0px;
      }

      .cls-3 {
        fill: url(#linear-gradient-6);
      }

      .cls-4 {
        fill: url(#linear-gradient-5);
      }

      .cls-5 {
        fill: url(#linear-gradient-2);
      }

      .cls-6 {
        fill: url(#linear-gradient-7);
      }

      .cls-7 {
        fill: url(#linear-gradient-3);
      }

      .cls-8 {
        fill: url(#linear-gradient-9);
      }

      .cls-9 {
        fill: url(#linear-gradient-8);
      }

      .cls-10 {
        fill: url(#linear-gradient-4);
      }
    </style>
    <linearGradient id="linear-gradient" x1="0" y1="92.53" x2="280.32" y2="92.53" gradientUnits="userSpaceOnUse">
      <stop offset="0" stop-color="#633212"/>
      <stop offset="1" stop-color="#693c17"/>
    </linearGradient>
    <linearGradient id="linear-gradient-2" x1="2.88" y1="92.9" x2="11.82" y2="92.9" xlink:href="#linear-gradient"/>
    <linearGradient id="linear-gradient-3" x1="89.47" y1="132.65" x2="95.5" y2="132.65" xlink:href="#linear-gradient"/>
    <linearGradient id="linear-gradient-4" x1="101.07" y1="116.88" x2="108.63" y2="116.88" xlink:href="#linear-gradient"/>
    <linearGradient id="linear-gradient-5" x1="148.69" y1="161.21" x2="151.97" y2="161.21" xlink:href="#linear-gradient"/>
    <linearGradient id="linear-gradient-6" x1="123.5" y1="146.32" x2="126.8" y2="146.32" xlink:href="#linear-gradient"/>
    <linearGradient id="linear-gradient-7" x1="100.77" y1="126.69" x2="101.28" y2="126.69" xlink:href="#linear-gradient"/>
    <linearGradient id="linear-gradient-8" x1="17.72" y1="127.23" x2="21.39" y2="127.23" xlink:href="#linear-gradient"/>
    <linearGradient id="linear-gradient-9" x1="241.73" y1="173.8" x2="242.13" y2="173.8" xlink:href="#linear-gradient"/>
  </defs>
  <g id="Layer_1-2" data-name="Layer 1">
    <g class="cls-1">
      <path class="cls-2" d="M243.82,177.97c.75.42.96-.11,1.2-.66.15-.35.4-.66.7-1.14.2.38.26.5.32.61.25.49.5.98.75,1.47.47-.36,1.06-.63,1.37-1.1.31-.46.36-1.1.5-1.67.09-.35.15-.71.37-1.05.09.74.18,1.48.27,2.22.14.03.28.06.42.09.23-.74.46-1.48.76-2.43.16.4.25.65.32.82.32-.17.65-.34,1.17-.61.21.75.4,1.41.63,2.23.56-.64,1.06-1.21,1.52-1.75.21.56.16,1.14-.45,1.63-.05.04.18.63.4.79.5.34,1.08.57,1.78.91-.29.17-.44.2-.49.3-.17.32-.31.65-.42.99-.01.04.33.27.37.23.25-.2.53-.41.66-.68.6-1.2,1.15-2.42,1.72-3.63.2.16.45.35.62.48-.4,1.09-.8,2.21-1.28,3.51,2.03-.54,2.37-1.12,2.51-3.73.23.92.49,1.98.75,3.04.1.01.2.03.3.04.76-2.13,1.51-4.25,2.27-6.38.06.02.12.04.18.06-.45,1.6-.91,3.2-1.36,4.8.1.04.19.08.29.12.37-.65.69-1.33,1.11-1.93.39-.55.9-1.02,1.52-1.44-.45.95-.89,1.89-1.42,3,1.61-.57,1.73-2.1,2.53-3.42-.26,1.24-.47,2.22-.68,3.19.12.04.23.08.35.12.84-1.99,1.68-3.99,2.52-5.98.08.03.17.06.25.09-.75,2.01-1.5,4.02-2.25,6.03l.16.12c.54-.78,1.08-1.56,1.62-2.33.06,0,.12.02.18.02-.11.69-.23,1.38-.35,2.13.59-.64,1.18-1.27,1.99-2.14-.69,1.42-1.24,2.56-1.89,3.91.47-.38.76-.62,1.07-.87.04.66.09.67.7.62.14-.01.39.22.43.38.11.36.12.75.17,1.17.42-.1.84-.2,1.4-.33-.32.28-.53.47-.84.74.26.12.57.27.58.26.43-.81,1.34-.45,1.98-.77.4-.2,1.14.16,1.68.4.8.35,1.56.81,2.33,1.22.09-.07.18-.13.27-.2-.26-2.42-.52-4.85-.77-7.27.04,0,.09-.02.13-.03.25,1.17.61,2.33.72,3.52.15,1.61.42,3.11,1.68,4.28.5.46,1.11.96.83,1.84-.03.08.21.25.32.37v.83h-.83c-.14-.99-.44-1.86-1.66-2.2-.22.76-.43,1.48-.63,2.2H0c0-5.08,0-10.15,0-15.23.29.4.58.79.86,1.19.07-.03.13-.07.2-.1-.35-.99-.71-1.98-1.06-2.97,0-2.36,0-4.73,0-7.09.42.66.85,1.32,1.27,1.98.14-.08.28-.16.42-.25-.56-1.06-1.13-2.13-1.69-3.19,0-.21,0-.42,0-.63.78.41,1.57.83,2.62,1.38-.76-1.53-1.36-2.76-2.01-3.97-.06-.12-.4-.09-.61-.13,0-1.11,0-2.22,0-3.34,1.02.79,2.04,1.59,3.03,2.36.63-.81.38-1.48-.35-2.05.06-.33.08-.72-.1-.9-.77-.76-1.68-.63-2.59-.24C0,151.69,0,151.48,0,151.27c.43-.08.87-.16,1.53-.28-.6-.46-1.07-.82-1.53-1.18,0-.49,0-.97,0-1.46,1.61,1.21,2.75,3.19,5.22,3.18-.89-1.02-1.74-1.97-2.56-2.94C1.76,147.54.88,146.48,0,145.43c0-.14,0-.28,0-.42.72.64,1.45,1.27,2.17,1.91,0,.21-.1.5,0,.62.88,1.03,1.78,2.04,2.71,3.02.46.49,1,.91,1.5,1.36.1-.07.2-.15.3-.22-.21-.39-.34-.86-.63-1.16-.75-.76-1.58-1.45-2.37-2.18-.5-.46-.97-.94-1.45-1.42,1.19.71,2.39,1.41,3.71,2.2-.17-.43-.3-.77-.43-1.11-.15-.38-.42-.74-.45-1.13-.08-1.11-.85-2.09-1.77-2.59-.86-.46-1.58-1.18-2.37-1.78.85.54,1.7,1.08,2.55,1.61.07-.07.13-.14.2-.22-.49-.85-.97-1.71-1.48-2.56-.53-.89-1.08-1.77-1.62-2.65.46.54,1,1.04,1.35,1.64,1.54,2.58,3.02,5.19,4.53,7.81.08-1.91.25-3.84.21-5.76-.02-.88-.19-2.22-.75-2.54-1.74-.99-3.71-1.59-5.86-2.45.28.68.41,1.01.55,1.34-.21-.14-.41-.28-.62-.43,0-.42,0-.83,0-1.25,2.06.62,4.12,1.25,6.24,1.89-.22-1.27-.44-2.51-.65-3.76-.09-.55-.4-.74-.94-.7-1.55.1-3.1.19-4.65.28,0-.07,0-.14,0-.21,1.65-.09,3.31-.18,5.27-.28C3.39,132.24,1.69,130.39,0,128.54c0-.14,0-.28,0-.42,1.04.9,2.09,1.81,3.13,2.71-.1.07-.2.13-.31.2.76.84,1.53,1.67,2.29,2.51.11-.07.22-.14.34-.22-.29-.56-.58-1.11-.87-1.67.12-.25.35-.52.33-.76-.07-.78-.24-1.55-.2-2.39.09.14.23.27.27.43.3,1.49.62,2.98.86,4.48.22,1.4,1.24,2.26,2.05,3.27.04.05.35-.12.53-.19-.06,1.63,1.41,2.28,2.02,3.48.08-.04.17-.08.25-.12-.3-.98-.6-1.95-.91-2.93.19.23.37.46.76.94-.3-1.8-.57-3.3-.79-4.8-.15-.96-.22-1.93-.35-2.89-.59-4.33-1.2-8.66-1.79-13-.31-2.28-.58-4.55-.84-6.54,2.43,6.87,4.96,14.04,7.49,21.21.1-.03.2-.06.31-.09.01-1.96.3-3.91-.6-5.85-1.01-2.18-1.77-4.48-2.64-6.73.09-.04.19-.08.28-.12.96,2.33,1.92,4.67,2.88,7,.09-.02.18-.04.27-.06-.24-1.84.79-3.88-1-5.56.3.23.61.46,1.03.77.07-1.5.14-2.87.18-4.25.18-5.84.22-11.68.57-17.51.62-10.19,1.45-20.36,2.14-30.54.11-1.64.01-3.31-.16-4.94-.06-.59-.62-1.13-.99-1.67-.28-.42-.61-.8-.77-1.34.35.33.71.66,1.15,1.08-.22-1.27-.16-2.53-1.39-2.9v-1.45c.18.12.44.29.78.51.08-.74.15-1.42.22-2.1.14,1.14.28,2.27.43,3.41.1,0,.19-.02.29-.03.15-.42.29-.85.53-1.54.23.64.36,1,.49,1.35.07,0,.14-.02.2-.02-.05-1.06-.11-2.13-.17-3.29-.67.06-1.24.11-1.82.16-.42-.72-.85-1.43-1.31-2.22.3-.03.67-.06,1.16-.1-.19-.47-.34-.87-.5-1.27.1-.1.2-.2.3-.3.46.7.92,1.39,1.39,2.12q.71-.87-.95-1.98c.08-.35.24-.65.19-.91-.16-.94-.67-1.81.05-2.82.3-.42,0-1.24.04-1.87.01-.26.16-.51.33-1.02.29.67.46,1.08.63,1.48.06,0,.11,0,.17,0-.07-.8-.14-1.59-.21-2.39.05-.01.09-.03.14-.04.13.26.25.52.42.87v-2.71c.25.08.45.14.68.21.02-.11.04-.2.05-.29.06-1.1.08-2.2.21-3.28.04-.35.44-.65.59-1.01.32-.81.56-1.66.89-2.48.35-.88.76-1.73,1.21-2.76.2.42.31.65.38.79.28-.95.58-1.94.87-2.93.06.05.12.09.18.14.18-.22.46-.42.53-.67.36-1.45.24-3.04,1.44-4.4.09,1.14.17,2.15.22,2.69.6-2.68,1.29-5.78,1.98-8.87.11.02.21.04.32.06v5.15c.17-.05.36-.1.36-.1.51,2.62-1.81,4.32-2.46,6.63.12.08.25.16.37.24.87-.92,1.75-1.85,2.76-2.91-.13.36-.2.56-.29.79.71-.42,1.39-.82,2.07-1.22.05.07.1.15.15.22-.73.63-1.46,1.26-2.25,1.94.02.02.1.08.19.12.08.03.17.04.57.13-.83.33-1.4.53-1.95.78-.53.25-1.04.57-1.45,1.02.61-.07,1.22-.15,2.1-.25-.32.55-.5.85-.8,1.39.76-.53,1.35-.94,2.11-1.47-.38.99-1.47,1.29-1.24,2.46-.56.31-1.24.68-2,1.1.29.12.51.22.73.31-.23.7-.45,1.39-.68,2.09.07.05.14.1.22.15.34-.3.68-.6,1.05-.92.28.15.58.3.98.5-1.18,1.61-3.62,2.07-4.08,4.49.71-.47,1.32-.87,1.93-1.27.05.05.09.1.14.14-.28.4-.56.8-.99,1.43.92-.11,1.6-.19,2.13-.25-.38.95-.79,2-1.26,3.19.28.12.7.38,1.15.45.42.07.87-.06,1.3-.1.01.09.02.17.04.26.45-.2.9-.39,1.36-.59.02.05.04.09.07.14-.1.12-.21.23-.37.42.25.08.46.15.82.26-.84.35-1.56.64-2.31.95.42.24.79.45,1.43.81-.85.34-1.51.59-2.14.87-.19.08-.32.29-.31.6l-1.55.16c0,.07-.01.15-.02.22.27.09.54.18.79.26-.39.37-.78.74-1.21,1.14.24.06.43.1.83.19-1.09.73-2.06,1.39-3.1,2.08.27.07.49.13.66.18-.77.25-1.58.52-2.38.79,0,.09.02.17.03.26,1.4.16,3-.48,4.29,1.23-1.39-.07-2.55-.18-3.7-.17-.45,0-1.03.12-1.32.42-.64.65-1.13,1.44-1.61,2.26,1.54-.52,2.71-2.14,4.85-1.22-1.45.49-1.49,2.12-2.83,2.65-.37.15-.38,1.16-.6,1.75-.31.87-.78,1.61-1.95,1.83-.25,4.57-.52,9.15-.74,13.72-.34,7.11-.67,14.23-.95,21.35-.29,7.45-.53,14.91-.74,22.36-.02.61.43,1.24.67,1.86-.63-.42-.7.02-.72.48-.05,1.14-.17,2.28-.09,3.42.06.83.34,1.66.58,2.47.55,1.86,1.57,3.54,1.96,5.46.48,2.4.96,4.8,1.47,7.19.11.5.38.97.57,1.45.33-1.08.62-2.14.45-3.13-.36-2.19-.94-4.33-1.44-6.5-.51-2.22-1.03-4.43-1.55-6.65.05-.01.09-.02.14-.04.46,1.19.93,2.38,1.39,3.57.09-.02.17-.05.26-.07.12-.32.25-.65.39-1.02,1.26,2.56.42,5.65,2.44,8.08.22-1.08.41-2.02.6-2.96.09.83,0,1.61-.12,2.4-.13.83.14,1.49.79,2.18v-2.54c1.25,1.27,0,2.9.89,4.06.25-.23.67-.43.66-.62-.08-1.72-.24-3.43-.37-5.15.1-.31.33-.65.27-.93-.44-2.28-.9-4.56-1.4-6.82-.9-4.03-1.84-8.04-2.75-12.07-.03-.13-.02-.27.15-.44,1.27,5.41,2.53,10.83,3.77,16.08.35-12.66.7-25.46,1.04-38.23h-.99c.19.65.39,1.32.67,2.28-.94-1.06-1.68-1.9-2.43-2.74.04-.06.09-.11.13-.17.42.3.84.6,1.38.97-.46-1.26-.25-2.76-1.83-3.08.12-.48.22-.89.32-1.31.09.07.31.26.56.47.03-.33.06-.61.1-1.06.36.88.64,1.59.93,2.3.08,0,.15-.02.23-.03.07-.41.13-.82.24-1.5.36.48.59.8.84,1.13v-3.69c-1.13-.09-2.43.63-3.07-.86.04-.02.2-.09.46-.22-.37-.29-.69-.53-1.17-.9.44-.2.82-.37,1.31-.59-.23-.42-.5-.91-.79-1.41.24.02.55.06.84.09.65,1.88.83,2,2.4,1.39-.68-.5-1.27-.93-1.58-1.17-.46-1.78-1.46-3.36-.33-5.09.2.57.39,1.09.62,1.74.1-.27.14-.39.23-.64.54,1.19.09,2.61,1.24,3.52-.19-1.13-.37-2.27-.56-3.4.12-.05.23-.09.35-.14.3.45.6.89.88,1.31.27-.63.56-1.29.96-2.22-1.13,1.04-1.9-.1-2.86-.09-.76,0-1.21-1.24-1.06-2.59.3.19.55.35.92.59.09-.55.17-1.01.26-1.57.19.24.35.44.61.78-.1-1.13-.19-2.1-.29-3.29.4.29.63.44.81.57.09-1.63.19-3.24.28-4.86.08,0,.16,0,.24,0v4.13c.12,0,.24.01.36.02.09-1.6.17-3.2.25-4.63-.06-.1,0,0,.26.4.08-2.38.66-4.33,2.06-6.06.08.41.14.76.21,1.12-.21-1.51,1.05-2.62,1.04-4,.18.14.35.28.52.41.15-.21.39-.4.42-.63.09-.6.01-1.24.16-1.83.29-1.14.68-2.26,1.2-3.3.14,1.28.28,2.57.43,3.85.07,0,.13.01.2.02,0-.87-.09-1.76.02-2.62.12-.9.44-1.78.64-2.67.2-.88.36-1.77.57-2.64.22-.9.49-1.79.94-2.67v5.97c.26-.17.5-.34.75-.5.03.06.09.11.08.15-.27,1.17-.5,2.35-.83,3.5-.12.41-.45.77-.74,1.1-.75.84-1.3,1.76-1.4,2.89.1.09.2.18.29.26l3.2-3.13s.08.04.12.06c-.12.24-.23.48-.47.98.78-.64,1.36-1.11,1.94-1.59.08.09.16.19.24.28-.78.72-1.55,1.44-2.32,2.15.07.03.23.11.45.2-.85.69-2.24.47-2.76,1.82h1.73c-.36.5-.65.91-.94,1.32.04.04.07.09.11.13.66-.55,1.32-1.09,1.98-1.64.05.05.11.11.16.16-.93,1.26-1.86,2.52-2.82,3.83-.09-.05.09.05.03.02-.14,1.08-.27,2.05-.4,3.02.05.02.11.05.16.07.28-.45.56-.9.81-1.3h1.66c-.52.55-.9,1.01-1.34,1.4-.83.74-1.75,1.38-2.51,2.18-.42.44-.59,1.12-.74,1.78l2-1.51c.06.04.12.09.17.13-.34.57-.68,1.14-1.1,1.84.81-.19,1.52-.35,2.09-.48-.11.66-.13,1.38-.35,2.04-.18.54-.6,1-.95,1.55.05.03.2.13.46.29-1.65.09-1.65,1.73-2.69,2.37.08.1.16.21.24.31.61-.42,1.23-.84,1.85-1.28-.1-.04-.22-.08-.5-.18.53-.37.97-.74,1.46-.98.51-.25,1.09-.38,1.7-.58v.74c.58-.28,1.15-.56,1.68-.82.21.3.37.55.62.91-.76.32-1.59.67-2.54,1.08.62.24,1.12.43,1.91.73-1.01.48-1.8.84-2.67,1.26,0-.02.04.15.07.26-.66.19-1.3.37-1.94.55l.07.31h1.2c-.45.41-.94.86-1.54,1.42.4.14.59.22.93.34-1.25.79-2.4,1.51-3.55,2.23.03.07.05.15.08.22l2.27-.36s.03.06.04.09c-1.37.4-2.74.8-4.32,1.27,1.68.64,3.2-.02,4.5.53-.05.03-.23.14-.53.33.38.16.63.27.88.38-.01.07-.02.14-.04.2-1.21,0-2.42.09-3.62-.03-.8-.08-1.33.13-1.77.74-.56.79-1.14,1.57-1.61,2.46,1.68-.62,2.91-2.38,5.22-1.57-.5.45-.89.83-1.3,1.18-.59.52-.54,1.64-1.62,1.7.23.93-1.22,1.32-.75,2.46.14.35-.51,1.3-1.01,1.55-.66.33-.71.76-.73,1.31-.06,1.84-.14,3.68-.16,5.52-.1,11.99-.18,23.98-.25,35.97,0,1.42.98,3.06,2.29,3.94v-13.98c.09,0,.19,0,.28,0,.12,4.33.24,8.65.35,12.98,1.21-1.16,1.04-2.36.07-3.58l.3-.05c.27.34.54.67.96,1.19.27-.67.52-1.12.62-1.6,1.13-5.26,2.34-10.5,3.31-15.79.87-4.73,1.44-9.52,2.17-14.28,1.88-12.12,3.76-24.24,7.01-36.09.54-1.97.1-3.75-1.02-5.41-.22-.33-.41-.68-.43-1.15.33.37.67.74,1.03,1.13.14-1.52.06-2.9-1.71-3.61.1-.08.2-.16.31-.24.33.14.66.29,1.1.48-.17-.36-.3-.65-.53-1.15.3.16.42.23.64.35.04-.38.08-.73.11-1.08l.14-.02c.2.86.39,1.73.65,2.83.29-.75.48-1.24.77-1.99.2.72.33,1.18.45,1.64h.21c.09-1.21.19-2.42.29-3.74h-2.15c-.22-.71-.43-1.39-.64-2.1.52-.22.72-1.28.3-2.27.28.63,1.18-.47,1.33.54-.16.16-.47.45-.46.46.35.41.72.82,1.13,1.18.08.07.42,0,.49-.11.08-.12.05-.41-.05-.52-.35-.37-.75-.7-1.14-1.04.04-.26.13-.52.1-.76-.15-1.01-.33-2.02-.55-3.3.42.27.55.35.71.45.03-.51.06-1,.1-1.5.11-.02.22-.04.33-.06.19.98.38,1.96.56,2.94.13.72.24,1.44.35,2.16.12-.01.25-.02.37-.03v-3.55c.09-.02.18-.03.27-.05.22.48.44.95.62,1.36.39-.53.78-1.05,1.23-1.67-.44-.02-.8-.04-1.39-.07-.72-.79-3.05-.85-2.02-3.25.15.28.3.54.58,1.05-.04-.54-.07-.82-.11-1.28.26.3.42.49.73.85v-2.04c.29.46.42.67.61.99.04-1.01.08-1.88.13-2.85.33.14.56.23.63.26.33-1.46.66-2.91.99-4.35l.3.04-.56,3.6.33.06c.19-.98.4-1.96.57-2.95.06-.37-.06-.8.08-1.13.48-1.09,1.01-2.16,1.57-3.2.44-.82.96-1.59,1.66-2.31.03.4.05.81.08,1.21.07,0,.13,0,.2,0,.1-.77.19-1.54.28-2.24,1.06-.12.63-1.21,1.2-1.75v.84c1.38-1.61,1.14-4.02,2.84-5.58v3.96c.81-1.94.45-3.88,1.57-5.53,1.02-1.51,1.47-3.41,2.17-5.14.09.03.19.06.28.08-.31,1.97-.62,3.94-.93,5.95.26-.11.53-.21.81-.33-.6,1.36-1.15,2.66-1.75,3.94-.12.26-.39.46-.61.65-.85.75-1.41,1.66-1.72,2.72.09.09.17.17.26.26,1.18-.97,2.36-1.93,3.63-2.97.02.18.04.3.04.3h1.27v-2.37c.42.5.67.78,1.12,1.32.11-.85.2-1.48.29-2.2.15.18.29.36.51.63-.05-.98-.09-1.83-.14-2.85.38.29.58.45.76.58.09-.03.15-.04.15-.05.06-1.59.11-3.18.16-4.77.09,0,.18,0,.27,0v4.18c.08,0,.16.02.23.03.16-.93.35-1.86.48-2.8.09-.69-.41-1.34.18-2.11.38-.5.05-1.48.32-2.12.47-1.1,1.16-2.1,1.85-3.3.15.6.26,1.03.37,1.46.04,0,.07-.02.11-.03,0-.67-.12-1.38.04-2.01.13-.53.56-1,.92-1.58.15-.11.57-.24.67-.5.24-.63.3-1.32.48-1.97.3-1.1.63-2.19.94-3.28.11.02.23.04.34.07.09,1.27.18,2.55.27,3.82-.05-3.82,1.73-7.16,2.68-11.02v6.19c.09-.03.29-.11.32-.12.39,2.91-2.08,4.85-2.97,7.41.12.08.24.16.36.24.58-.59,1.16-1.16,1.72-1.76.19-.21,1.65-.98,2.04-1.12.47-.16.91-.42,1.47-.46-.95.77-1.89,1.53-2.88,2.33.23.03.47.06.89.12-1.14.47-2.11.87-3.07,1.27.02.13.04.26.05.39.57.09,1.14.17,1.87.29-.38.45-.7.84-1.03,1.24l.09.11c.7-.56,1.41-1.12,2.33-1.86-.63.97-1.3,1.64-1.51,2.43-.26.99-1.13.94-1.74,1.48.17.2.34.4.33.39-.25,1.03-.46,1.88-.66,2.72.55-1.1,1.57-1,2.76-.98-.64.6-1.16,1.16-1.75,1.63-1.17.94-2.53,1.7-3.07,3.49.86-.49,1.55-.89,2.26-1.29-.35,2.51-3.44,2.69-4.19,4.94,1.68-.13,2.54-1.16,3.44-2.26.5-.62,1.3-.99,2.06-1.55-.35,1.1-.55,1.97-.91,2.77-.25.55-.74,1-1.22,1.61.45,1.17-1.06.26-1.27.75-.09.44-.17.85-.25,1.29.32-.1,1.01.16.82-.76,1.34-.23,1.97-2.07,3.66-1.58-.11.15-.21.3-.35.49.87.17,1.84-1.49,2.52.27-.37.14-.85.3-1.29.52-.42.2-.81.47-1.4.82.73.12,1.25.2,1.76.28.02.09.04.18.06.27-1.39.6-2.79,1.19-4.31,1.85.42.03.71.05.96.07-.39.38-.78.75-1.24,1.2.34.21.53.33.83.52-1.19.78-2.35,1.53-3.5,2.28.01.08.03.16.04.24.63-.11,1.26-.22,1.89-.34l.04.17c-1.26.35-2.52.7-3.78,1.05l.03.3c1.4.09,2.8.19,4.5.3-.46.22-.65.31-1.02.49.48.13.78.21,1.09.29-1.37.56-2.73.28-4.11.04-.24-.04-.61-.06-.74.08-.89.95-1.73,1.94-2.58,2.92.08.09.16.18.24.28.81-.47,1.68-.88,2.43-1.44.86-.63,1.69-.58,2.55-.18-1.3,1.52-2.6,3.04-3.88,4.55.39.71-.14,1.92-1.1,2.24-.7.23-.81.68-.85,1.21-.24,3.22-.49,6.44-.64,9.67-.03.61.35,1.24.53,1.8.57-.97,1.52-1.9,1.15-3.35.39.16.65.26.9.36-.04-.24-.15-.5-.09-.72.21-.86.41-1.74.75-2.56.24-.58.73-1.06,1.06-1.61.51-.84.97-1.69,1.59-2.77.14.48.2.68.23.79,1.13-2.01,2.3-4.09,3.47-6.16.06.03.12.06.18.08-.08.84-.17,1.67-.25,2.51-.04-.02-.08-.04-.12-.06.91-2.25,1.83-4.49,2.74-6.74.11.04.22.07.34.11-.23,1.11-.78,2.28-.61,3.32.32,2-.86,3.05-1.99,4.25-.28.3-.42.75-.52,1.26,1.21-.81,2.32-1.75,3.84-1.77-1.04,1.09-2.25,1.93-3.85,2.16.05.1.1.2.15.3.37.03.73.06,1.18.09-.14.24-.25.43-.42.73.45-.12.77-.21,1.1-.29l.08.14c-.56.32-1.13.63-1.66.93.27.04.65.11,1.03.17-1.47.36-1.62,1.58-1.96,2.76h1.35c.03.09.05.18.08.27-1.11.95-2.79,1.2-3.62,2.82.7-.25,1.22-.44,1.74-.63.06.1.12.2.17.3-1.25.88-2.51,1.76-3.76,2.64.04.12.07.24.11.37.49-.05,1.09.06,1.44-.18.46-.32.73-.92,1.09-1.4-.07-.06-.14-.12-.21-.18.64-.13,1.27-.26,1.93-.4-.54.94-1.06,1.86-1.58,2.78.95.56,2.33-.23,3.28.83-.66.24-1.24.45-2.04.74.57.19.89.3,1.42.48-1.09.35-2.01.57-2.85.96-.34.16-.65.66-.74,1.06-.27,1.18-1.4,1.07-2.14,1.62.06.12.13.28.2.43-.54.09-1.05.17-1.55.25,0,.09,0,.18.01.26.54-.03,1.14-.22,1.61-.04.43.17.72.72.98,1.32-.59-.12-1.18-.21-1.76-.36-.7-.18-1.35-.22-1.91.37-.45.47-.94.9-1.36,1.44,1.24-.11,2.23-1.5,3.7-.5-.7.58-1.51,1.05-2.03,1.73-.41.54-1.34.74-1.19,1.74.04.25-.47.76-.81.85-.69.19-.85.67-.93,1.22-.23,1.65-.51,3.29-.6,4.95-.35,6.84-.64,13.68-.95,20.52-.01.3,0,.61,0,.98.93-.5,1.8-.91,2.61-1.42.27-.17.5-.57.56-.91.3-1.56.57-3.13.79-4.71.04-.3-.16-.63-.25-.94-.12.03-.23.05-.35.08.07.51.13,1.03.2,1.54-.04.02-.08.04-.13.06l-1.15-1.85s.06-.07.1-.1c.2.18.41.36.61.54.06-.03.13-.06.19-.1-.25-.68-.5-1.36-.74-2.03.07-.12.22-.36.36-.59.21.28.44.57.7.9.14-.25.26-.48.44-.79.15.27.28.51.52.92.13-.92.23-1.65.35-2.56-1.84.49-1.75-.96-2.01-2.12.59.2,1.24.42,1.98.67-.89-1.29-1.19-2.62-.3-4.15.26.92.52,1.83.79,2.79.52-.51-.28-1.43.74-1.93-.38-.3-.95-.6-1.29-1.06-.27-.36-.24-.94-.41-1.67.38.34.55.49.8.71.12-.49.22-.9.36-1.48.14.28.2.41.34.68.07-.75.13-1.38.2-2.11.3.14.5.24.82.39v-2.22c.09,0,.18,0,.27,0-.02.45-.04.89-.06,1.34.08.02.16.05.24.07.19-.71.35-1.42.56-2.12.23-.76.36-1.59.79-2.22.35-.51.46-1.46,1.56-1.45.93-1.7,1.94-3.54,2.95-5.38.06.02.13.04.19.07-.08.72-.15,1.43-.2,1.86.76-1.8,1.62-3.85,2.59-6.17,0,.82.06,1.32-.02,1.81-.07.5-.33.98-.4,1.49-.07.54.16,1.19-.05,1.64-.39.83-1.01,1.55-1.54,2.31-.27.38-.55.75-.83,1.12.06.08.12.15.17.23l3.47-1.79c.05.11.11.21.16.32-1.13.38-1.61,1.87-3.07,1.54.18.45.31.78.48,1.2.16-.04.47-.12.98-.25-.52.37-.86.62-1.33.96.38.1.59.15.98.25-.67.45-1.37.72-1.72,1.23-.34.5-.33,1.24-.48,1.94.18-.11.4-.3.65-.39.18-.07.4,0,.6,0-.08.19-.1.47-.24.56-.67.43-1.4.76-2.06,1.21-.44.3-.79.72-1.09,1.26.6-.25,1.19-.5,2.03-.86-.38.48-.58.73-.91,1.14.51.03.86.06,1.34.09-.43.76-.84,1.48-1.27,2.24.89.17,1.93.37,2.96.56,0,.08,0,.17-.01.25-.45.21-.9.41-1.45.66.26.22.43.36.63.54-.42.17-.82.4-1.24.48-1.08.2-1.52,1.04-2.06,1.84-.23.34-.83.42-1.21.68-.36.25-.68.57-.98.9-.03.03.2.38.36.48.44.24.91.41,1.37.61-.02.1-.04.19-.06.29-.54-.06-1.1-.07-1.63-.18-1.47-.31-2.22,0-3.1,1.33,1.1.02,2.1-1.12,3.14-.44-1.03,1.21-1.86,2.6-3.07,3.5-1.48,1.11-1.55,2.62-1.73,4.11-.9,7.29-1.78,14.58-2.58,21.88-.44,4.01-.72,8.04-1.04,12.06-.06.81,0,1.63,0,2.44.09.02.18.05.27.07,1.22-2.86,2.45-5.71,3.67-8.57.07.03.14.06.21.08-.58,1.45-1.21,2.88-1.73,4.36-.19.55-.1,1.19-.14,1.79-.19.03-.51,0-.56.09-.51,1.05-1.01,2.11-1.43,3.21-.13.33-.15.95.05,1.12,1.3,1.14,2.68,2.2,4.02,3.27,1.04-1.09,1.13-2.07.22-3.19-.46-.57-.68-1.34-1.01-2.02.65.97,1.3,1.94,2.09,3.13.3-.8.76-1.42.68-1.96-.08-.54-.69-1-1.07-1.5l.28-.25.95,1.32c.13-.03.26-.05.39-.08.07-.6.28-1.22.2-1.8-.46-3.26-1.12-6.5-1.48-9.78-.69-6.3-1.34-12.62-.22-18.94.47-2.64,1.13-5.24,2.61-7.52,2.6-4.03,7.2-4.7,11.19-1.43-.41-.17-.54-.21-.66-.28-4.32-2.5-8.57-1.27-10.88,3.17-1.69,3.25-2.24,6.76-2.42,10.36-.06,1.32-.04,2.64,0,3.96,0,.4.16.79.26,1.19-.04.38-.15.76-.12,1.12.49,4.88,1,9.77,1.53,14.65.09.82.33,1.62.49,2.43l.28-.03v-4.21c.08,0,.15,0,.23,0v3.79c.51-.83.78-1.71,1.15-2.54.45-1.01.42-1.96.09-3.01-1.27-4.06-2.46-8.14-3.68-12.22.31.65.69,1.27.92,1.95,1.03,3.08,2.03,6.18,3.03,9.27.1.32.23.63.44,1.2,2.64-9.5,3.08-18.86,1.77-28.34.09,0,.18-.02.27-.02.26,1.91.6,3.81.77,5.73.59,6.5.32,12.97-1.04,19.37-.04.17-.11.36-.07.51.65,2.62,1.32,5.24,1.99,7.85.02.06.17.08.26.12.08.67.09,1.35.25,2.01.36,1.5.83,2.98,1.17,4.49.32,1.41.5,2.85.77,4.28.13.68.56.89,1.32.64-.03-.36-.04-.73-.1-1.09-.69-3.84-1.38-7.68-2.08-11.52-.04-.24-.23-.46-.35-.69v-2.17c.45,1.52.92,3.1,1.39,4.68.1,0,.2-.02.3-.02.13-.33.27-.66.5-1.22.31,2.39.58,4.53.85,6.66.09,0,.18,0,.26-.01v-2.99c.3,1.98-.18,4.12,1.59,5.72.11-.76.22-1.52.33-2.28-.34,2.11.29,3.98,1.5,5.74-.25-2.73-.49-5.47-.74-8.2.1-.01.21-.02.31-.03.28,3.22.56,6.44.83,9.66.11,0,.23,0,.34,0,.14-1.44.27-2.88.42-4.31.1-.93.29-1.85.33-2.78.02-.57-.1-1.17-.28-1.71-.33-1-.75-1.98-1.13-2.96.09-.03.17-.07.26-.1.88,2.17,1.75,4.34,2.75,6.79.37-1.8.69-3.36,1.04-5.01.15.45.29.89.43,1.33-.12.04-.34.05-.35.11-.35,1.64-.68,3.28-1.04,5.08,1.25-.74,1.89-3.6,1.36-5.23.13-.73.29-1.45.38-2.18.21-1.76.38-3.53.56-5.29.12.01.24.02.36.04-.26,2.6-.52,5.2-.78,7.8.06.02.13.04.19.06.14-.52.27-1.04.44-1.55,1.82-5.61,3.65-11.21,5.48-16.82.74-2.28,2.09-4.51.72-7.04.19.26.39.52.58.78.09-.03.18-.06.27-.09-.23-.76-.47-1.53-.7-2.28.02,0,.18.02.36.03-.04-.17-.07-.3-.18-.75.51.55.83.9,1.22,1.32.23-.49.49-.94.65-1.41.09-.26,0-.57,0-.86-.31.01-.62.03-.98.04-.03-.54-.07-1.21-.11-1.95.55.03.93-.21.44-1.01.8.31,1.01.1.99-.64-.01-.69.21-1.38.33-2.07.09,0,.19-.01.28-.02.21.37.43.75.68,1.19.16-.46.72-.8-.14-1.23-.28-.14-.22-.97-.32-1.48.11.06.23.12.34.18.41-.4.9-.73,1.2-1.2.79-1.25.97-2.86,2.32-3.78.14-.1.15-.38.24-.55.58-1.07,1.13-2.07,2.23-2.84,1-.7,1.59-1.98,2.33-3.04.38-.55.68-1.15,1.01-1.73.08.04.15.07.23.11-.11.66-.23,1.33-.31,1.85.9-1.75,1.86-3.62,2.82-5.48-.09,3-.64,5.79-3.38,7.67.11.08.22.17.33.25,1.21-.56,2.42-1.11,3.63-1.67.06.13.13.27.19.4-1.09.58-2.18,1.16-3.41,1.81.62.19,1.17.35,1.82.55-.65.26-1.26.5-2.12.84.55.09.88.14,1.2.19.02.07.04.13.06.2-.47.21-1.06.32-1.39.66-.32.33-.39.91-.59,1.41.47.08.93.16,1.5.26-1.33.79-2.59,1.53-3.85,2.27l.15.27c.42-.1.84-.21,1.44-.35-.77,1.01-1.51,1.64-2.7,1.65-.24,0-.48.56-.76.91.99.27,1.71-.06,2.2-.72.48-.66,1.04-.82,1.87-.74-.57.93-1.09,1.77-1.52,2.47,1.05.16,2.05.32,3.06.47l-.02.34c-.49.12-.98.25-1.67.42.3.23.49.38.72.56-.13.06-.21.11-.3.13-1.06.21-2.27.34-2.9,1.24-.99,1.41-2.72,1.34-4.03,2.36,1.07.06,2.12-.02,2.72,1.23-.75-.15-1.42-.24-2.06-.41-1.45-.38-1.8-.24-2.65,1.29,1.04-.41,1.99-1.24,2.98-.14-1.32.88-2.68,1.79-4.05,2.7.03.06.06.11.09.17.2-.04.39-.08.76-.15-.31.29-.46.56-.66.61-1.3.3-1.5,1.42-1.81,2.41-1.19,3.81-2.43,7.6-3.49,11.44-1,3.6-1.82,7.26-2.68,10.9-.05.21.19.5.3.75l-.03-.02c1.14,1.12,2.27,2.25,3.41,3.37.1-.06.21-.12.31-.18-.12-3.19-.25-6.39-.37-9.55.21,1.26.43,2.56.65,3.86.08.03.15.07.23.1l2.36-5.38.2.08c-.71,1.67-1.38,3.37-2.15,5.02-.43.93-.78,1.74-.4,2.85.27.79.05,1.75.28,2.7.94-1.12,1.88-2.23,2.82-3.35.06.05.12.09.19.14-.46.6-.94,1.19-1.36,1.82-.18.26-.23.61-.34.92.34.1.67.21,1.01.3.29.08.57.15.86.22h-1.41c.96,1.34,1.42,2.77,2.66,3.5.16.37.23.75.45,1.01.68.8,1.68.87,2.62.94.36.03,1-.14,1.06-.35.12-.42.11-1.1-.16-1.38-.71-.74-1.56-1.37-2.4-1.97-.83-.59-1.73-1.08-2.6-1.61,2.13.65,4.04,1.67,5.64,3.53.2-1.24.36-2.2.14-3.35-.73-3.76-1.2-7.57-1.77-11.36-.03-.17-.09-.33-.13-.49,0,0,0,0,0,0,.16.54.37,1.08.47,1.63.54,2.9,1.06,5.79,1.58,8.7.1.55.14,1.11.21,1.66.11,0,.23.02.34.03.42-1.92.96-3.83,1.22-5.77.53-3.98.91-7.98,1.34-11.98.34-3.15-.2-6.23-.75-9.31-.04-.23-.08-.47.05-.74.17.67.35,1.33.51,2,.16.71.31,1.42.44,2.14.13.72.33,1.44.31,2.16-.1,3.5-.28,7-.4,10.49-.02.47.12.94.18,1.41-.13.29-.33.56-.39.86-.43,2.35-.85,4.7-1.22,7.06-.27,1.72-1.55,3.38-.28,5.29.81-.71,1.89-1.13,2-2.43.01-.16.11-.36.23-.45,1.32-1.06,1.27-1.13.92-2.81-.49-2.37-.83-4.77-1.24-7.15.61,2.63,1.22,5.26,1.82,7.89.14.6.26,1.21.41,1.93.43-.06.92-.14,1.44-.21-.19-1.45-.38-2.82-.56-4.2.05,0,.1-.02.15-.03.11.53.23,1.06.37,1.74.36-.31.65-.57.89-.77-.26.44-.75.93-.8,1.45-.11,1.29.45,1.75,1.72,2.08,2.43.63,4.84,1.35,7.25,2.03.39.11.79.21,1.3.35v-2.47c.52,1.06-.54,2.81,1.6,3.06.53-.86,1.09-1.77,1.65-2.67-.69,2.5-1.39,5.03-2.15,7.82.38-.3.54-.43.71-.56.01.05.06.13.04.17-.34.58-.17,1.02.28,1.47.8.8,1.56,1.64,2.59,2.38v-7.45c.1.8.2,1.59.33,2.66.52-.92.92-1.62,1.31-2.33-1.18,2.1-1.9,4.21-.23,6.41.7-.8,1.41-1.62,2.13-2.45.05.05.11.09.16.14-.38.46-.77.93-1.15,1.39-1.22,1.48-1.25,1.99-.19,3.8.26.44.61.82.91,1.23.12,0,.24.01.36.02.14-.6.29-1.2.42-1.75.11.12.36.38.63.68.57-.24,1.13-.47,1.7-.71-.48.34-.97.69-1.55,1.1.94.7.77,2.22,1.96,2.54v1.05c1.51-.86,1.89-1.65,1.67-3.07-.1-.64-.13-1.3-.25-1.94-.03-.16-.3-.28-.46-.42.25-.68.49-1.37.74-2.05l-.16-.07c.12,1.59.23,3.18.36,4.91,1.14-1.13,2.49-4.87,3.78-10.25.84-3.49,1.65-6.99,2.69-10.45-.68,3.5-1.31,7.01-2.06,10.5-.45,2.1-1.14,4.14-1.64,6.23-.15.65-.02,1.36-.02,1.96-.05-.17-.13-.43-.3-1-.53,1.38-.95,2.49-1.46,3.81,1.31-.68,2.44-1.27,3.59-1.87.15.06.49.2.9.37.24-1.66.45-3.16.66-4.65.09,0,.18.02.27.02-.11,1.02-.18,2.04-.33,3.05-.14.99-.16,1.7,1.14,2.03,1.36.35,2.6,1.13,3.89,1.72.43.19.87.37,1.42.6.08-.59.13-1.02.22-1.69.26.4.61.71.56.9-.34,1.24.2,2.21.85,3.17-.38-.34-.75-.68-1.15-1.04-.08,1.22.28,1.73,1.36,1.89-.09-.32-.17-.61-.25-.89.19.06.38.12.69.21.04-.59.07-1.15.09-1.48.33-.59.57-1.03.82-1.48-.29.97-.33,1.91.3,2.78-.22-.19-.44-.39-.91-.79.11.87.18,1.47.25,2.04-.09-.02-.26-.06-.43-.11.5.57,1.07,1,1.67,1.38.05.03.37-.2.41-.35.06-.25,0-.54-.01-.81.23.03.46.06.7.09.03-.37.06-.73.09-1.1.14.21.28.43.41.64.12-.04.23-.08.35-.11-.41-1.56-.81-3.11-1.22-4.67.03-.01.06-.02.1-.04.42,1.06.84,2.12,1.26,3.19.06-.01.13-.02.19-.04v-2.62l.36-.05.55,4.51.39-.05c.45-2.12-.47-4.19-.42-6.24.31.02.63.04,1.05.07-.51,3.12,1.55,5.38,2.82,7.96.15-.06.3-.12.45-.18-.43-.85-.86-1.7-1.28-2.55l.14-.09c.43.6.86,1.21,1.32,1.86,1.07-1.26,1.39-2.58,1.08-4.36.21.4.27.54.34.68.06,0,.12,0,.18,0v-4.68s.07,0,.11,0c.05.95.1,1.91.15,2.86.15.04.29.08.44.12.11-.2.23-.39.34-.59.05.02.09.03.14.05-.18.76-.36,1.52-.57,2.37.24-.09.36-.14.46-.18-.41,1.11-.39,1.14,1.73,2.35-.07-.83-.25-1.53-.16-2.19.09-.61.47-1.18.85-2.04-.14.94-.47,1.66-.28,2.19.44,1.22,1.13,2.36,1.76,3.51.08.14.42.12.64.18.1.56.2,1.12.3,1.68.17-.01.35-.02.52-.04.02-.3.17-.67.04-.87-.2-.32-.58-.52-.88-.77-.02-.44-.05-.87-.07-1.33.33.15.41,1.25,1.17.45-.14.18-.28.35-.46.59.27.4.56.81.85,1.23,1.21-.42-.03-1.51.76-2.16.21.49.4.93.64,1.48.65-.3,1.16-.67,1.27-1.5.27-2.06.57-4.11.87-6.16.04-.25.14-.5.31-.73-.78,3.85-.82,7.73-.49,11.77.9-.62,1.96-.77,2.15-2.26.22-1.73.88-3.41,1.36-5.11.08-.28.24-.53.45-.76-.64,2.89-1.76,5.68-1.63,8.69l.37.13c1.12-2.92,2.25-5.85,3.37-8.77.1.03.19.07.29.1-1.26,3.71-3.17,7.26-3,11.3.13.05.26.11.39.16.67-1.24,1.35-2.47,2.02-3.71-.13.51-.26,1.03-.39,1.55.04.02.07.04.11.05.85-1.45,1.69-2.9,2.54-4.35.08.04.16.08.24.12-.16.3-.33.59-.49.89-.95,1.81-1.9,3.61-2.82,5.43-.12.23-.05.56-.07.84.26-.08.53-.14.78-.25.25-.11.48-.27.71-.41-.41.59-.81,1.19-1.22,1.78,1.07,0,1.36-.56,1.38-1.35.45.67.73.16.99-.17.44-.56.84-1.16,1.44-1.64-.19.39-.37.79-.56,1.18.09.06.18.12.27.19.43-.52.86-1.05,1.22-1.5,0-.02.06.16.15.39.21-.14.37-.25.54-.36-.03.27.05.69-.09.77-.97.61-.53,1.15.03,1.7.65-.96.66-1.91.04-2.45.2-.26.4-.53.6-.79.04.5.09.99.15,1.74,1.11-1.55,1.12-2.01.27-3.04.92-.45.87-1.15.57-2,.35.58.69,1.17,1.08,1.73.13.19.38.29.58.42.12-.18.27-.35.34-.55,1.54-4.12,1.18-8.57,2.27-12.77-.61,5.06-1.02,10.15-1.7,15.22,1.03-1.71,1.16-3.64,1.35-5.74.19.84.33,1.49.48,2.15.14.01.28.02.41.03.66-3.11,1.32-6.22,1.98-9.33.06.01.13.03.19.04-.47,2.56-.98,5.12-1.38,7.7-.12.75-.71,1.58.08,2.33-1.21.34-.37,1.09-.57,1.82.94-.6.79-1.22.55-1.85.18.2.36.41.7.78.73-2.01,1.4-3.87,2.07-5.72.06.02.12.03.17.05-.19.69-.38,1.38-.61,2.17.21-.02.37-.04.85-.09-.48.46-.9.71-1.09,1.08-.43.86-.91,1.75-1.07,2.68-.17.98.6,1.99.13,3.05-.02.05.42.32.64.48,0,.67,0,1.34,0,2,.83-1,.73-1.63-.03-1.97.1-.43.19-.86.29-1.29.26.19.51.37.75.54.16-.31.32-.63.51-1.01-.14-.06-.29-.13-.33-.15.69-.62.64-1.44.5-2.59.9,1.57,1.65,2.89,2.41,4.21,1.09-.79,1.15-1.7.84-2.81-.33-1.15-.46-2.36-.46-3.6.45,1.59.91,3.17,1.36,4.76.13.06.25.11.38.17.16-.29.32-.59.47-.88-.7,1.58.27,2.76.74,4.1,1.37-1.1,1.62-2.35.81-4.18-.16.26-.28.45-.3.48v-4.41c.52,2.39,1.56,4.61,3.02,6.67-.08-.75-.15-1.51-.25-2.46.28.23.4.33.52.42-.41.95.13,1.6.66,2.4.48-.4.87-.72,1.26-1.05l-.18-.22c-.08.1-.17.19-.21.24-.31-.59-.63-1.2-.94-1.8.22.19.49.35.66.58.4.51.75,1.06,1.35,1.51v-3.5c.05,0,.11-.02.16-.03.16.62.26,1.27.49,1.87.13.35.52.59.67.94.17.37.2.81.28,1.18.72-.49,1.44-1.03,2.2-1.49.53-.32.71-.61.47-1.24-.57-1.48-1.05-3-1.57-4.5-.11-.31-.2-.63-.11-1.02.66,1.58,1.35,3.14,1.95,4.74.29.78.56,1.41,1.65,1-1.36.86-.02,1.61-.04,2.39,0,.13.05.27.09.47.29-.1.57-.2.87-.3,0,.08.02.18.02.27,0,.25-.11.62.01.72.23.19.61.34.87.28.2-.05.11-.44.11-.7,0-.93-.26-1.59-.96-2.17-.12-.1.12-.63.22-1.06.57,1.12,1.08,2.13,1.74,3.45.7-1.02,1.22-1.76,1.61-2.34-.05.32-.15.91-.27,1.66.02,0-.22.08-.38.13.27.34.54.68.84,1.06.1-.11.23-.25.36-.4.18.45.33.9.54,1.32.1.19.31.32.47.48.13-.18.38-.35.38-.54.05-1.34.02-2.68.07-4.01.03-.61.2-1.21.31-1.81v1.26c.08.04.17.09.25.13.21-.2.59-.39.59-.59,0-.6-.14-1.2-.23-1.8.12-1.3.24-2.6.36-3.9.04,0,.08,0,.12-.01.12,2.93.24,5.87.36,8.84.24-.02.47-.05.76-.07-.2.34-.36.6-.48.81.35.48.67.93,1.02,1.4,1.56-1.35.8-3.83,1.93-5.52-.21,1.33-.45,2.72-.64,4.11-.02.14.18.31.27.47-.49,1.04-.64,2.1-.36,3.34,1.28-.72,1.04-1.89,1.23-2.5-.43-.4-.66-.62-.89-.83h1.33c.05-.22.17-.72.31-1.34.14.73.26,1.34.41,2.11.25.15.73.44,1.27.77.9-2.33,1.78-4.58,2.65-6.83-.31,2.65-1.9,5.04-1.86,7.78.12.04.24.08.36.12,1.48-3.48,2.95-6.96,4.27-10.07-.52,2.5-1.13,5.43-1.74,8.36l.2.08c.87-1.91,1.73-3.82,2.6-5.73.03,0,.05,0,.07,0-.15.62-.35,1.23-.42,1.85-.07.62-.02,1.25-.02,1.88.1.07.2.13.3.2.26-.23.69-.42.76-.7.22-.81.28-1.67.45-2.5.22-1.1.49-2.19.88-3.27-.07.96-.07,1.93-.21,2.87-.19,1.26-.57,2.49-.71,3.75-.06.5.3,1.04.47,1.58-.72.6-.02,1.58-.13,2.43-.13.75-.32,1.49-.35,2.24-.01.27.35.55.54.83.12-.07.24-.14.37-.21-.19-.97-.38-1.93-.56-2.9,2.07-1.55,1.49-3.83,1.7-5.92.13.72.25,1.44.38,2.17.08,0,.17,0,.25.01.19-.94.39-1.88.58-2.81.05,0,.11.02.16.03-.25,1.43-.5,2.87-.81,4.6.69-.1,1.23-.17,1.87-.26-.2.43-.46.98-.71,1.53-.35,1.24-.69,2.47-1.11,3.96.69-.49,1.05-.75,1.58-1.13-.09-.78-.19-1.72-.3-2.67.35-.57.9-1.1,1-1.71.31-1.91.45-3.84.7-5.78,0,.77-.08,1.55.02,2.31.09.66-.51,1.55.5,2.03-1.49,3.34-1.57,4.15.87,5.94-.15-.7-.15-1.21-.37-1.61-.29-.51-.27-1.19.29-1.34.95-.25,1.13-.96,1.16-1.74.04-1.17.01-2.34.1-3.57.15.62.33,1.23.43,1.85.16.97.2,1.96.41,2.93.06.29.49.51.74.76.13-.31.37-.62.37-.93,0-.44-.16-.88-.25-1.32v.02c.75-.15,1.44-.13,1.8.73-.42-.13-.84-.26-1.26-.4-.06.07-.11.15-.17.22.41.43.82.86,1.23,1.3.1-.07.19-.13.29-.2-.04-.32-.08-.64-.12-.96ZM90.03,155.41c.62.16.92-.19.81-.7-.08-.36-.5-.65-.76-.97-.23.26-.66.54-.64.78.03.32.4.61.63.92-.29.02-.57.05-1.03.08.23.44.32.77.54,1,.19.2.51.32.79.36.09.01.36-.35.33-.5-.05-.28-.26-.54-.42-.79-.05-.08-.16-.12-.25-.17ZM103.55,150.51c.41.59.82,1.19,1.26,1.82.9-1.1.29-1.98-.16-2.98-.41.43-.76.79-1.11,1.16-.26.86-.51,1.73-.78,2.65,1.52-.12,1.63-.29,1.16-1.48-.15-.38-.25-.78-.38-1.18ZM121.78,165.86c-.9.52-.87.65.56,1.73-.13-.62-.23-1.06-.32-1.51.21,0,.6.04.61-.01.2-.86.36-1.74.52-2.61-.1-.03-.2-.06-.3-.09-.22.2-.62.38-.64.6-.06.66-1.27,1.05-.43,1.89ZM108.66,155.01c-.13,1.02-.57,2.09.61,2.9.2-.43.45-.84.6-1.28.21-.63-.51-1.52-1.24-1.59-.41-.71-.81-1.42-1.22-2.13.4.35.8.7,1.19,1.04.26-.29.48-.55.71-.8-.9,1.26.27,1.79.94,2.51-.03-.91-.18-1.8-.37-2.68-.01-.05-.27-.05-.41-.07.04-.73.08-1.47.14-2.44-1.08.6-1.87,1.04-2.66,1.47.2.41.35.71.5,1.01-.14.05-.41.13-.41.16.16,1.07-.02,2.25.98,3.22.24-.5.45-.9.65-1.31ZM94.79,160.11c.29-.49.59-.98.88-1.48-.13-.09-.25-.19-.38-.28-.34.39-.69.77-.98,1.2-.03.04.33.35.5.54-.16.35-.33.7-.49,1.04.1.05.21.1.31.15.82-1.04,2.68-1.35,2.2-3.58-.45.43-1.13.87-1.07,1.05.37,1.03-.26,1.19-.97,1.35ZM81.15,149.67c.17.51.35,1.02.58,1.7.19-.48.46-.86.44-1.22-.03-.63-.17-1.28-.38-1.87-.46-1.33-1-2.63-1.44-3.78.26,1.66.54,3.43.82,5.2-.29-.77-.57-1.54-.95-2.55-.51,2.5-.25,3.54.94,4.08v-1.55ZM124.8,170.96c-.76.26-.89.77-.56,1.46.05.11.15.23.15.34.01.76,0,1.51,0,2.27.86-.46,1.29-1.02,1.09-1.81-.19-.76-.46-1.51-.69-2.26.31.36.62.73,1.13,1.33.06-.77.1-1.29.16-1.99-.59.3-.94.49-1.29.67ZM275.27,182.65c.04.41.07.82.13,1.53.51-.81.86-1.35,1.21-1.89-.05-.09-.1-.18-.15-.27-.41.24-.83.48-1.24.72.13-.43.27-.87.42-1.35-.73-.71-1.57-1-2.61-.22.39.63.77,1.23,1.19,1.91.38-.15.72-.29,1.07-.42ZM39.73,139.56c-.92.53-1.09,1.63-.45,2.88.95-1,1.09-1.94.43-2.87.38-1.22.76-2.44,1.14-3.65-.14-.08-.27-.16-.41-.25-.47.53-.99,1.03-1.41,1.61-.6.81-.19,2.04.7,2.28ZM66.92,144.92c-.07-.35-.14-.7-.22-1.12-2.19,2.04-.58,3.85.07,5.98.33-.74.55-1.24.77-1.74-.07-.06-.14-.13-.21-.19-.25.13-.51.27-.96.51.07-.82.14-1.54.2-2.26-.03.8.31,1.31,1.13,1.43.58-1.44.38-2.89-.44-3.34-.11.25-.22.49-.33.74ZM126.45,164.91c.53.14,1.07.27,1.63.41.75-.7.8-2.16-.07-2.84-.28-.22-.94.04-1.43.08.1.12.2.24.31.36-.14.68-.28,1.35-.43,2.02-.21-.16-.42-.31-.43-.32.05-.49.08-.85.11-1.18-1.64,0-.72,1.46-1.37,2.01-.08.06-.06.26-.05.39.01.09.09.22.16.23.52.13,1.05.24,1.77.4-.27-.49-.45-.82-.56-1.02.15-.24.25-.39.35-.55ZM72.56,142.42c-.22-.44-.44-.89-.69-1.39-1.03,1.45-1.04,1.66-.19,2.97.2-.25.38-.48.57-.71-.62,1.45.7,2.01,1.29,2.96,1.04-2.28.78-3.24-.98-3.83ZM85.19,146.25c-.07.68-.15,1.36-.22,2.04.1.01.21.03.31.04.24-.71.53-1.41.71-2.14.15-.57-.02-.74-.52-.77.46-1.69.06-3.23-.96-4.69-.21,2.56-.42,5.13-.63,7.69.1.06.2.12.31.18.17-.23.4-.43.5-.69.21-.54.34-1.11.51-1.67ZM230.56,177.12c-.39.3-.91.52-1.15.91-.32.52-.49,1.16-.58,1.77-.13.8-.33,1.67.58,2.45.4-1.82.78-3.49,1.15-5.16-.24,1.85-.48,3.71-.72,5.56.57.08,1.69-.56,2-1.12.65-1.14.24-4.02-.77-5.14-.11.39-.2.74-.3,1.1-.05,0-.1-.02-.15-.03-.02-.12-.04-.24-.05-.35ZM73.81,136.5c.31,1.31.63,2.62.94,3.93.1-.02.2-.05.29-.07.23-1.74.68-3.5-.43-5.22-.32.53-.58.97-.84,1.4.23-.82.78-1.69.64-2.44-.41-2.23-1.09-4.41-1.66-6.61h-.31c-.15,1.33-.55,2.7-.39,4.01.18,1.48.85,2.91,1.33,4.35.08.24.28.44.43.66ZM89.35,145.06c-.15-.1-.29-.2-.44-.29-.08.04-.16.07-.23.11.45,1.42.9,2.83,1.35,4.25.1-.03.2-.06.3-.08-.22-.99-.45-1.97-.67-2.96.3.74.6,1.47.96,2.33.13-.3.18-.42.32-.74v2.81c1.77-.66,1.4-2.26,1.59-3.47.08-.53-.75-1.2-1.17-1.8-.07.05-.14.09-.21.14-.03.47-.05.95-.08,1.42-.02,0-.03,0-.05,0v-2.54c.52.73.91,1.28,1.3,1.82.15-.16.3-.32.46-.48-1.2-1.06-2.4-2.12-3.6-3.18-.13.06-.26.11-.38.17.19.83.39,1.67.58,2.5ZM117.45,157.77c.28.82.55,1.63.86,2.53.56-.95,1.13-1.78,1.55-2.68.18-.4.19-1,.03-1.42-.8-2.17-1.68-4.31-2.53-6.45.44.88.91,1.74,1.32,2.64.52,1.15,1,2.32,1.49,3.48.31-.32.39-.61.4-.9.07-1.66.17-3.32.16-4.99,0-.5-.21-1.31-.54-1.45-1.12-.48-2.34-.72-3.65-1.08.32.88.58,1.6.84,2.32-.41-.78-.81-1.55-1.29-2.46-.59.38-1.11.91-1.72,1.06-.87.21-.95.16-.74,1,.06.27.23.53.2.79-.17,1.93.2,3.68,1.4,5.25.34.44.49,1.03.73,1.54.08-.02.16-.03.24-.05-.07-.88-.13-1.75-.2-2.63.09-.02.18-.05.26-.07.4,1.2.8,2.39,1.19,3.59-.32-.58-.64-1.15-1.01-1.83-.24,2.05.34,3.94,1.43,4.47-.16-.95-.31-1.82-.45-2.68ZM13.66,138.13c.22.06.43.12.87.25-.1-1.74.13-3.46-.35-4.95-1.81-5.68-3.85-11.28-5.81-16.91-.13-.37-.28-.73-.42-1.09-.24.41-.29.77-.24,1.12.29,2.03.59,4.05.9,6.08.47,3.12.9,6.24,1.43,9.34.22,1.31.67,2.58,1.01,3.87-.09.1-.28.22-.26.3.37,2.15.76,4.3,1.15,6.45.12,0,.23-.02.35-.02.11-.32.21-.64.3-.92.38,1.1.77,2.2,1.15,3.31.16-.04.31-.09.47-.13-.2-1.02-.4-2.03-.61-3.07.15.22.29.42.54.79.08-1.02.11-1.81.22-2.59.1-.76-.13-1.36-.71-1.83ZM37.61,136.02c-.07.6-.13,1.2-.2,1.79.12,0,.24.01.36.02.6-.62.44-1.26-.06-1.89.03-.13.06-.26.17-.68.28.72.47,1.19.73,1.88.78-1,1.7-1.82,2.15-2.84.62-1.41,1.18-2.95-.25-4.39-.77-.78-1.31-1.78-1.95-2.68.1-.08.2-.15.29-.23.86,1.08,1.71,2.15,2.75,3.46-1.44-6.56-2.82-12.8-4.14-18.8.05-.16,0-.03-.03.1-.6,4.47-1.22,8.94-1.78,13.42-.26,2.09-.38,4.2-.63,6.29-.23,1.93-.58,3.84-.77,5.77-.05.47.32.98.53,1.57,1.34-1.23,1.46-2.61,1.51-4.04.19.14.33.24.69.5v-5.65c.29,1.73.54,3.24.78,4.75-.03.36-.32.75-.51,1.18-.04.09.23.32.35.49ZM63.41,49.03c-.67-1.06-1.33-2.12-2-3.18.08-.07.15-.14.23-.22.29.43.58.86.87,1.3-.02-1.55-.13-2.96-1.81-3.52.35-.27.61-.47.93-.72-.04-.07-.16-.3-.35-.64.3.15.47.23.74.36v-1.55c.31,1.15.59,2.21.88,3.26l.23-.07c.12-.44.24-.88.42-1.56.33.61.52.99.87,1.63,0-.66,0-1.02,0-1.39,0-.38-.02-.76,0-1.14.09-1.53.07-1.52-1.43-1.47-.32.01-.79-.17-.96-.43-.43-.63-.72-1.35-1.08-2.05h1.29c-.25-.71-.46-1.29-.66-1.86.09-.06.18-.11.27-.17.22.33.59.64.63.98.15,1.18.56,1.51,1.9,1.29-.11-.19-.16-.4-.3-.51-1.61-1.31-2.09-2.99-1.71-4.99.06-.34-.12-.72-.22-1.29-.63.51-1.04.85-1.58,1.29.4.05.61.08.93.12q-3.33,1.51-3.34,2.02h1.62c-.46.41-.8.72-1.14,1.02.04.06.08.12.13.19.74-.42,1.47-.84,2.21-1.26.04.08.08.15.12.23-.79.46-1.59.92-2.44,1.41.36.03.69.06,1.01.09.04.1.09.21.13.31-1.01.54-2.02,1.08-3,1.6.29.04.62.08.82.11-.28.91-.54,1.77-.86,2.81,1.14-1.1,1.27-1.14,2.45-.75-1.5,1.74-4.17,2.17-5.2,4.74.92-.51,1.64-.91,2.33-1.29-.33,2.05-2.21,2.26-3.61,3.35.26-.42.4-.65.65-1.06-1.59.93-1.77,1.27-1.49,2.6,1.36-.55,2.92-.78,3.44-2.51.04-.15.31-.26.5-.32.63-.21,1.27-.39,1.98-.61-.4.49-1.02.91-.99,1.27.1,1.05-.44,1.6-1.25,2.11.29.16.49.27.7.38-.4.27-.73.5-1.06.73.04.06.07.11.11.17,1.02-.33,2.03-.66,3.05-.98.03.08.06.16.09.24-.1.15-.2.3-.39.59.71-.26,1.28-.46,2.15-.78-1.06,1.11.21.59.24,1.04-.97.27-1.96.54-2.94.8.02.08.03.16.05.24.51.1,1.01.19,1.52.29.03.14.05.28.08.41-1.46.58-2.91,1.15-4.62,1.82.68.1,1.08.16,1.25.19-.46.35-1,.76-1.63,1.24.36.12.54.19.87.3-1.28.66-2.45,1.26-3.63,1.87.11.08.23.16.54.37-.98.27-1.81.49-2.64.71.01.1.03.2.04.31h2.65c.55.27.95.47,1.35.67-.09.05-.24.14-.4.23.25.14.49.27.72.4-.02.09-.05.18-.07.27-.89-.12-1.79-.21-2.68-.36-1.93-.32-1.93-.34-3.44,1.21-.46.47-.9.95-1.35,1.42l.2.24c1.69-.52,3.1-2.39,5.19-1.21-.56.8-1.52,1.02-1.93,2.05-.32.82-1.5,1.31-2.26,1.93.33,1.19-.39,2.09-2,2.62-.16.7-.35,1.4-.49,2.11-1.94,10.4-3.94,20.8-5.76,31.22-.59,3.38-1.54,6.77-.7,10.3.85,3.58,1.47,7.21,2.26,10.8.37,1.68.87,3.34,1.31,5,.09,0,.18-.02.27-.02.22-1.31.43-2.63.65-3.94-.39,3.15-1.03,6.3.67,9.33.2-.17.46-.39.72-.61-.2.46-.67,1.02-.55,1.37.51,1.46,1.2,2.85,1.89,4.4.23-.3.31-.36.3-.41-.32-1.93-.64-3.86-.98-5.79,0-.06-.18-.08-.27-.13-.3-1.83-.61-3.67-.89-5.5-.06-.39-.04-.79-.06-1.19.15-.02.3-.03.46-.05.85,4.07,1.71,8.14,2.58,12.28.98-.83,1.92-1.69,2.93-2.46.49-.37.65-.7.47-1.3-.17-.61-.4-1.31.51-1.75.2.7.4,1.36.59,2.04.73-.18,1.36-.36,2-.5,1.67-.36,1.68-.35,1.77-2.02.01-.29-.08-.61-.2-.88-.34-.75-.8-1.46-1.07-2.23-.95-2.71-1.72-5.48-2.12-8.33-.4-2.78-.39-5.55.26-8.31-.25,5.81.9,11.35,3.18,16.92.3-2.64.61-5.04.84-7.45,1.14-12.45,2.7-24.84,4.99-37.14.54-2.92.58-5.94.76-8.92.04-.67-.26-1.37-.4-2.06-.01-.06.01-.12.02-.18.17.06.34.13.71.27-.25-1.11-.47-2.05-.7-3.06.3.13.47.21.84.37-.1-1.29-.19-2.39-.28-3.5.1-.15.38-.4.41-.67.18-1.42.36-2.85.44-4.28.22-4.25,1.29-8.46.72-12.75.11.18.22.36.42.68.11-1.37.95-2.7-.86-3.63.12.59.23,1.03.3,1.49.07.5.11,1,.16,1.5ZM64.55,101.61c-.11-.07-.22-.14-.33-.21-.86.68-1.74,1.32-2.55,2.05-.24.22-.32.69-.34,1.05-.33,7.5-.65,15-.96,22.5-.02.57,0,1.13,0,1.7.15.01.3.02.46.03,1.52-9,1.76-18.18,3.73-27.11ZM47.02,140c.54-.3,1-.55,1.46-.8-.28.41-.68.64-.97.97-.19.22-.4.67-.3.88.57,1.23,1.21,2.44,1.87,3.63.09.16.42.18.49.21.63,1.23,1.23,2.39,1.83,3.55.11,0,.23.01.34.02.12-.67.39-1.35.35-2-.13-1.75-.35-3.5-.62-5.24-.32-2.07-.72-4.12-1.13-6.46-1.39,1.76-3.98,2.35-3.32,5.26ZM53.81,148.78c.09.01.18.03.27.04.45-5.13.66-10.28.82-15.7-1.16.34-2.14.58-3.09.93-.18.07-.33.57-.29.83.17,1.06.46,2.1.63,3.16.57,3.58,1.11,7.16,1.66,10.74ZM141.41,160.89c0,.98,0,1.56,0,2.15-.02,1.2.12,2.33.84,3.36.49.7.91,1.47,1.26,2.25.34.77.86,1.09,1.8,1.04v-1.69c.08.03.24.11.58.26-.11-.62-.19-1.09-.26-1.49.09-.04.34-.07.36-.16.2-.84.4-1.68.53-2.54.1-.64-.06-.75-.74-.68-.05,0-.12.04-.16.02-1.33-.79-2.67-1.59-4.2-2.51ZM58.19,133.91c.11,0,.22-.01.32-.02.09-2.39.39-4.79.22-7.15-.27-3.9-.85-7.78-1.22-10.99-.36,4.35-.79,9.42-1.18,14.49-.04.48.16,1.03.4,1.47.42.77.96,1.47,1.45,2.2ZM137.74,168.73c.27-1.26.79-2.51.72-3.73-.06-1.29-.68-2.55-1.06-3.84-2.32.95-2.61,1.45-1.96,3.26.43-.12.86-.23,1.36-.37-.47.63-1.78.43-1.3,1.72.31.83.64,1.45,1.72,1.05-1.27.59-1.28.64-.5,2.4.26-.3.47-.55.67-.77.12.1.25.2.35.29ZM122.35,154.88c-.27,1.08-.5,1.95-.68,2.84-.06.29-.02.62.07.91.45,1.37.94,2.73,1.45,4.19,1.62-1.11,1.94-2.78,1.82-4.41-.12-1.61-1.76-2.32-2.66-3.53ZM58.1,109.59c.06.01.12.03.19.04.53-1.75,1.31-3.46,1.54-5.25.39-3.02.44-6.09.61-9.14.1-1.81.16-3.63.25-5.44-.07,0-.15-.01-.22-.02-.79,6.6-1.57,13.21-2.36,19.81ZM43.19,138.73c.11-.03.22-.05.33-.08-.26-1.46-.5-2.93-.8-4.39-.02-.11-.7-.24-.75-.15-.39.62-.8,1.26-1.02,1.96-.21.65-.22,1.36-.26,2.05-.03.49-.48.98.18,1.49.18.14-.11.9-.18,1.38.12.04.24.08.36.11.56-.4,1.33-.68,1.62-1.22.28-.52.06-1.3.06-1.92.14.22.31.5.48.78ZM7.83,140.73c-.14.07-.28.14-.43.21.73,2.41,1.46,4.81,2.19,7.22.1,0,.19-.01.29-.02.19-.6.37-1.19.55-1.78-.47-.21-.87-.39-1.26-.57.02-.09.04-.17.06-.26.55-.05,1.11-.1,1.62-.14.13-.5.14-1,.38-1.33.41-.56.21-.91-.24-1.21-1.05-.72-2.11-1.41-3.17-2.11ZM13.54,151.84c-.48-1.86-.93-3.64-1.39-5.43-1.79,2.85-.86,5.48.11,8.21.45-.35.87-.64,1.24-.99.44-.42.43-.79-.24-.96-.4-.1-.79-.21-1.19-.32,0-.11.02-.22.02-.33.45-.05.89-.11,1.45-.18ZM108.6,146.51c-2.09,1.24-2.89,3.01-2.19,5.14.93-.46,1.84-.89,2.72-1.37.12-.06.18-.37.14-.55-.2-1.07-.44-2.13-.67-3.22ZM18.37,139.95c-.54-3.28-.83-6.6-2.28-9.74-.78,3.69.31,6.83,2.28,9.74ZM57.21,142.77c1.73-3.73,1.51-6.74-.57-8.38.19,2.77.37,5.43.57,8.38ZM71.62,140.44c1.62-3.59,1.63-3.7.25-6.57-.36,1.82-.65,3.44-1.02,5.04-.17.75.07,1.18.77,1.53ZM61.61,139.6c-.09.06-.19.11-.28.17.85,1.76,1.7,3.52,2.56,5.28.12-.03.24-.07.35-.1.36-.73.73-1.47,1.13-2.28-.43-.32-.83-.61-1.39-1.02.11.6.2.96.23,1.33.03.36,0,.73,0,1.1.16-2.12-.87-3.5-2.61-4.48ZM7.54,158.95l.31-.23c-.31-1.71-.63-3.42-.94-5.13-.1.01-.2.02-.3.03v2.35h-.26c-.03-.49-.08-.99-.1-1.49-.02-.48,0-.96,0-1.57-.54.68-.97,1.21-1.48,1.84.9,1.37,1.84,2.78,2.78,4.2ZM59.65,108.21c-1.02,2.62-1.34,11.99-.51,13.52.17-4.45.34-8.87.51-13.52ZM160.35,164.77c-.08,1.37-.16,2.62-.23,3.86.1,0,.21.02.31.03.19-.3.38-.61.58-.91-.23.86.28,1.06.91,1.17,1.16-1.91.87-2.78-1.57-4.15ZM73.29,137.87c-.44.98-.88,1.76-1.14,2.6-.09.29.2.74.41,1.06.05.07.49-.13.67-.18-.33,1.41,1.41,1.38,1.57,2.45.08-.05.17-.09.25-.14-.57-1.86-1.14-3.72-1.77-5.79ZM95.41,151.33c-.74.47-1.37.87-2.25,1.43.78.56,1.42,1.08,2.12,1.49.23.13.73.04.93-.14.18-.17.24-.65.14-.91-.24-.64-.61-1.22-.94-1.87ZM63,31.42c.47,1.59.93,3.15,1.4,4.7.11-.03.23-.06.34-.09-.15-1.11-.3-2.23-.44-3.34.11-.02.22-.05.33-.07.25.52.51,1.05.88,1.82v-1.44c.41-.38.68-.62.89-.81-1.23-.28-2.3-.53-3.4-.78ZM16.21,140.85c.16,1.08.31,2.31.53,3.53.05.29.29.67.54.78.21.1.6-.07.86-.22.22-.13.08-2.27-.15-2.48-.6-.56-1.23-1.11-1.78-1.6ZM106.86,157.74c.57-1,.16-4.85-.54-5.56-.6.54-.24,4.67.54,5.56ZM70.07,139.04c.55-2.25,1.11-4.49,1.66-6.74-.16-.04-.33-.08-.49-.12-.25,2.31-2.29,4.24-1.17,6.86ZM60.13,151.27c.16.01.31.03.47.04.29-2.75.73-5.5.39-8.28-.11,0-.22-.01-.33-.02-.18,2.75-.36,5.51-.53,8.26ZM87.89,152.65c.12.02.25.04.37.06.63-1.88,1.72-3.73.14-6.01-.18,2.14-.35,4.05-.51,5.96ZM273.92,183.21c-.55-.59-1.06-1.16-1.59-1.73-1.3,1.37-1.12,2.61.31,3.07.39-.41.79-.83,1.28-1.35ZM8.37,138.08c-.12.02-.25.03-.37.05.06.68-.15,1.62.22,1.99.84.86,1.95,1.44,2.96,2.13.07-.07.15-.13.22-.2l-3.02-3.97ZM121.01,148.75v5.52c.05,0,.11.02.16.03.4-1.69.8-3.37,1.21-5.1-.5-.16-.85-.28-1.38-.45ZM171.22,172.36c-.4.37-.72.65-1.07.97,1.46.7,1.51.71,1.92-.63.2-.65.2-1.38.31-2.27-.95.63-2,.8-2.14,2.05.37-.05.63-.08.98-.13ZM30.48,75.32c2.06-.14,2.83-1.63,3.93-2.81-2.18-.25-2.86,1.39-3.93,2.81ZM234.95,178.41c-1.25,1.28-.93,2.74-1.11,4.11-.02.14.19.31.3.47.15-.15.4-.28.44-.45.25-1.01.49-2.02.64-3.04.05-.34-.18-.72-.28-1.08ZM34.24,142.21c-.74.98-.4,1.79.24,2.48.17.19.64.1.98.13.03-.1.06-.2.09-.3-.25-.36-.49-.72-.86-1.27q1.4,1.01,1.88.44c-.78-.5-1.55-.99-2.32-1.48ZM200.48,180.5c.03.13.07.27.1.4.73-.09,1.69.08,2.12-.33.63-.59-.26-1.2-.57-1.78-.02-.03-.02-.08-.04-.09-.24-.1-.49-.2-.73-.3.05.24.1.48.17.78-.07.05-.27.14-.38.29-.24.32-.44.68-.66,1.02ZM34.55,146.34c-.12.04-.36.09-.57.2-.21.1-.39.26-.57.38.62,1.54,1.31,2.24,2.08,2.23-.02-.98.45-2.12-.95-2.81ZM109.13,146.17c.29,1.29.56,2.45.84,3.7.35-.26.63-.47.92-.68-.15-.57-.28-1.11-.47-1.83.03-.21.11-.72.21-1.37-.61.07-1,.12-1.5.18ZM26.42,43.25c-1.72.64-3.36.91-3.82,2.82,1.87-.03,2.54-1.56,3.82-2.82ZM42.13,144.08c.45-.42.92-.66.92-.91.01-.88-.13-1.77-.23-2.83-.66.45-1.1.75-1.39.95.24.94.43,1.71.7,2.79ZM135.32,167.35c-.08-.43-.13-.89-.24-1.34-.07-.27-.22-.53-.33-.79-.19.17-.37.34-.57.49-.06.05-.17.03-.26.05-.74.16-.93.53-.74,1.31.2.84.72.49,1.16.48.29-.01.58-.12.98-.21ZM26.81,140.37c-.08.03-.15.07-.23.1.37,1.35.75,2.7,1.12,4.05.12,0,.23,0,.35,0,.16-.71.61-1.52.4-2.09-.28-.78-1.07-1.38-1.64-2.06ZM115.36,162.64c-.23-.16-.59-.41-.95-.66-.07.08-.14.16-.21.24.6.52,1.2,1.05,1.87,1.63.15-1.47-.79-3.75-2.12-4.74.47,1.18.95,2.36,1.42,3.53ZM19.43,48.88c-.73-.28-1.41-.53-2.26-.86.45,1.49.87,2.85,1.28,4.21.06-.01.12-.03.17-.04-.1-.89-.21-1.79-.31-2.68.11-.02.21-.04.32-.06.24.23.49.47.8.76v-1.34ZM69.84,149.34c-.54-.06-.83-.1-1.11-.13-.89,2.46-.88,2.52.54,2.94.18-.9.36-1.79.57-2.81ZM36.55,137.43c-.56.67-.99,1.06-1.25,1.54-.18.32-.14.77-.15,1.16,0,.07.21.19.34.21.6.12,1.64-1.03,1.49-1.65-.08-.33-.21-.64-.42-1.26ZM120.35,164.18c.98-1.58,2.22-3.11.98-5.22-.34,1.8-.66,3.51-.98,5.22ZM37.29,140.1c-.07-.04-.15-.08-.22-.12-.77.47-1.55.94-2.51,1.54.76.46,1.32.8,1.98,1.21.11-.6.19-1.07.26-1.47,1.3.03.31-.79.49-1.15ZM82.08,154.89c-.14-.49-.22-.75-.3-1.04.22.08.39.13.55.19l.18-.23c-.48-.42-.96-.85-1.63-1.44.12.52.18.76.22.92-.31-.12-.62-.24-.92-.36-.02.35-.1.71-.03,1.04.09.42.31.8.54,1.38.19-.46.3-.75.42-1.05.29.18.53.32.97.59ZM111.63,149.11c.74-.78,1.64-1.33,1.15-2.35-.2-.4-.93-.55-1.59-.9.09.75.13,1.18.19,1.62.06.47.14.95.25,1.63ZM6.37,135.9c.27,1.28.55,2.56.87,4.09,1.19-1.86.47-3.05-.87-4.09ZM179.97,174.97c-.07-.05-.13-.1-.2-.15-.55.42-1.09.85-1.44,1.12.09.96.15,1.67.22,2.38.12.02.25.04.37.06.35-1.14.7-2.28,1.05-3.42ZM138.66,163.68c.11,0,.22,0,.33-.01.09-.98.19-1.96.29-3.1-.56.1-1.07.19-1.7.3.39,1.03.73,1.92,1.07,2.81ZM193.3,175.9c.21-1.6-.54-2.65-1.11-3.86-.64,1.29-.31,2.49,1.11,3.86ZM100.14,152.48c-2.03,1.03.01,2.08-.09,3.12.88-.44.91-1.21.09-3.12ZM222.88,177.72v3.5c.23-1.09,2.54-2.05,0-3.5ZM112.55,153.63c-.09.02-.18.03-.28.05-.49,1.99-.05,3.69,1.16,3.93-.3-1.36-.59-2.67-.88-3.98ZM142.28,168.48c-.03.71-1.52.91-.76,1.81.44.52.97.95,1.45,1.43.06-.06.12-.12.18-.18-.29-1.02-.58-2.04-.87-3.06ZM95.14,143.96c-.39.7-1.57,1.04-.74,1.97.61.69,1.16.31,1.71-.24-.32-.56-.64-1.14-.97-1.72ZM118.95,163.67c.1.04.2.08.3.12.18-.93.36-1.86.54-2.79-.17-.05-.33-.1-.5-.15-.48,1.11-.97,2.22-1.45,3.32.08.03.16.07.24.1.29-.2.57-.41.86-.61ZM84.54,153.43c.73-.23,1.15-.36,1.72-.54.03-.41.08-1,.13-1.5-.43-.13-.73-.23-1.17-.37-.21.75-.42,1.5-.68,2.41ZM17.91,141.52c-.68-1.56-1.24-2.86-1.86-4.3-.74,2.05.39,3.12,1.86,4.3ZM71.9,145.06c.01,1.07-.86,2.16.44,3,.82-1.34.76-1.83-.44-3ZM64.79,147.14c-1.46,1.88-1.39,2.25.65,2.97-.21-.97-.42-1.93-.65-2.97ZM37.1,147.66c.09-.02.18-.03.27-.05-.05-.37-.23-.78-.12-1.1.22-.65.07-1.17-.51-1.35-.36-.12-.84.15-1.31.26.63.84,1.15,1.55,1.68,2.25ZM66.52,29.84c.11.04.22.09.33.13,1.02-1.51,1.36-3.23,1.32-5.08-.55,1.65-1.1,3.3-1.65,4.95ZM95.4,154.92c-.73-.44-1.37-.83-2.01-1.23-.09.05-.19.1-.28.15.25.77.51,1.53.82,2.49.65-.63,1.04-1.01,1.47-1.42ZM156.72,169.16c-.09-.49-.09-.87-.24-1.17-.13-.24-.51-.35-.66-.59-.31-.53-.54-1.11-.87-1.8-.15.76-.28,1.36-.37,1.96-.02.15.11.45.13.45.88-.13,1.06.85,2,1.15ZM84.81,160.79c-.26-1.37-.5-2.59-.74-3.81-.28.56-.35,1.09-.5,1.6-.29.97,0,1.62,1.24,2.21ZM115.59,147.38c0-.09.01-.17.02-.26-.83-.23-1.67-.45-2.65-.72.13.72.22,1.22.33,1.82.84-.31,1.57-.57,2.3-.84ZM36.77,152.44c.05-.99.13-1.73.1-2.46,0-.16-.37-.43-.56-.43-.34.01-.68.2-1.02.32.12.14.21.36.36.41.2.06.45,0,.95-.03-1.03.86-.82,1.43.17,2.19ZM94.98,147.2c.88.46,1.6.84,2.33,1.21.05-.07.11-.14.16-.21-.42-.72-.85-1.44-1.32-2.24-.41.43-.71.74-1.17,1.23ZM22.93,143.65c-.1,0-.2.01-.3.02-.53,2.03-.35,2.86.86,3.46-.2-1.23-.38-2.36-.56-3.49ZM32.46,136.3c.11,0,.23.02.34.03.2-1.79.4-3.59.6-5.38-.31,1.79-1.57,3.46-.95,5.35ZM42.01,144.95c-.28-.92-.55-1.77-.81-2.62-.12,0-.24-.02-.36-.03-.14.36-.44.76-.39,1.09.13.76.42,1.51,1.56,1.56ZM63.87,62.36c-.07.08-.14.16-.21.25l.76,2.93c.06,0,.13-.01.19-.02.03-.62.06-1.25.09-1.9.29.07.52.12.74.18.05-.1.1-.2.15-.3-.57-.38-1.15-.76-1.72-1.14ZM187.15,170.66c-1.13,1.12-1.55,2.59-.99,3.31.72-.94,1.25-1.91.99-3.31ZM225.6,180.34c-.56.61-1.14,1.25-1.89,2.07.86.05,1.46.08,2.05.12-.06-.8-.11-1.47-.16-2.19ZM103.42,159.41c.55-.63,1.06-1.18,1.52-1.76.1-.12.09-.38.04-.55-.03-.08-.3-.13-.44-.1-.94.25-1.47,1.28-1.13,2.4ZM31.94,140.73c-.79,2.46-.79,2.85-.08,3.6,0-1.25.66-2.41.08-3.6ZM110.98,153.75v-3.72c-.95.54-.98,1.69,0,3.72ZM208.99,175.42c-1.05,1.26-1.11,1.98-.31,2.99.76-.89.52-1.86.31-2.99ZM44.32,68.32l.17.04c.2-.99.39-1.98.58-2.94-.51-.08-.78-.13-1.2-.2.15,1.05.3,2.08.45,3.1ZM28.98,82.39c.07.12.15.24.22.36.6-.39,1.24-.72,1.78-1.18.51-.44.9-1.01,1.41-1.6-.98.53-1.84.99-2.74,1.47.19.2.31.33.31.32-.32.21-.65.42-.98.63ZM93.3,151.34c1.88-.65,1.98-1,.66-2.2-.25.82-.45,1.51-.66,2.2ZM28.06,76.19c.13.04.26.07.4.11.33-1.37,1.31-2.56,1.04-4.08-.1-.03-.2-.06-.31-.08-.38,1.35-.75,2.71-1.13,4.06ZM61.69,146.08c-.13,1.08-.26,2.17-.41,3.36,1.6-1.01.91-2.19.41-3.36ZM6.72,159.02c.09-.07.18-.14.28-.21-.67-1.01-1.33-2.02-2-3.03-.01,1.45.57,2.53,1.72,3.25ZM17.83,64.54c.56-2.48.51-2.74-.65-3.17.23,1.13.44,2.15.65,3.17ZM63.08,146.5c.12-.01.24-.03.36-.04.8-1.51-.91-2.3-1.05-3.55-.08.02-.16.05-.25.07.31,1.17.63,2.35.94,3.52ZM189.47,174.88c-.86,1.79-.79,2.24.44,2.99-.16-1.13-.3-2.06-.44-2.99ZM19.03,155.05c.83-1.05.02-1.7-.24-2.41-.06-.15-.32-.23-.48-.35-.06.23-.23.49-.17.67.24.67.55,1.31.89,2.09ZM130.09,162.17c-.78.98-.54,1.56.04,1.95.13.09.62-.33.94-.52-.3-.44-.59-.87-.98-1.44ZM96.92,153.36c.16-.02.33-.04.49-.06-.07-.74-.09-1.49-.24-2.21-.17-.82-.63-1.02-1.51-.19.45.11.72.17.83.2.14.74.29,1.51.43,2.27ZM16.36,148.92c.37.92.67,1.66,1,2.49.87-1.55.68-2.1-1-2.49ZM108.23,156.92c-.19.01-.37.02-.56.03-.04.66-.08,1.31-.13,1.97l1.04-.13c-.12-.62-.24-1.25-.36-1.87ZM95.19,161.52c.13.82.21,1.38.34,2.23.41-1.25.74-2.23,1.06-3.22-.07-.04-.14-.09-.21-.13-.47.43-.93.87-1.2,1.12ZM195.36,174.79c-.72,1.04-.66,2.03.14,2.56.45-.88.54-1.73-.14-2.56ZM127.81,161.13l.42-.33c-.48-.61-.94-1.23-1.45-1.81-.1-.11-.4-.05-.61-.07.02.22-.04.51.07.64.49.55,1.03,1.05,1.56,1.57ZM222.21,182.17c-.13-.74.11-1.68-.99-1.27-.28.11-.69.55-.65.74.25,1.04,1.09.16,1.64.53ZM21.72,145.76c.07-1.19.13-2.37.2-3.56h-.36c-.12,1.18-.86,2.37.16,3.56ZM236.45,183.04c.31.04.57.07.88.11-.06-.27-.09-.4-.1-.42.35.1.71.2,1.06.3.06-.11.12-.22.18-.32-.38-.48-.77-.97-1.11-1.41-.29.56-.56,1.07-.91,1.73ZM42.64,149.71c.1,0,.19-.01.29-.02-.07-.89-.14-1.78-.22-2.82-1.01.79-.99,1.35-.07,2.84ZM32.29,136.33c-.11.01-.21.03-.32.04-.62,1.82-.59,1.96.65,2.58-.12-.95-.22-1.78-.33-2.62ZM164.63,172.61c.68,1.5.83,1.52,2.02.57-.14-.36-.28-.72-.54-1.37-.41.55-.66.9-.92,1.25-.04-.03-.19-.15-.57-.44ZM67.46,35.65c.07.16.14.33.21.49.63-.18,1.26-.37,1.75-.51,0-.37-.07-.63.02-.8.1-.19.36-.3.54-.45-.05-.07-.1-.14-.14-.2-.79.49-1.59.98-2.38,1.47ZM52.19,53.91c-1.26-.09-2.27.25-2.87,1.31.06.11.13.22.19.32.89-.54,1.78-1.09,2.67-1.63ZM78.99,149.53c.1-.02.2-.04.3-.06v-3.57c-.1,0-.2,0-.3,0v3.62ZM28.74,147.78c.04.33.06.59.09.85h.12v-2.41c-1.01.56-1.27,1.29-.82,2.09.18-.16.35-.3.61-.53ZM47.59,147.91c-.11.01-.21.02-.32.03,0,.44-.18,1.05.04,1.28.37.39.99.54,1.51.79.05-.09.1-.17.15-.26-.46-.62-.92-1.23-1.37-1.85ZM129.13,160.92c.07.09.14.19.21.28.19-.13.38-.26.46-.31.4.55.81,1.11,1.22,1.68.11-.07.21-.14.32-.21-.41-.78-.82-1.57-1.32-2.54-.4.5-.64.8-.88,1.11ZM75.15,154.96c.39,1.07.68,1.9,1.03,2.88.65-1.24.32-2.18-1.03-2.88ZM49.5,47.85c1.59-.97,1.6-2.42,1.81-3.78-.57,1.19-1.14,2.38-1.81,3.78ZM21.97,42.82c-.11-.03-.22-.07-.33-.1-.42,1.35-.85,2.7-1.27,4.05.14.04.27.08.41.12.4-1.36.8-2.72,1.2-4.07ZM188.2,174.72c.13,0,.26.02.39.03.09-.92.18-1.84.27-2.76-.56.85-1.38,1.65-.66,2.73ZM88.87,139.39c.1.02.21.04.31.06.51-1.95,1.03-3.91,1.54-5.86-.07-.02-.13-.04-.2-.05-.55,1.95-1.1,3.9-1.66,5.85ZM269.37,179.56c-.08-.12-.15-.24-.23-.36-.69.43-1.39.86-2.08,1.29.08.13.16.26.24.38.71-.41,1.68-.39,2.07-1.31ZM63.51,71.68c.17-1.14.3-2,.43-2.93-1.13.29-1.18.7-.43,2.93ZM44.42,148.72c-.34-.22-.56-.36-.78-.5-.07.05-.14.11-.21.16.16.54.31,1.08.46,1.58.41-.3.9-.51.89-.67-.06-.54-.31-1.06-.48-1.59-.12.06-.23.12-.35.19.12.22.25.44.47.83ZM3.92,153.61c.47-.4.87-.74,1.49-1.27-.78-.09-1.28-.15-1.94-.23.2.66.33,1.1.46,1.5ZM213.34,178.92c-.83.68-.57,1.43.97,2.73-.35-.99-.64-1.82-.97-2.73ZM112.13,149.34c-.78.46-.63,2.15.48,3.12-.17-1.13-.32-2.08-.48-3.12ZM126.15,160.16c-.11.06-.21.12-.32.18.15.67.31,1.34.49,2.14.45-.4.75-.66,1.05-.92-.44-.5-.83-.95-1.22-1.4ZM19.17,147.91c-.17-.93-.29-1.64-.4-2.25-.37.27-.72.53-1.15.85.51.47.95.87,1.55,1.41ZM72.62,82.38c-.87.53-1.51.93-2.15,1.32,1.26.35,1.85-.03,2.15-1.32ZM58.31,142.6c-.79.96-1.25,1.98-.47,3.18.16-1.06.32-2.12.47-3.18ZM152.46,169.73c-.16.02-.31.04-.47.07.09.59.12,1.2.3,1.76.16.5.49.95.75,1.42.04-.01.09-.02.13-.04-.24-1.07-.47-2.14-.71-3.21ZM67.95,141.24c-1.3,1.35-1.26,1.73.14,2.32-.04-.75-.08-1.42-.14-2.32ZM16.25,160.68c.71-1.46-.22-2.89-.83-4.38.29,1.52.58,3.04.83,4.38ZM139.8,167.42c.12-.02.23-.03.35-.05-.15-1.24-.29-2.48-.44-3.72-.13.02-.26.03-.39.05.16,1.24.32,2.48.48,3.72ZM56.3,149.24c-.2.94-.35,1.68-.51,2.46,1.28-.01,1.42-.63.51-2.46ZM114.55,167.12c.64-1.27.37-2.52-.61-2.76.19.88.37,1.69.61,2.76ZM62.69,157.76c.1,0,.21,0,.31,0,.24-.48.52-.94.69-1.45.07-.22-.09-.52-.14-.79-.22.13-.6.23-.64.4-.14.6-.16,1.22-.22,1.83ZM75.78,145.22c-.18-.04-.35-.08-.53-.13-.12.9-.24,1.8-.36,2.7.16.02.33.04.49.07.13-.88.27-1.76.4-2.64ZM140.41,164.8c.09,0,.18,0,.27-.01-.11-1.12-.22-2.23-.34-3.43.24.06.43.11.61.15.04-.08.09-.17.13-.25-.26-.16-.52-.33-.9-.56,0,1.11-.02,2.01.01,2.91.01.4.14.8.22,1.2ZM90.87,151.82c-.09-.03-.18-.06-.27-.1-.31.55-.62,1.11-1.05,1.85h1.42c-.04-.63-.07-1.19-.1-1.76ZM.16,171.12c.3.89.57,1.68.85,2.51.84-.89.63-1.52-.85-2.51ZM34.09,141.42c.84-.59.94-2.02.16-2.5-.05.84-.1,1.61-.16,2.5ZM177.27,179.21c-.53-.5-.8-.93-1.16-1.05-.58-.2-.93.16-.98.78.7.09,1.32.17,2.14.27ZM46.36,144.12c.08-.01.15-.03.23-.04l-.18-2.67c-.12-.02-.23-.04-.35-.05-.16.26-.49.57-.44.79.17.68.48,1.32.74,1.98ZM106.7,171.37v-2.55c-.85.63-.83,1.21,0,2.55ZM69.41,139.9c-.99,1.13-.8,1.97,0,2.82v-2.82ZM2.68,157.67c.46.67.93,1.33,1.39,2,.1-.07.2-.14.3-.22.1-1.08-.85-1.39-1.69-1.79ZM217.48,175.63c.1-.87.21-1.74.32-2.69-.79.28-.95,1.5-.32,2.69ZM102.33,155.06c.05.1.09.2.14.3.53-.06,1.07-.12,1.6-.18.02-.12.05-.25.07-.37-.39-.22-.76-.56-1.16-.6-.19-.02-.43.55-.65.86ZM7.78,146.54c-.5,1.87-.42,2.16.67,2.3-.24-.81-.45-1.55-.67-2.3ZM142.4,174.26c.12.01.24.03.36.04.23-.45.46-.89.75-1.47-.45-.12-.79-.21-1.28-.34.07.69.12,1.23.17,1.76ZM258.48,180.86q1.34-1.16,1.16-1.76-1.28.82-1.16,1.76ZM41.06,148.29c-.12-.01-.24-.02-.36-.03-.09.37-.33.78-.23,1.09.1.33.51.56.79.83.09-.08.19-.16.28-.24-.16-.55-.31-1.1-.47-1.65ZM168.99,169.49c1.16-.41.48-1.31.72-1.96-1.3.33-.78,1.18-.72,1.96ZM179.35,179.15h1.25c.15-.58.28-1.11.42-1.63-.07-.03-.15-.07-.22-.1-.43.51-.86,1.02-1.45,1.73ZM105.29,155.45c.06-.03.11-.07.17-.1-.27-.71-.54-1.41-.82-2.17-.28.15-.53.28-.84.45.55.67,1.02,1.25,1.5,1.82ZM99.71,151.46c-.42-.5-.76-.9-1.09-1.3-.06.03-.13.07-.19.1.09.61.18,1.22.3,1.97.39-.3.65-.5.99-.77ZM68.59,142.38c-.49,1.2-.15,1.86.98,2.19-.3-.67-.6-1.34-.98-2.19ZM47.33,143.64c-.14.06-.28.11-.41.17.32.79.64,1.58.96,2.38.14-.06.29-.12.43-.18-.32-.79-.65-1.58-.97-2.37ZM38.42,137.76c-1.16.88-.62,1.52,0,2.16v-2.16ZM208.23,173.68c-.42.56-.75,1-1.09,1.44.2.08.52.29.58.23.38-.37,1.24-.54.51-1.67ZM197.14,178.49c-1.11.86-1.12.98-.37,2.1.15-.83.26-1.47.37-2.1ZM22.89,51.26c-.08-.1-.17-.2-.25-.3-.52.44-1.05.89-1.57,1.33l.24.28c.56-.4,1.55-.27,1.59-1.32ZM43.9,146.45c.19-.05.38-.11.57-.16-.11-.49-.23-.97-.34-1.46-.21.08-.61.19-.6.23.09.47.24.93.38,1.39ZM60.31,132.94c.12.02.23.04.35.06.14-1.31.28-2.61.42-3.92-.1-.01-.2-.02-.31-.04-.15,1.3-.31,2.6-.46,3.9ZM110.68,157.37c-.18.72-.35,1.44-.53,2.19.9-.13,1.12-.82.53-2.19ZM270.35,182.08c-.1-.16-.19-.31-.29-.47-.39.19-.78.38-1.17.56.13.23.26.46.39.69.35-.26.71-.53,1.06-.79ZM75.01,151.71c-.08,0-.17,0-.25.01v2.57c.85-.98.35-1.79.25-2.59ZM193.74,179.35c.16,0,.32,0,.48,0-.05-.78-.11-1.57-.16-2.35-.1,0-.21,0-.31,0v2.34ZM8.37,150.95c.13-.14.26-.27.38-.41-.05-1.19-.2-1.33-1.6-1.02.5.58.86,1,1.22,1.43ZM36.23,147.65c-.17.1-.34.2-.51.3.24.4.45.81.74,1.17.04.05.43-.18.66-.29-.29-.39-.59-.79-.88-1.18ZM161.45,170.74c.16-.48.31-.96.47-1.43-.31-.11-.58-.2-.86-.29q-.23,1.39.39,1.73ZM140.52,168.68h.44v-2.56c-.1,0-.2,0-.3,0-.05.86-.09,1.71-.14,2.57ZM206.94,177.11c-.79.52-.77.96.14,2.44-.05-.84-.09-1.61-.14-2.44ZM131.07,167.89c.33-.52.55-.82.7-1.15.03-.06-.4-.41-.43-.38-.31.23-.59.49-.82.8-.04.05.25.34.56.74ZM214.36,179c-.16.05-.32.09-.49.14.27.74.55,1.48.82,2.22.11-.04.23-.07.34-.11-.22-.75-.45-1.5-.67-2.24ZM23.71,147.11c.11,0,.22-.01.33-.02-.05-.94-.09-1.87-.14-2.81-.06,0-.13.01-.19.02v2.81ZM70.11,158.21c.09,0,.19-.01.28-.02.16-.75.32-1.5.47-2.25-.14-.02-.29-.05-.43-.07.16.83-.89,1.45-.32,2.35ZM14.01,158.04c-.07-.69-.13-1.37-.21-2.14-1.23.85-.33,1.49.21,2.14ZM182.93,172.94c1.02-.99.46-1.54.1-2.12-.11.01-.23.02-.34.04.07.61.14,1.21.24,2.08ZM70.95,143.6c-.16.03-.31.06-.47.08l.36,1.93c.15-.03.3-.05.45-.08-.11-.64-.23-1.29-.34-1.93ZM94.66,157.92c.13.06.25.11.38.17.19-.3.39-.6.6-.93.08.21.14.37.2.53.09-.02.18-.03.28-.05-.05-.27-.1-.53-.14-.8-.29.06-.66.04-.86.22-.23.2-.3.57-.45.86ZM44.08,151.11c-.15,0-.3,0-.46,0,.07.67.15,1.33.24,2.13,1.2-.78-.02-1.47.22-2.14ZM37.69,141.72c-.09-.03-.17-.06-.26-.09-.23.4-.45.79-.76,1.33.54.07.84.11,1.21.15-.07-.54-.13-.97-.19-1.4ZM30.93,145.03v2.19c.99-.72.62-1.38,0-2.19ZM226.04,182.43c.18.05.37.09.55.14.12-.62.24-1.25.36-1.87l-.37-.1c-.18.61-.36,1.22-.54,1.83ZM105.11,149.09c.2.44.38.85.56,1.25.06,0,.12-.02.18-.02.08-.61.17-1.22.27-1.97-.4.29-.69.51-1.01.74ZM67.98,152.23c.14.76.25,1.32.4,2.13.7-1.41.66-1.67-.4-2.13ZM78.21,147.56q.48-1.59-.58-1.76c.2.59.39,1.17.58,1.76ZM113.82,158.86c-.6,1.29-.59,1.82.04,2.32.06-.09.16-.18.16-.26-.05-.68-.13-1.35-.2-2.06ZM135.92,170.01c-.07,0-.14,0-.21.01v2.23c.07,0,.14,0,.21-.01v-2.24ZM108.85,161.73c.1.67.19,1.34.3,2.06,1.31-.93.07-1.43-.3-2.06ZM69.11,138.74c-1.34,1.75-1.35,1.78-.75,2.42.25-.81.5-1.62.75-2.42ZM149.72,170.88c-.88,1.27-.88,1.29.3,1.77-.1-.62-.19-1.11-.3-1.77ZM262.88,184.46c.42-.85.72-1.46,1.02-2.06-.1-.05-.2-.1-.3-.14-.21.65-1.22.93-.72,2.21ZM265.04,178.7c-.12-.04-.23-.08-.35-.12-.36.49-1.11.9-.24,1.93.24-.75.42-1.28.59-1.81ZM65.31,158.28c-.24-.59-.45-1.1-.66-1.62-.2,1.82-.23,1.98.66,1.62ZM115.22,166.03c.09,0,.18-.02.26-.02.07-.74.56-1.55-.53-2.22.1.82.18,1.53.27,2.24ZM251.26,177.11l.52.09.29-1.85c-.16-.03-.32-.06-.49-.09-.11.62-.22,1.23-.32,1.85ZM95.09,148.96c.16.41.3.77.45,1.16q.71-.55.15-1.46c-.2.1-.4.2-.6.3ZM125.1,163.1c.96-.45,1.02-.84.27-1.81-.09.63-.18,1.19-.27,1.81ZM7.58,166.12c-.31-.64-.62-1.28-1.02-2.11-.67,1.34.45,1.59,1.02,2.11Z"/>
      <path class="cls-5" d="M5.6,103.48c-.08-.67-.17-1.33-.26-2.1-.48.2-.76.32-1.04.44-.45-.48-.89-.94-1.43-1.51.71-.13,1.31-.24,1.95-.36-.05-.1-.07-.28-.16-.32-1.44-.64-1.53-1.91-1.48-3.22.04-1.18.16-2.37.24-3.56.14-.07.48-.15.5-.28.1-.71.18-1.43.15-2.14-.06-1.38-.29-2.65.66-3.99.65-.92.57-2.35.8-3.56.1-.52.13-1.05.4-1.58.1.43.2.86.33,1.43.1-1.67.2-3.18.29-4.68l.36-.02c.14,1.11.1,2.29.46,3.32.46,1.3-.96,2.11-.63,3.38.74-.79,1.43-1.54,2.12-2.28.1.09.2.18.3.27-.65.81-1.3,1.62-2.1,2.61.65-.12,1.18-.22,1.92-.35-.49.44-.87.77-1.49,1.33.58-.1.85-.15,1.12-.19-.98.8-1.09,1.8-.51,2.93.26-.18.59-.41.91-.65-.39,1.19-1.84,1.82-1.69,3.45.44-.41.8-.74,1.35-1.26-.21.5-.32.76-.47,1.11.34.09.62.16,1.05.27-.17.6-.33,1.22-.55,1.99.97-.17,1.93-.33,3.09-.53-.52.42-.88.71-1.23.99.06.09.12.17.18.26.27-.01.54-.03.92-.05-.54.48-.97.91-1.46,1.28-.64.49-1.04,1.01-.73,1.87.05.15-.23.42-.36.64-.23.38-.55.74-.66,1.15-.05.19.29.54.53.71.21.15.53.16.82.35-1.26.66-3.43-.07-3.31,2.42.78-.43,1.33-1.57,2.35-1.15-.84,2.01-1.68,4.01-2.46,5.88-.13-.76-.3-1.75-.47-2.74-.13.02-.27.04-.4.06.05.46.11.92.17,1.44-.45-.43-.89-.85-1.43-1.36.25-.02.41-.03.9-.07-.48-.52-.83-.91-1.22-1.33.11,0,.26-.01.39-.02-.1-.33-.2-.68-.36-1.24.52.5.84.81,1.17,1.11.14-.05.28-.1.42-.16ZM7.76,92.02c-.52.66-.98,1.24-1.43,1.82.58-.21,1.61.17,1.47-.97.09,0,.28-.03.39-.04-.13-.25-.26-.49-.43-.81ZM3.64,96.59c.39.7.78,1.39,1.17,2.09.08-.04.16-.09.23-.13-.52-.64.03-1.84-1.4-1.96Z"/>
      <path class="cls-7" d="M89.49,141.5c.08-.37.13-.75.25-1.11,1.78-5.33,3.57-10.65,5.35-15.97.08-.23.17-.45.4-.62-.61,1.89-1.21,3.78-1.83,5.66-1.23,3.72-2.47,7.43-3.72,11.14-.11.31-.32.59-.48.88,0,0,.03.02.03.02Z"/>
      <path class="cls-10" d="M101.08,120.53c.27-1.86.69-3.68,1.82-5.23,1.36-1.88,3.81-2.57,5.72-1.69-.61,0-1.3-.08-1.96.01-2.72.4-4.03,2.31-4.87,4.69-.25.73-.49,1.46-.73,2.2,0,0,.02.02.02.02Z"/>
      <path class="cls-4" d="M151.96,165.67c-.2-.23-.45-.42-.59-.68-.49-.91-.95-1.84-1.42-2.76-.42-1.81-.84-3.63-1.27-5.44.06-.02.13-.03.19-.05.27,1.05.5,2.11.83,3.14.42,1.28.92,2.53,1.41,3.79.26.67.92,1.19.83,2.01Z"/>
      <path class="cls-3" d="M123.5,150.88l3.09-9.2c.07.02.14.05.2.07-1.02,3.07-2.04,6.14-3.06,9.21-.08-.03-.15-.05-.23-.08Z"/>
      <path class="cls-6" d="M101.24,132.87c-.16-3.05-.37-6.09-.47-9.14-.03-1.06.2-2.13.31-3.2,0,0-.02-.02-.02-.03-.04.75-.12,1.5-.1,2.25.08,2.79.21,5.58.31,8.37.02.58-.02,1.16-.03,1.75,0,0,0,0,0,0Z"/>
      <path class="cls-9" d="M21.39,129.8c-.18-.12-.41-.2-.53-.36-.95-1.27-1.89-2.54-2.79-3.83-.18-.26-.23-.62-.34-.94,1.42,1.57,2.67,3.26,3.67,5.13Z"/>
      <path class="cls-8" d="M242.05,177.25c-.1-.43-.21-.85-.31-1.28.06.03.11.06.17.08.08-.25.23-.51.22-.76-.06-1.65-.14-3.31-.08-4.96,0,2.31,0,4.62,0,6.93,0,0,0-.01,0-.01Z"/>
    </g>
  </g>
</svg>