<?xml version="1.0" encoding="UTF-8"?>
<svg id="Layer_2" data-name="Layer 2" xmlns="http://www.w3.org/2000/svg" viewBox="0 0 204.59 167.06">
  <defs>
    <style>
      .cls-1 {
        fill: #f8f8f8;
        stroke-width: 0px;
      }
    </style>
  </defs>
  <g id="Layer_1-2" data-name="Layer 1">
    <path class="cls-1" d="M23.92,167.06c-6.69,0-12.37-2.18-16.91-6.47-4.41-4.17-6.03-9.35-6.87-12.89-.09-.38-.14-.77-.14-1.16V57.24c0-1.68.85-3.25,2.25-4.18,1.41-.92,3.18-1.08,4.73-.41.38.14.98.37,1.63.8,19.91,13.27,39.81,26.55,59.71,39.82l19.26,12.85c9.74,6.5,19.58,6.53,29.24.1,17.5-11.66,35-23.32,52.5-34.99l25.52-17.02c.4-.26.8-.52,1.27-.82l.75-.47c1.54-.98,3.49-1.04,5.09-.16,1.6.88,2.59,2.56,2.59,4.38v16.28c0,23.46,0,46.92-.02,70.38,0,2.03-.25,4.02-.72,5.91-2.65,10.52-11.74,17.33-23.15,17.33-18.61.01-37.23,0-55.85,0h-42.55c-19.44,0-38.88,0-58.32,0h-.02ZM10,145.93c.87,3.39,2.08,5.68,3.89,7.39,2.69,2.55,5.88,3.73,10.03,3.73h.01c19.44-.01,38.89,0,58.33-.01h42.55c18.61,0,37.23,0,55.84,0,6.89,0,11.92-3.66,13.46-9.78.27-1.08.42-2.28.42-3.47.03-23.46.03-46.91.02-70.37v-6.99l-19.68,13.12c-17.5,11.67-35,23.34-52.5,34.99-13.15,8.75-27.1,8.72-40.33-.11l-19.26-12.85c-17.59-11.73-35.18-23.47-52.78-35.2v79.54Z"/>
    <path class="cls-1" d="M102.29,98.41c-4.65,0-9.29-1.64-14.21-4.91-6.6-4.4-13.2-8.81-19.8-13.21-18.04-12.04-36.69-24.49-55.09-36.63C8.03,40.26,1.87,35.23.1,26.46l-.1-.49v-6.15l.2-.68c.09-.32.18-.65.27-.98.22-.8.45-1.62.74-2.48C4.36,6.32,12.95.18,23.1.03,25.73-.01,28.38,0,30.95,0c1.14,0,2.29,0,3.43,0h35.14c36.98,0,73.97,0,110.95-.01h.01c7.48,0,13.58,2.56,18.14,7.62,4.47,4.96,6.59,11.49,5.81,17.92-.77,6.34-4.31,12.09-9.73,15.77-8.36,5.69-16.91,11.36-25.19,16.86-3.51,2.33-7.02,4.66-10.53,7l-3.4,2.27c-13.03,8.69-26.06,17.38-39.09,26.06-4.91,3.27-9.56,4.91-14.21,4.91ZM10,24.93c.93,3.96,3.41,6.9,8.7,10.38,18.43,12.15,37.1,24.61,55.14,36.66,6.6,4.4,13.19,8.81,19.79,13.21,6.47,4.32,10.85,4.31,17.33,0,13.03-8.68,26.06-17.37,39.09-26.06l3.4-2.27c3.51-2.34,7.03-4.68,10.54-7.01,8.25-5.48,16.78-11.14,25.09-16.8,3.07-2.09,5-5.18,5.42-8.7.44-3.61-.74-7.17-3.32-10.03-2.65-2.94-6.05-4.31-10.71-4.31h-.01c-36.99.02-73.97.01-110.96.01h-35.14c-1.16,0-2.31,0-3.47,0-2.52,0-5.13-.02-7.67.02-5.94.09-10.75,3.48-12.56,8.84-.22.64-.39,1.3-.57,1.95-.04.13-.07.27-.11.4v3.71Z"/>
  </g>
</svg>