<?xml version="1.0" encoding="UTF-8"?>
<svg id="Layer_2" data-name="Layer 2" xmlns="http://www.w3.org/2000/svg" viewBox="0 0 312.45 311.45">
  <defs>
    <style>
      .cls-1 {
        fill: #282016;
        stroke-width: 0px;
      }
    </style>
  </defs>
  <g id="Layer_1-2" data-name="Layer 1">
    <g>
      <path class="cls-1" d="M136.65,147.65H11c-6.07,0-11-4.93-11-11V11C0,4.93,4.93,0,11,0h125.65c6.07,0,11,4.93,11,11v125.65c0,6.07-4.93,11-11,11ZM16,131.65h115.65V16H16v115.65Z"/>
      <path class="cls-1" d="M301.45,147.65h-125.65c-6.07,0-11-4.93-11-11V11c0-6.07,4.93-11,11-11h125.65c6.07,0,11,4.93,11,11v125.65c0,6.07-4.93,11-11,11ZM180.81,131.65h115.65V16h-115.65v115.65Z"/>
      <path class="cls-1" d="M136.65,311.45H11c-6.07,0-11-4.93-11-11v-125.65c0-6.07,4.93-11,11-11h125.65c6.07,0,11,4.93,11,11v125.65c0,6.07-4.93,11-11,11ZM16,295.45h115.65v-115.65H16v115.65Z"/>
      <path class="cls-1" d="M301.45,311.45h-125.65c-6.07,0-11-4.93-11-11v-125.65c0-6.07,4.93-11,11-11h125.65c6.07,0,11,4.93,11,11v125.65c0,6.07-4.93,11-11,11ZM180.81,295.45h115.65v-115.65h-115.65v115.65Z"/>
    </g>
  </g>
</svg>