<?xml version="1.0" encoding="UTF-8"?>
<svg id="Layer_2" data-name="Layer 2" xmlns="http://www.w3.org/2000/svg" viewBox="0 0 287.25 383.32">
  <defs>
    <style>
      .cls-1 {
        fill: #f8f8f8;
        stroke-width: 0px;
      }
    </style>
  </defs>
  <g id="Layer_1-2" data-name="Layer 1">
    <path class="cls-1" d="M141.42,383.32c-19.9-18.91-38.17-39.34-55.53-60.58-22.37-27.38-42.79-56.1-59.16-87.53-11.33-21.74-20.72-44.23-24.68-68.61-6.51-39.98,2.57-76.39,26.63-108.72C51.91,26.66,83.27,7.97,121.68,1.79c76.92-12.38,150.51,40.82,163.6,117.55,5.1,29.91-.1,58.28-11,85.99-13.71,34.85-33.66,66.11-56,95.92-20.53,27.39-43.03,53.08-67.27,77.25-1.66,1.65-3.4,3.21-5.1,4.82h-4.49ZM143.92,369.35c.94-1.29,1.37-2.08,1.98-2.7,28.17-28.91,54.21-59.59,77.08-92.88,18.34-26.69,34.38-54.6,44.65-85.52,9.05-27.24,10.45-54.62,2.24-82.36C246.72,27.69,156.74-10.91,84.14,26.28,30.84,53.59,2.85,111.53,14.87,170.03c5.2,25.3,15.96,48.43,28.66,70.69,22.43,39.31,50.44,74.48,80.81,107.85,6.19,6.81,12.62,13.4,19.59,20.78Z"/>
    <path class="cls-1" d="M144.2,77.93c35.83.11,65.38,29.85,65.33,65.75-.05,36.62-29.64,66.09-66.23,65.96-36.47-.13-65.71-29.91-65.5-66.68.21-35.97,30-65.15,66.4-65.03ZM197.55,143.83c-.07-29.72-24.18-53.94-53.67-53.92-30.08.02-54.17,24.15-54.11,54.22.06,29.49,24.33,53.54,54.04,53.56,29.5.01,53.81-24.35,53.74-53.86Z"/>
  </g>
</svg>